<svg width="17" height="15" viewBox="0 0 17 15" fill="none" xmlns="http://www.w3.org/2000/svg">
<path d="M4.80078 12.1646V13.7828" stroke="#3B3A5D" stroke-width="1.21366" stroke-linecap="round" stroke-linejoin="round"/>
<path d="M12.083 12.1646V13.7828" stroke="#3B3A5D" stroke-width="1.21366" stroke-linecap="round" stroke-linejoin="round"/>
<path d="M3.9917 6.50081V2.41033C3.9917 1.99307 4.11957 1.59291 4.34717 1.29786C4.57478 1.00282 4.88348 0.837067 5.20536 0.837067C5.52724 0.837067 5.83594 1.00282 6.06355 1.29786C6.29115 1.59291 6.41902 1.99307 6.41902 2.41033" stroke="#3B3A5D" stroke-width="1.21366" stroke-linecap="round" stroke-linejoin="round"/>
<path d="M13.7008 5.69171H9.65527V8.11903H13.7008V5.69171Z" stroke="#3B3A5D" stroke-width="1.21366" stroke-linecap="round" stroke-linejoin="round"/>
<path d="M13.5277 6.50082H15.6082C15.7462 6.50082 15.8785 6.55507 15.976 6.65163C16.0736 6.74819 16.1284 6.87915 16.1284 7.01571V9.07525C16.1284 9.89459 15.7996 10.6804 15.2143 11.2597C14.629 11.8391 13.8352 12.1646 13.0075 12.1646H4.68529C3.8576 12.1646 3.0638 11.8391 2.47853 11.2597C1.89326 10.6804 1.56445 9.89459 1.56445 9.07525V7.01571C1.56445 6.87915 1.61925 6.74819 1.7168 6.65163C1.81434 6.55507 1.94664 6.50082 2.08459 6.50082H9.36655" stroke="#3B3A5D" stroke-width="1.21366" stroke-linecap="round" stroke-linejoin="round"/>
</svg>
