<svg width="14" height="20" viewBox="0 0 14 20" fill="none" xmlns="http://www.w3.org/2000/svg">
<path d="M7.3128 0.26416C3.65751 0.26416 0.69165 3.01847 0.69165 6.41237C0.69165 11.8774 7.3128 19.3919 7.3128 19.3919C7.3128 19.3919 13.9339 11.8774 13.9339 6.41237C13.9339 3.01847 10.9681 0.26416 7.3128 0.26416ZM7.3128 9.82804C6.78898 9.82804 6.27693 9.66778 5.84139 9.36752C5.40585 9.06727 5.06639 8.6405 4.86594 8.1412C4.66548 7.64189 4.61304 7.09247 4.71523 6.56241C4.81742 6.03235 5.06966 5.54546 5.44005 5.16331C5.81045 4.78115 6.28236 4.52091 6.79611 4.41547C7.30986 4.31003 7.84237 4.36415 8.32632 4.57097C8.81026 4.77779 9.22389 5.12802 9.51491 5.57739C9.80592 6.02675 9.96125 6.55506 9.96125 7.0955C9.96049 7.81997 9.68121 8.51454 9.18469 9.02682C8.68818 9.5391 8.01497 9.82725 7.3128 9.82804Z" fill="#FFBB50"/>
</svg>
