<svg width="18" height="18" viewBox="0 0 18 18" fill="none" xmlns="http://www.w3.org/2000/svg">
<path d="M15.9916 0.593262H1.6296C0.84484 0.593262 0.15918 1.15792 0.15918 1.93347V16.3273C0.15918 17.1071 0.84484 17.802 1.6296 17.802H15.9874C16.7764 17.802 17.3679 17.1025 17.3679 16.3273V1.93347C17.3725 1.15792 16.7764 0.593262 15.9916 0.593262ZM5.4935 14.9376H3.0282V7.2724H5.4935V14.9376ZM4.34613 6.10697H4.32846C3.53947 6.10697 3.02858 5.51965 3.02858 4.78443C3.02858 4.03578 3.55291 3.46228 4.35957 3.46228C5.16623 3.46228 5.65983 4.03155 5.6775 4.78443C5.67711 5.51965 5.16623 6.10697 4.34613 6.10697ZM14.5035 14.9376H12.0382V10.7464C12.0382 9.74232 11.6794 9.05627 10.7875 9.05627C10.1061 9.05627 9.70273 9.51722 9.52334 9.96626C9.45612 10.1276 9.43807 10.3473 9.43807 10.5716V14.9376H6.97276V7.2724H9.43807V8.33911C9.79684 7.82823 10.3573 7.09302 11.6614 7.09302C13.2797 7.09302 14.5039 8.15973 14.5039 10.4595L14.5035 14.9376Z" fill="white"/>
</svg>
