<svg width="21" height="16" viewBox="0 0 21 16" fill="none" xmlns="http://www.w3.org/2000/svg">
<path d="M20.5437 4.00045C20.5437 2.23882 19.2137 0.821691 17.5702 0.821691C15.344 0.720299 13.0736 0.681152 10.7534 0.681152H10.0301C7.71552 0.681152 5.44112 0.7203 3.21495 0.822083C1.57546 0.822083 0.245379 2.24704 0.245379 4.00867C0.14492 5.40192 0.102326 6.79557 0.104737 8.18921C0.100718 9.58285 0.14626 10.9778 0.241361 12.3741C0.241361 14.1357 1.57144 15.5646 3.21093 15.5646C5.54962 15.6703 7.94858 15.7172 10.3877 15.7133C12.8309 15.7211 15.2232 15.6716 17.5645 15.5646C19.208 15.5646 20.5381 14.1357 20.5381 12.3741C20.6346 10.9765 20.6788 9.58285 20.6747 8.1853C20.6838 6.79165 20.6402 5.3967 20.5437 4.00045ZM8.42275 12.0296V4.33712L14.2494 8.18138L8.42275 12.0296Z" fill="white"/>
</svg>
