<svg width="18" height="18" viewBox="0 0 18 18" fill="none" xmlns="http://www.w3.org/2000/svg">
<path d="M12.628 2.13669C13.6003 2.13948 14.5319 2.51237 15.2193 3.17392C15.9068 3.83546 16.2943 4.7319 16.2972 5.66746V12.7282C16.2943 13.6638 15.9068 14.5602 15.2193 15.2218C14.5319 15.8833 13.6003 16.2562 12.628 16.259H5.29044C4.3182 16.2562 3.38661 15.8833 2.69914 15.2218C2.01166 14.5602 1.62415 13.6638 1.62125 12.7282V5.66746C1.62415 4.7319 2.01166 3.83546 2.69914 3.17392C3.38661 2.51237 4.3182 2.13948 5.29044 2.13669H12.628ZM12.628 0.724609H5.29044C2.46523 0.724609 0.153809 2.94884 0.153809 5.66746V12.7282C0.153809 15.4469 2.46523 17.6711 5.29044 17.6711H12.628C15.4532 17.6711 17.7647 15.4469 17.7647 12.7282V5.66746C17.7647 2.94884 15.4532 0.724609 12.628 0.724609Z" fill="white"/>
<path d="M13.7288 5.66763C13.5111 5.66763 13.2983 5.60551 13.1173 5.48913C12.9363 5.37275 12.7952 5.20733 12.7119 5.01379C12.6286 4.82026 12.6068 4.6073 12.6493 4.40184C12.6918 4.19639 12.7966 4.00766 12.9505 3.85954C13.1045 3.71141 13.3006 3.61054 13.5141 3.56967C13.7276 3.5288 13.9489 3.54978 14.15 3.62994C14.3512 3.71011 14.5231 3.84586 14.644 4.02004C14.765 4.19421 14.8295 4.39899 14.8295 4.60847C14.8298 4.74765 14.8016 4.88551 14.7464 5.01415C14.6912 5.14278 14.6101 5.25966 14.5078 5.35808C14.4056 5.45649 14.2841 5.53449 14.1504 5.58761C14.0167 5.64073 13.8735 5.66793 13.7288 5.66763ZM8.95935 6.37348C9.5399 6.37348 10.1074 6.53914 10.5901 6.8495C11.0728 7.15986 11.449 7.601 11.6712 8.11711C11.8934 8.63323 11.9515 9.20115 11.8382 9.74906C11.725 10.297 11.4454 10.8003 11.0349 11.1953C10.6244 11.5903 10.1014 11.8593 9.532 11.9683C8.96261 12.0773 8.37243 12.0213 7.83607 11.8076C7.29972 11.5938 6.8413 11.2317 6.51876 10.7673C6.19623 10.3028 6.02408 9.75666 6.02408 9.19802C6.02491 8.44915 6.33443 7.73118 6.88472 7.20165C7.43501 6.67212 8.18113 6.37428 8.95935 6.37348ZM8.95935 4.9614C8.08858 4.9614 7.23736 5.20987 6.51334 5.6754C5.78932 6.14092 5.22501 6.80259 4.89178 7.57673C4.55855 8.35088 4.47136 9.20272 4.64124 10.0245C4.81112 10.8464 5.23044 11.6013 5.84617 12.1938C6.4619 12.7863 7.24639 13.1898 8.10043 13.3532C8.95447 13.5167 9.83971 13.4328 10.6442 13.1121C11.4487 12.7915 12.1363 12.2485 12.6201 11.5518C13.1039 10.8551 13.3621 10.0359 13.3621 9.19802C13.3621 8.0744 12.8982 6.9968 12.0725 6.20228C11.2469 5.40776 10.127 4.9614 8.95935 4.9614Z" fill="white"/>
</svg>
