<svg width="18" height="14" viewBox="0 0 18 14" fill="none" xmlns="http://www.w3.org/2000/svg">
<path d="M17.4231 2.01641C16.7859 2.2931 16.1117 2.47539 15.4217 2.55752C16.1468 2.13326 16.6921 1.45923 16.9553 0.661872C16.2698 1.06243 15.521 1.34348 14.7412 1.49299C14.4128 1.14906 14.0178 0.875452 13.5803 0.688802C13.1428 0.502151 12.6718 0.406354 12.1961 0.407233C10.2701 0.407233 8.71144 1.94214 8.71144 3.83425C8.71008 4.09744 8.74026 4.35984 8.80134 4.61585C7.42024 4.55115 6.06786 4.19909 4.83072 3.58218C3.59358 2.96527 2.49893 2.0971 1.61679 1.03322C1.30732 1.55457 1.14365 2.1494 1.1429 2.75557C1.1429 3.94389 1.76331 4.99428 2.70014 5.60965C2.1451 5.59649 1.60143 5.44969 1.11529 5.18172V5.22416C1.11529 6.88639 2.31861 8.26922 3.91125 8.58398C3.61175 8.66376 3.30313 8.70419 2.99318 8.70423C2.77325 8.70461 2.55382 8.68329 2.33808 8.64057C2.78083 10.0022 4.06945 10.9924 5.5959 11.0207C4.35555 11.976 2.83272 12.4922 1.26677 12.4885C0.988806 12.488 0.711103 12.4715 0.435059 12.4389C2.02811 13.4555 3.87991 13.9931 5.77003 13.988C12.1887 13.988 15.6953 8.76435 15.6953 4.23389C15.6953 4.08536 15.6914 3.93682 15.6843 3.79181C16.365 3.30802 16.9538 2.70681 17.4231 2.01641Z" fill="white"/>
</svg>
