<svg width="17" height="13" viewBox="0 0 17 13" fill="none" xmlns="http://www.w3.org/2000/svg">
<path d="M0.706055 5.36572H15.8094" stroke="#3B3A5D" stroke-width="1.21366" stroke-linecap="round" stroke-linejoin="round"/>
<path d="M14.8656 10.0861V11.502C14.8656 11.6272 14.8059 11.7472 14.6997 11.8357C14.5935 11.9242 14.4494 11.974 14.2992 11.974H12.6001C12.4499 11.974 12.3058 11.9242 12.1996 11.8357C12.0934 11.7472 12.0337 11.6272 12.0337 11.502V10.0861" stroke="#3B3A5D" stroke-width="1.21366" stroke-linecap="round" stroke-linejoin="round"/>
<path d="M4.48178 10.0861V11.502C4.48178 11.6272 4.4221 11.7472 4.31589 11.8357C4.20967 11.9242 4.06561 11.974 3.9154 11.974H2.21628C2.06607 11.974 1.92201 11.9242 1.81579 11.8357C1.70957 11.7472 1.6499 11.6272 1.6499 11.502V10.0861" stroke="#3B3A5D" stroke-width="1.21366" stroke-linecap="round" stroke-linejoin="round"/>
<path d="M3.53809 7.25418H5.426" stroke="#3B3A5D" stroke-width="1.21366" stroke-linecap="round" stroke-linejoin="round"/>
<path d="M11.0898 7.25418H12.9778" stroke="#3B3A5D" stroke-width="1.21366" stroke-linecap="round" stroke-linejoin="round"/>
<path d="M14.8653 5.64363L12.8073 0.979371C12.7646 0.880695 12.6944 0.796667 12.6051 0.737516C12.5159 0.678365 12.4116 0.646642 12.3048 0.64621H4.21039C4.10362 0.646642 3.99928 0.678365 3.91008 0.737516C3.82087 0.796667 3.75063 0.880695 3.70793 0.979371L1.6499 5.64363V10.0858H14.8653V5.64363Z" stroke="#3B3A5D" stroke-width="1.21366" stroke-linecap="round" stroke-linejoin="round"/>
</svg>
