<svg width="110" height="213" viewBox="0 0 110 213" fill="none" xmlns="http://www.w3.org/2000/svg">
<path d="M0.0380859 55.0302C0.0380859 24.8846 24.4759 0.446777 54.6215 0.446777C84.7671 0.446777 109.205 24.8846 109.205 55.0302V212.263H0.0380859V55.0302Z" fill="url(#paint0_linear_32_3613)"/>
<path d="M84.6627 100.194V66.2923C84.6566 65.9188 84.5759 65.5503 84.4253 65.2085C84.2747 64.8667 84.0572 64.5585 83.7856 64.3021L56.7994 39.7783C56.3019 39.3232 55.6521 39.0708 54.9778 39.0708C54.3036 39.0708 53.6538 39.3232 53.1563 39.7783L26.1701 64.3021C25.8921 64.5535 25.6704 64.8607 25.5193 65.2036C25.3681 65.5466 25.291 65.9175 25.293 66.2923V100.194" stroke="#FFBB50" stroke-width="2.44404" stroke-linecap="round" stroke-linejoin="round"/>
<path d="M17.1462 100.194H92.7077" stroke="#FFBB50" stroke-width="2.44404" stroke-linecap="round" stroke-linejoin="round"/>
<path d="M62.6663 100.194V81.3036C62.6663 80.5879 62.382 79.9015 61.8759 79.3954C61.3698 78.8893 60.6834 78.605 59.9677 78.605H49.1732C48.4575 78.605 47.7711 78.8893 47.265 79.3954C46.7589 79.9015 46.4746 80.5879 46.4746 81.3036V100.194" stroke="#FFBB50" stroke-width="2.44404" stroke-linecap="round" stroke-linejoin="round"/>
<circle cx="54.6215" cy="42.8101" r="21.1816" fill="white"/>
<g clip-path="url(#clip0_32_3613)">
<path d="M44.7248 48.183C44.5079 48.3531 44.4253 48.7517 44.5411 49.0725C44.6561 49.3934 44.9255 49.5156 45.1417 49.3443C45.3332 49.1936 46.3862 48.8773 47.4038 48.6352C48.2731 48.4285 49.0807 48.28 49.2289 48.344L53.2983 50.1151C55.3998 51.3998 57.1662 49.792 57.4357 49.527L68.001 41.2845L67.7941 40.7044L68.0018 41.2856C68.0203 41.2719 68.0373 41.2559 68.0535 41.2388C69.4254 40.0535 69.5598 39.165 68.9097 38.425C68.4998 37.958 67.5957 37.7262 66.4847 37.5423V37.5412C66.4593 37.5366 66.4346 37.5366 66.4099 37.5377C65.5645 37.5309 63.7556 38.851 62.159 40.0158C61.0727 40.8083 60.0915 41.5243 59.7078 41.6305L58.4084 41.9925C58.2216 42.045 58.1614 41.9457 58.0626 41.7835C57.9251 41.5574 57.7561 41.2799 57.4457 40.9819C56.3471 39.9256 55.0964 40.0203 53.9136 40.1083C53.8287 40.1151 53.7438 40.1208 53.6604 40.1265C53.3485 40.1482 53.0219 40.1619 52.6753 40.1619C52.3448 40.1619 52.0206 40.1482 51.7071 40.114C51.2509 40.0649 50.817 39.6195 50.373 39.165C50.258 39.0474 50.1422 38.9286 50.048 38.8361C48.148 36.9805 47.3629 37.5971 45.9956 38.6694C45.6358 38.9515 45.2305 39.2701 44.7611 39.5636C44.5357 39.704 44.4299 40.0877 44.5248 40.4212C44.6198 40.7546 44.8792 40.9111 45.1046 40.7706C45.6265 40.4429 46.0411 40.1185 46.4086 39.8296C47.4818 38.9869 48.0978 38.5038 49.5578 39.929C49.6774 40.0466 49.7739 40.1448 49.8689 40.2419C50.414 40.8003 50.9474 41.3461 51.6446 41.4215C51.992 41.4592 52.3356 41.474 52.6753 41.474C52.9988 41.474 53.3446 41.458 53.7021 41.4329C53.7862 41.4272 53.8704 41.4204 53.9553 41.4147C54.9999 41.3359 56.1054 41.2536 56.9624 42.077C57.1701 42.2768 57.2982 42.4869 57.4017 42.6582C57.7066 43.1607 57.8935 43.4667 58.5706 43.2783L59.8699 42.9163C60.3733 42.7759 61.407 42.0222 62.5504 41.1885C64.0652 40.0831 65.7845 38.8293 66.3975 38.8453C67.3618 39.0051 68.1222 39.181 68.3662 39.4585C68.3677 39.4596 68.1554 39.6344 67.6073 40.1026C67.6003 40.1071 67.5926 40.1128 67.5857 40.1185L67.5864 40.1197L57.0365 48.3543C57.0095 48.3714 56.984 48.3931 56.9593 48.4194L56.9609 48.4216C56.9462 48.4376 55.4616 50.0112 53.6403 48.9024C53.6195 48.8876 53.5971 48.875 53.5739 48.8647L53.4481 49.4962L53.5731 48.867L49.4798 47.0856C49.1965 46.9622 48.2414 47.1084 47.2656 47.3402C46.1662 47.6006 44.9919 47.9729 44.7248 48.183Z" fill="#3B3A5D"/>
<path d="M58.5428 42.7121C58.5305 42.3501 58.322 42.0714 58.0773 42.0897C57.8325 42.108 57.6442 42.4163 57.6573 42.7783C57.7229 44.618 56.8343 45.2403 55.7403 45.3317C54.4695 45.4379 52.9293 44.8886 52.0299 44.5323C51.7929 44.4387 51.5497 44.6465 51.4864 44.9971C51.4231 45.3477 51.5636 45.7074 51.8006 45.801C52.7525 46.1779 54.3877 46.7591 55.7889 46.6415C57.3654 46.5113 58.6447 45.5555 58.5428 42.7121Z" fill="#3B3A5D"/>
<path d="M45.378 37.7652V50.2981C45.378 50.6612 45.1788 50.9558 44.9333 50.9558H41.2167C40.9712 50.9558 40.772 50.6612 40.772 50.2981V37.7652C40.772 37.402 40.9712 37.1074 41.2167 37.1074H44.9333C45.1788 37.1074 45.378 37.402 45.378 37.7652ZM44.4886 49.6414V38.4229H41.6614V49.6414H44.4886Z" fill="#3B3A5D"/>
</g>
<defs>
<linearGradient id="paint0_linear_32_3613" x1="54.6215" y1="0.446777" x2="54.6215" y2="212.263" gradientUnits="userSpaceOnUse">
<stop stop-color="#FFE5BB"/>
<stop offset="1" stop-color="white" stop-opacity="0"/>
</linearGradient>
<clipPath id="clip0_32_3613">
<rect width="28.5137" height="13.8495" fill="white" transform="translate(40.772 37.1074)"/>
</clipPath>
</defs>
</svg>
