<svg width="137" height="156" viewBox="0 0 137 156" fill="none" xmlns="http://www.w3.org/2000/svg">
<path d="M8.25247 34.1073C18.5733 15.1058 44.5365 -7.0757 80.1544 2.16362C115.772 11.4029 139.838 30.9488 135.895 64.9552C131.952 98.9616 111.231 127.217 66.5999 128.044C21.9682 128.871 -14.3803 75.7738 8.25247 34.1073Z" fill="#DFA857"/>
<path d="M29.427 108.452L35.0315 110.171L30.8666 105.265C33.1498 102.727 34.457 99.46 34.5552 96.0474" stroke="#A7542A" stroke-width="0.813894" stroke-linecap="round" stroke-linejoin="round"/>
<path d="M22.6265 110.615C24.505 110.016 26.2777 109.125 27.88 107.976" stroke="#A7542A" stroke-width="0.813894" stroke-linecap="round" stroke-linejoin="round"/>
<path d="M1 100.194C2.6509 108.148 11.439 113.047 20.6318 111.142" stroke="#A7542A" stroke-width="0.813894" stroke-linecap="round" stroke-linejoin="round"/>
<path d="M2.33937 91.2271C1.98655 91.8971 1.68719 92.594 1.44409 93.3113" stroke="#A7542A" stroke-width="0.813894" stroke-linecap="round" stroke-linejoin="round"/>
<path d="M34.2867 93.2899C32.6394 85.3362 23.8477 80.4372 14.6585 82.346C10.4857 83.1654 6.72518 85.4037 4.01538 88.681" stroke="#A7542A" stroke-width="0.813894" stroke-linecap="round" stroke-linejoin="round"/>
<path d="M24.5352 90.3749C21.8887 87.4921 18.2825 89.4903 16.782 92.4161C14.3039 90.2674 10.2106 89.741 8.82832 93.4045C6.49342 99.5748 14.4793 103.339 18.1751 104.699C18.5941 104.857 18.9379 104.989 19.2243 105.086C19.4571 104.889 19.7293 104.639 20.0587 104.338C22.981 101.698 28.9973 95.238 24.5352 90.3749Z" stroke="#A7542A" stroke-width="0.813894" stroke-linecap="round" stroke-linejoin="round"/>
<path d="M106.576 12.5636L101.165 10.311L104.836 15.5968C102.327 17.9031 100.718 21.0249 100.295 24.4064" stroke="#A7542A" stroke-width="0.813894" stroke-linecap="round" stroke-linejoin="round"/>
<path d="M113.545 11.0557C111.619 11.4733 109.769 12.1886 108.062 13.1757" stroke="#A7542A" stroke-width="0.813894" stroke-linecap="round" stroke-linejoin="round"/>
<path d="M134.076 23.5108C133.198 15.4282 124.922 9.6984 115.59 10.7262" stroke="#A7542A" stroke-width="0.813894" stroke-linecap="round" stroke-linejoin="round"/>
<path d="M131.881 32.3064C132.29 31.6728 132.649 31.0083 132.955 30.3188" stroke="#A7542A" stroke-width="0.813894" stroke-linecap="round" stroke-linejoin="round"/>
<path d="M100.295 27.1782C101.172 35.2537 109.448 40.9763 118.781 39.9629C123.012 39.5471 126.97 37.6809 129.983 34.6807" stroke="#A7542A" stroke-width="0.813894" stroke-linecap="round" stroke-linejoin="round"/>
<path d="M121.11 32.1203C125.248 29.9053 126.807 24.7554 124.592 20.6176C122.377 16.4798 117.227 14.921 113.089 17.136C108.951 19.3509 107.393 24.5008 109.608 28.6386C111.823 32.7764 116.972 34.3352 121.11 32.1203Z" stroke="#A7542A" stroke-width="0.813894" stroke-linecap="round" stroke-linejoin="round"/>
<path d="M113.871 25.7029L116.414 28.1022L120.654 20.8003" stroke="#A7542A" stroke-width="0.813894" stroke-linecap="round" stroke-linejoin="round"/>
<path opacity="0.2" d="M64.3654 87.8322C64.3654 87.8322 62.8246 106.477 65.0535 111C67.2825 115.523 68.3991 146.425 67.3993 150.312C67.3993 150.312 74.5752 152.121 77.4144 149.55C80.2536 146.979 84.6206 149.455 91.8138 146.953C99.0069 144.451 93.8176 88.9272 93.8176 88.9272L94.0384 68.7282L82.1752 58.1592L64.3654 87.8322Z" fill="black" fill-opacity="0.7"/>
<path d="M73.9304 96.7996C73.8856 96.9329 73.8133 97.0553 73.7183 97.1588C72.1862 98.6087 65.6465 100.219 60.0287 101.379C55.3761 102.344 51.3727 102.997 51.3727 102.997C51.3727 102.997 48.2911 77.3884 48.2911 74.6963C48.2911 72.0043 43.3225 28.421 43.3225 28.421L55.2332 27.906L71.0349 27.2222C71.0349 27.2222 71.1301 28.3864 71.2902 30.4206C72.3333 43.3787 75.9169 91.6882 73.9304 96.7996Z" fill="#F4BEA5"/>
<path opacity="0.2" d="M73.9304 96.7999L60.0287 99.6434L54.7788 100.721C53.3549 99.3231 52.2686 99.2971 52.2686 99.2971L51.8358 95.3803L51.1563 88.9704L45.1749 32.5762C46.4733 31.6803 47.1139 29.7197 47.1139 29.7197L55.1207 29.4297L68.9921 28.9233L71.2816 30.4035C72.3333 43.379 75.9169 91.6884 73.9304 96.7999Z" fill="black" fill-opacity="0.7"/>
<path d="M73.9304 96.7999L60.0287 99.6434L54.7788 100.721C53.3549 99.3231 52.2686 99.2971 52.2686 99.2971L51.8358 95.3803L51.1563 88.9704L45.1749 32.5762C46.4733 31.6803 47.1139 29.7197 47.1139 29.7197L55.1207 29.4297L68.9921 28.9233L71.2816 30.4035C72.3333 43.379 75.9169 91.6885 73.9304 96.7999Z" stroke="#A7542A" stroke-width="0.813894" stroke-linecap="round" stroke-linejoin="round"/>
<path d="M53.0044 80.1971L57.644 80.1885L57.6484 81.6384L56.3586 82.0971L53.3853 82.4217L53.0044 80.1971Z" fill="#F4BEA5" stroke="#A7542A" stroke-width="0.813894" stroke-linecap="round" stroke-linejoin="round"/>
<path d="M53.2899 83.1837L56.7004 83.0669L57.5747 83.4824L57.5314 85.4083L53.5496 85.4516L53.2899 83.1837Z" fill="#F4BEA5" stroke="#A7542A" stroke-width="0.813894" stroke-linecap="round" stroke-linejoin="round"/>
<path d="M53.8352 86.2608L57.7305 85.9795L57.6872 87.438L55.8045 88.1046L53.8136 87.992L53.8352 86.2608Z" fill="#F4BEA5" stroke="#A7542A" stroke-width="0.813894" stroke-linecap="round" stroke-linejoin="round"/>
<path d="M54.069 88.7192L57.2155 88.8794L57.5011 89.6844L57.0424 90.5716L54.2291 90.7534L53.7444 89.3814L54.069 88.7192Z" fill="#F4BEA5" stroke="#A7542A" stroke-width="0.813894" stroke-linecap="round" stroke-linejoin="round"/>
<path d="M57.6958 91.5371L58.1286 92.7966C58.1977 92.9304 58.2337 93.0788 58.2337 93.2294C58.2337 93.38 58.1977 93.5284 58.1286 93.6622C58.0481 93.7542 57.9454 93.824 57.8302 93.8649C57.715 93.9058 57.5913 93.9165 57.4708 93.8959C57.2284 93.8743 56.9903 93.792 56.748 93.779C56.0165 93.7487 55.3457 94.3503 54.6272 94.2118C54.3459 93.4328 53.6361 92.2902 54.5969 91.9396C54.7744 91.8834 57.7997 91.8228 57.6958 91.5371Z" fill="#F4BEA5" stroke="#A7542A" stroke-width="0.813894" stroke-linecap="round" stroke-linejoin="round"/>
<path d="M57.683 95.0815C57.7517 95.381 57.8008 95.6846 57.8302 95.9904C57.8741 96.1838 57.8677 96.3852 57.8116 96.5754C57.7556 96.7655 57.6517 96.9382 57.5099 97.0768C57.3253 97.1781 57.1188 97.2331 56.9083 97.2369L54.4067 97.462C54.3702 96.9897 54.363 96.5156 54.385 96.0424C54.5322 95.4797 54.4283 95.5273 54.9607 95.2979C55.8046 94.9387 56.8174 95.51 57.683 95.0815Z" fill="#F4BEA5" stroke="#A7542A" stroke-width="0.813894" stroke-linecap="round" stroke-linejoin="round"/>
<path d="M48.5853 33.8569C48.5853 33.8569 49.5288 42.9761 49.5721 44.7809" stroke="#A7542A" stroke-width="0.813894" stroke-linecap="round" stroke-linejoin="round"/>
<path d="M50.6196 33.9565L51.0611 38.9814" stroke="#A7542A" stroke-width="0.813894" stroke-linecap="round" stroke-linejoin="round"/>
<path d="M57.6699 32.0566L58.2412 37.9471L59.0419 38.025L58.7822 32.1129L57.6699 32.0566Z" fill="#F4BEA5" stroke="#A7542A" stroke-width="0.813894" stroke-linecap="round" stroke-linejoin="round"/>
<path opacity="0.2" d="M73.9304 96.7996C73.8857 96.9329 73.8134 97.0553 73.7183 97.1588C72.1862 98.6087 65.6466 100.219 60.0288 101.379V97.4834L51.8531 95.3887L50.6196 95.0727L51.1736 88.9788L53.29 65.694L55.1381 29.4468L55.216 27.906L71.035 27.2222C71.035 27.2222 71.1302 28.3864 71.2903 30.4206C72.3334 43.3787 75.917 91.6882 73.9304 96.7996Z" fill="black" fill-opacity="0.7"/>
<path d="M73.9304 96.7996C73.8856 96.9329 73.8133 97.0553 73.7183 97.1588C72.1862 98.6087 65.6465 100.219 60.0287 101.379C55.3761 102.344 51.3727 102.997 51.3727 102.997C51.3727 102.997 48.2911 77.3884 48.2911 74.6963C48.2911 72.0043 43.3225 28.421 43.3225 28.421L55.2332 27.906L71.0349 27.2222C71.0349 27.2222 71.1301 28.3864 71.2902 30.4206C72.3333 43.3787 75.9169 91.6882 73.9304 96.7996Z" stroke="#A7542A" stroke-width="0.813894" stroke-linecap="round" stroke-linejoin="round"/>
<path d="M82.3138 154.913C82.4133 153.999 80.9764 140.898 80.9505 139.475C80.8812 135.579 79.7776 130.468 79.7776 130.468C78.2368 126.529 77.0379 117.453 72.9263 111.632C68.8146 105.811 68.819 98.9641 68.1351 93.1516C67.4513 87.339 67.6201 87.8411 67.7932 82.6821C67.9181 78.8068 67.7459 74.9276 67.2782 71.0786C66.9363 67.6508 66.2525 61.6219 67.2782 58.813C68.3039 56.0041 70.9873 55.3506 73.9261 58.1638C76.8648 60.977 78.0636 72.5112 78.0636 73.9351C78.0636 75.359 78.0636 79.8083 79.0937 81.5222C79.0937 81.5222 84.9149 78.5445 84.9149 77.7222C84.9149 76.8998 84.7418 69.6331 85.5988 69.2435L82.1753 58.1638L88.6673 55.8569C89.8894 56.953 90.945 58.2215 91.8008 59.6223C92.5336 60.7822 93.147 62.0133 93.6316 63.2968C96.3712 70.5636 100.773 75.6317 101.682 77.7222C102.591 79.8126 101.682 96.4149 101.682 99.5008C101.682 102.587 99.6908 116.813 99.7428 119.206C99.7817 120.938 100.95 127.378 102.115 132.316C102.547 134.22 105.174 148.018 105.577 149.113L82.3138 154.913Z" fill="#F7D4C2"/>
<path opacity="0.7" d="M130.389 122.313C133.849 132.476 110.02 147.257 110.02 147.257C87.5051 160.083 56.5594 148.96 49.6605 143.797C42.7615 138.635 36.3043 140.93 22.0482 136.748" stroke="#A7542A" stroke-width="0.813894"/>
<path opacity="0.4" d="M87.4382 68.5121C87.3949 69.4426 88.5072 76.8609 88.5072 76.8609C89.2776 78.7089 85.0707 85.0106 85.0707 85.0106C84.1618 85.5213 83.7723 88.6894 83.7723 88.6894C80.9245 88.0575 74.4021 81.5005 74.4021 81.5005C74.4021 81.5005 73.6317 84.1882 72.7661 90.8404C71.9005 97.4926 77.3885 113.294 79.7256 124.205C82.0627 135.116 80.9505 139.462 80.9505 139.462C80.8812 135.566 79.7776 130.455 79.7776 130.455C78.2368 126.516 77.0379 117.44 72.9263 111.619C68.8146 105.798 68.819 98.9641 68.1351 93.1516C67.4513 87.339 67.6201 87.8411 67.7932 82.6821C67.9181 78.8068 67.7459 74.9276 67.2782 71.0786C66.9363 67.6508 66.2525 61.6219 67.2782 58.813C68.3039 56.0041 70.9873 55.3506 73.926 58.1638C76.8648 60.977 78.0636 72.5112 78.0636 73.9351C78.0636 75.359 78.0636 79.8083 79.0937 81.5222C79.0937 81.5222 84.9149 78.5445 84.9149 77.7222C84.9149 76.8998 84.7418 69.6331 85.5988 69.2435L82.1753 58.1638L88.6673 55.8569C89.8894 56.953 90.945 58.2215 91.8008 59.6223C89.7017 63.8205 87.4814 67.9321 87.4382 68.5121Z" fill="#F4BEA5"/>
<path opacity="0.4" d="M98.3534 120.353C98.6391 117.756 99.4917 111.584 100.033 107.732C99.3705 110.74 98.3015 112.264 98.3015 112.264C98.3015 112.264 100.145 90.1909 100.327 88.8449C100.509 87.4989 102.37 81.4483 101.686 77.7002C102.595 79.7863 101.686 96.393 101.686 99.4789C101.686 102.565 99.6951 116.791 99.7471 119.184C99.786 120.916 101.643 131.948 102.807 136.886C100.305 133.25 98.0678 122.963 98.3534 120.353Z" fill="#F4BEA5"/>
<path d="M105.568 149.091C104.201 145.153 99.8077 121.565 99.7558 119.184C99.7038 116.804 101.695 102.56 101.695 99.4788C101.695 96.3973 102.604 79.7863 101.695 77.7002C100.786 75.6141 96.3842 70.5416 93.6446 63.2748C92.6091 60.4334 90.9066 57.8819 88.6803 55.835L82.1883 58.1418L85.6118 69.2216C84.7462 69.6111 84.9279 76.8778 84.9279 77.7002C84.9279 78.5225 79.1067 81.5002 79.1067 81.5002C78.0767 79.769 78.0767 75.3371 78.0767 73.9131C78.0767 72.4892 76.8778 60.9507 73.9391 58.1418C71.0003 55.3329 68.3126 55.9778 67.2912 58.791C66.2698 61.6042 66.9493 67.6289 67.2912 71.0567C67.7596 74.9099 67.9318 78.7935 67.8062 82.6731C67.6331 87.8321 67.46 87.3214 68.1482 93.1426C68.8363 98.9638 68.832 105.811 72.9393 111.632C77.0466 117.453 78.2498 126.529 79.7906 130.468C79.7906 130.468 82.699 151.489 82.3268 154.912" stroke="#A7542A" stroke-width="0.813894" stroke-linecap="round" stroke-linejoin="round"/>
<path d="M79.0936 81.5005C79.0936 81.5005 80.1194 86.2916 82.4305 88.6894" stroke="#A7542A" stroke-width="0.813894" stroke-linecap="round" stroke-linejoin="round"/>
<path d="M79.7169 83.6855C79.7169 83.6855 84.0449 85.0099 85.8541 85.0922" stroke="#A7542A" stroke-width="0.813894" stroke-linecap="round" stroke-linejoin="round"/>
<path d="M84.9149 77.7003C84.9149 77.7003 87.9965 76.2763 89.9657 77.1333" stroke="#A7542A" stroke-width="0.813894" stroke-linecap="round" stroke-linejoin="round"/>
<path d="M85.5988 69.2218C85.5988 69.2218 87.9965 69.0011 88.5072 67.8022" stroke="#A7542A" stroke-width="0.813894" stroke-linecap="round" stroke-linejoin="round"/>
<path d="M73.7183 112.853C73.7183 112.853 78.3233 118.57 79.6909 121.478" stroke="#A7542A" stroke-width="0.813894" stroke-linecap="round" stroke-linejoin="round"/>
<path d="M100.496 87.8325C99.7255 92.3726 98.6954 104.785 98.3535 107.01" stroke="#A7542A" stroke-width="0.813894" stroke-linecap="round" stroke-linejoin="round"/>
<path d="M101.967 79.2715C102.097 83.3831 101.102 85.5212 101.102 85.5212" stroke="#A7542A" stroke-width="0.813894" stroke-linecap="round" stroke-linejoin="round"/>
<path d="M66.5684 21.7388L98.3015 30.1092C98.3015 30.1092 87.1482 63.9587 84.8846 68.1569L81.1019 97.6654C81.1019 97.6654 60.8294 96.7738 51.5068 93.9563C51.5068 93.9563 57.4016 63.2273 57.7176 59.1286C58.0335 55.03 66.5684 21.7388 66.5684 21.7388Z" fill="#F4BEA5"/>
<path d="M59.743 57.3111L66.7371 27.4087C66.7371 27.4087 69.745 25.9156 70.9093 24.5522L93.6444 31.0183C93.6444 31.0183 93.7137 33.2473 95.0164 34.6755L83.5428 67.7373L80.7599 92.1085C80.7599 92.1085 77.0594 92.4028 76.7045 95.1381C76.7045 95.1381 64.7072 95.7873 56.6614 93.6666C56.6614 93.6666 55.7136 90.7105 54.2637 88.8408L59.743 57.3111Z" stroke="#A7542A" stroke-width="0.813894" stroke-linecap="round" stroke-linejoin="round"/>
<path d="M65.5643 58.8646C65.5643 58.8646 67.6287 51.0742 74.8998 52.4721C82.1709 53.8701 78.0636 63.4696 78.0636 63.4696C78.0636 63.4696 78.1069 71.2168 72.2078 70.1478C67.0921 69.2216 64.3654 66.4127 65.5643 58.8646Z" fill="#F4BEA5" stroke="#A7542A" stroke-width="0.813894" stroke-linecap="round" stroke-linejoin="round"/>
<path d="M69.5027 30.252C69.5027 30.252 67.304 39.1547 66.7371 40.8686" stroke="#A7542A" stroke-width="0.813894" stroke-linecap="round" stroke-linejoin="round"/>
<path d="M71.3855 31.0225L70.1044 35.9045" stroke="#A7542A" stroke-width="0.813894" stroke-linecap="round" stroke-linejoin="round"/>
<path d="M87.4382 34.4458L91.8138 35.9866L91.3334 37.3586H89.9657L87.053 36.6747L87.4382 34.4458Z" fill="#F4BEA5" stroke="#A7542A" stroke-width="0.813894" stroke-linecap="round" stroke-linejoin="round"/>
<path d="M86.711 37.3584L89.9656 38.3841L90.6495 39.068L89.9656 40.8684L86.1959 39.583L86.711 37.3584Z" fill="#F4BEA5" stroke="#A7542A" stroke-width="0.813894" stroke-linecap="round" stroke-linejoin="round"/>
<path d="M86.1959 40.4399L89.9656 41.4787L89.4333 42.8377H87.438L85.5986 42.0673L86.1959 40.4399Z" fill="#F4BEA5" stroke="#A7542A" stroke-width="0.813894" stroke-linecap="round" stroke-linejoin="round"/>
<path d="M85.5987 42.8379L88.5071 44.0368V44.8894L87.78 45.5775L85.0707 44.8071V43.3486L85.5987 42.8379Z" fill="#F4BEA5" stroke="#A7542A" stroke-width="0.813894" stroke-linecap="round" stroke-linejoin="round"/>
<path d="M88.0786 46.7032V48.0362C88.1011 48.1831 88.089 48.3331 88.0431 48.4744C87.9973 48.6157 87.919 48.7443 87.8146 48.8499C87.7071 48.9086 87.5865 48.9394 87.464 48.9394C87.3415 48.9394 87.221 48.9086 87.1135 48.8499C86.8927 48.746 86.6807 48.5902 86.4729 48.4993C85.7934 48.2267 84.9581 48.5686 84.3089 48.205C84.3089 47.3784 84.0189 46.067 85.0403 46.041C85.2091 46.054 88.0786 47.0062 88.0786 46.7032Z" fill="#F4BEA5" stroke="#A7542A" stroke-width="0.813894" stroke-linecap="round" stroke-linejoin="round"/>
<path d="M86.8797 50.04C86.847 50.3451 86.792 50.6474 86.7152 50.9445C86.62 51.3297 86.4339 51.7582 86.0487 51.8621C85.8413 51.8965 85.6286 51.8786 85.4298 51.8101L82.9974 51.1696C83.1151 50.7142 83.2596 50.2662 83.4302 49.8279C83.7592 49.3475 83.6466 49.3561 84.2223 49.3172C85.1571 49.2782 85.9188 50.1568 86.8797 50.04Z" fill="#F4BEA5" stroke="#A7542A" stroke-width="0.813894" stroke-linecap="round" stroke-linejoin="round"/>
<path d="M78.6652 31.624L77.2067 37.3587L77.9338 37.7006L79.691 32.0482L78.6652 31.624Z" fill="#F4BEA5" stroke="#A7542A" stroke-width="0.813894" stroke-linecap="round" stroke-linejoin="round"/>
<path d="M60.3879 70.1348L64.8804 71.299L64.5168 72.7013L63.1535 72.8225L60.1931 72.3853L60.3879 70.1348Z" fill="#F4BEA5" stroke="#A7542A" stroke-width="0.813894" stroke-linecap="round" stroke-linejoin="round"/>
<path d="M59.9118 73.0996L63.2401 73.844L63.9845 74.4673L63.4565 76.3197L59.5916 75.3588L59.9118 73.0996Z" fill="#F4BEA5" stroke="#A7542A" stroke-width="0.813894" stroke-linecap="round" stroke-linejoin="round"/>
<path d="M59.6651 76.2158L63.5084 76.9256L63.0929 78.3236L61.1063 78.4967L59.2063 77.8864L59.6651 76.2158Z" fill="#F4BEA5" stroke="#A7542A" stroke-width="0.813894" stroke-linecap="round" stroke-linejoin="round"/>
<path d="M59.2712 78.6523L62.2748 79.6002L62.3484 80.4528L61.6819 81.1972L58.9163 80.6606L58.7908 79.2107L59.2712 78.6523Z" fill="#F4BEA5" stroke="#A7542A" stroke-width="0.813894" stroke-linecap="round" stroke-linejoin="round"/>
<path d="M62.0714 82.292L62.1883 83.6207C62.2238 83.7655 62.2246 83.9165 62.1908 84.0617C62.1569 84.2068 62.0893 84.3419 61.9935 84.456C61.8916 84.5236 61.7742 84.5642 61.6524 84.574C61.5305 84.5839 61.4081 84.5626 61.2967 84.5123C61.0673 84.4301 60.8639 84.2916 60.6259 84.2223C59.929 84.0059 59.124 84.4171 58.4618 84.1098C58.3839 83.2875 57.9901 82.0064 59.0028 81.9068C59.1587 81.8982 62.0974 82.595 62.0714 82.292Z" fill="#F4BEA5" stroke="#A7542A" stroke-width="0.813894" stroke-linecap="round" stroke-linejoin="round"/>
<path d="M61.1669 85.7202C61.1608 86.0349 61.1319 86.3488 61.0804 86.6594C61.0155 87.0489 60.8683 87.4947 60.4961 87.6288C60.2916 87.6809 60.0773 87.6809 59.8729 87.6288L57.3972 87.196C57.4805 86.731 57.5918 86.2714 57.7305 85.8197C58.0161 85.3133 57.9036 85.3307 58.4749 85.2441C59.3838 85.1099 60.2148 85.9193 61.1669 85.7202Z" fill="#F4BEA5" stroke="#A7542A" stroke-width="0.813894" stroke-linecap="round" stroke-linejoin="round"/>
<path d="M79.0936 89.9225C79.0936 89.9225 80.1237 78.4359 80.1237 77.2803" stroke="#A7542A" stroke-width="0.813894" stroke-linecap="round" stroke-linejoin="round"/>
<path d="M77.0378 89.4074C77.0378 89.4074 77.4706 83.4347 77.5485 82.396" stroke="#A7542A" stroke-width="0.813894" stroke-linecap="round" stroke-linejoin="round"/>
<path d="M69.0093 85.0928L67.62 91.8921H69.0093L70.0177 85.0928H69.0093Z" fill="#F4BEA5" stroke="#A7542A" stroke-width="0.813894" stroke-linecap="round" stroke-linejoin="round"/>
<path opacity="0.2" d="M84.9581 67.9878C81.9544 67.3603 79.2754 66.4384 77.2931 65.1097C77.2931 65.1097 78.7301 69.2386 83.8241 76.276L81.0845 97.6651C81.0845 97.6651 67.8537 97.0852 57.856 95.3756C60.9289 86.7196 66.512 70.3163 65.8498 67.066C64.9539 62.6038 68.1177 57.3366 68.1177 57.3366C78.1198 55.5361 87.8189 47.975 94.4754 41.5825C91.0866 51.6019 86.4599 65.0188 84.9581 67.9878Z" fill="black" fill-opacity="0.7"/>
<path d="M66.5684 21.7388L98.3015 30.1092C98.3015 30.1092 87.1482 63.9587 84.8846 68.1569L81.1019 97.6654C81.1019 97.6654 60.8294 96.7739 51.5068 93.9563C51.5068 93.9563 57.4016 63.2273 57.7176 59.1286C58.0335 55.03 66.5684 21.7388 66.5684 21.7388Z" stroke="#A7542A" stroke-width="0.813894" stroke-linecap="round" stroke-linejoin="round"/>
<path d="M84.1618 89.1219L79.691 121.478C78.6955 119.362 75.9819 115.752 74.5796 113.948C74.0602 113.272 73.714 112.853 73.714 112.853L72.9219 111.632C68.8146 105.811 68.8147 98.9639 68.1308 93.1427C67.447 87.3215 67.6158 87.8322 67.7889 82.6732C67.9148 78.8009 67.744 74.9246 67.2782 71.0784C66.9363 67.6506 66.2525 61.6216 67.2782 58.8127C67.7803 57.4364 68.6848 56.5795 69.8188 56.3977C70.9527 56.2159 72.4156 56.7353 73.9261 58.1635C76.8648 60.9724 78.0636 72.511 78.0636 73.9349C78.0636 75.3588 78.0637 79.808 79.0937 81.5219C79.0937 81.5003 81.855 86.7242 84.1618 89.1219Z" fill="#F6D4C2"/>
<path opacity="0.4" d="M72.5844 109.325C73.5192 110.519 74.1554 112.242 74.5796 113.947C74.0602 113.272 73.714 112.852 73.714 112.852L72.9219 111.632C68.8146 105.811 68.8147 98.9637 68.1308 93.1425C67.447 87.3213 67.6158 87.832 67.7889 82.6729C67.9148 78.8006 67.744 74.9244 67.2782 71.0781C66.9363 67.6503 66.2525 61.6214 67.2782 58.8125C67.7803 57.4362 68.6848 56.5792 69.8188 56.3975C71.9828 57.012 74.1468 59.215 74.8999 62.9847C76.1983 69.3123 70.3424 64.2009 68.9878 69.5633C67.6331 74.9258 69.6023 76.3713 70.4117 77.7217C71.221 79.072 70.1866 82.0497 68.9878 86.0488C67.7889 90.0479 70.0178 106.04 72.5844 109.325Z" fill="#F4BEA5"/>
<path d="M84.1618 89.122C81.8506 86.7243 79.0937 81.5003 79.0937 81.5003C78.0636 79.7691 78.0636 75.3372 78.0636 73.9133C78.0636 72.4894 76.8647 60.9508 73.926 58.1419C70.9873 55.333 68.2996 55.9779 67.2781 58.7911C66.2567 61.6044 66.9362 67.629 67.2781 71.0568C67.7465 74.9101 67.9187 78.7936 67.7932 82.6732C67.6201 87.8322 67.4469 87.3215 68.1351 93.1427C68.8232 98.9639 68.8189 105.811 72.9262 111.632L73.7183 112.853C73.7183 112.853 78.3233 118.57 79.6909 121.478" stroke="#A7542A" stroke-width="0.813894" stroke-linecap="round" stroke-linejoin="round"/>
<path d="M69.0094 75.4282C69.0094 75.4282 72.9349 73.3984 74.8998 73.5715" stroke="#A7542A" stroke-width="0.813894" stroke-linecap="round" stroke-linejoin="round"/>
</svg>
