<svg width="24" height="25" viewBox="0 0 24 25" fill="none" xmlns="http://www.w3.org/2000/svg">
<path d="M19.102 24.2129C18.0718 24.2129 16.6246 23.8404 14.4576 22.6299C11.8224 21.1524 9.78416 19.7884 7.16325 17.1748C4.63628 14.6499 3.40657 13.0152 1.68551 9.88403C-0.258799 6.34865 0.0726411 4.49547 0.443137 3.70344C0.884353 2.7568 1.53562 2.19061 2.37742 1.62864C2.85555 1.31544 3.36154 1.04695 3.88896 0.826583C3.94173 0.803894 3.99082 0.782259 4.03462 0.762735C4.29587 0.645065 4.6917 0.46724 5.19308 0.657201C5.52769 0.782787 5.8264 1.03976 6.29401 1.50147C7.25297 2.44706 8.56343 4.55299 9.04686 5.58722C9.37144 6.28427 9.58625 6.7444 9.58677 7.26046C9.58677 7.86464 9.28278 8.33057 8.91387 8.83344C8.84473 8.9279 8.77612 9.01813 8.70962 9.10572C8.30798 9.63339 8.21985 9.78589 8.2779 10.0582C8.39559 10.6054 9.27328 12.2343 10.7157 13.6732C12.1581 15.1122 13.7403 15.9343 14.2897 16.0514C14.5737 16.1121 14.7294 16.0203 15.274 15.6045C15.3521 15.5449 15.4324 15.4831 15.5163 15.4214C16.0789 15.003 16.5233 14.7069 17.1133 14.7069H17.1165C17.63 14.7069 18.0696 14.9296 18.798 15.2969C19.748 15.776 21.9176 17.0693 22.8692 18.0291C23.3321 18.4956 23.5901 18.7932 23.7163 19.1272C23.9063 19.6301 23.7274 20.0243 23.6107 20.2881C23.5912 20.3319 23.5695 20.3799 23.5469 20.4332C23.3247 20.9596 23.0546 21.4644 22.7399 21.9413C22.1789 22.7803 21.6105 23.4298 20.6615 23.8715C20.1742 24.1019 19.641 24.2187 19.102 24.2129Z" fill="#BE7E5E"/>
</svg>
