<svg width="31" height="23" viewBox="0 0 31 23" fill="none" xmlns="http://www.w3.org/2000/svg">
<path d="M26.5506 0.163391H3.93022C2.93067 0.164421 1.97236 0.547315 1.26556 1.22806C0.558771 1.9088 0.161225 2.83179 0.160156 3.79451V19.3564C0.161225 20.3192 0.558771 21.2422 1.26556 21.9229C1.97236 22.6036 2.93067 22.9865 3.93022 22.9876H26.5506C27.5502 22.9865 28.5085 22.6036 29.2153 21.9229C29.9221 21.2422 30.3196 20.3192 30.3207 19.3564V3.79451C30.3196 2.83179 29.9221 1.9088 29.2153 1.22806C28.5085 0.547315 27.5502 0.164421 26.5506 0.163391ZM25.596 6.16965L15.9015 13.4319C15.7125 13.5734 15.4799 13.6503 15.2404 13.6503C15.001 13.6503 14.7683 13.5734 14.5793 13.4319L4.88485 6.16965C4.77095 6.0868 4.67528 5.98298 4.6034 5.86422C4.53152 5.74545 4.48486 5.61411 4.46614 5.47783C4.44742 5.34155 4.457 5.20304 4.49434 5.07036C4.53167 4.93768 4.59602 4.81346 4.68363 4.70494C4.77124 4.59641 4.88037 4.50574 5.00467 4.43818C5.12898 4.37063 5.26599 4.32754 5.40774 4.31143C5.54948 4.29532 5.69314 4.3065 5.83036 4.34432C5.96759 4.38214 6.09563 4.44586 6.20707 4.53176L15.2404 11.2986L24.2738 4.53176C24.4996 4.36746 24.7836 4.2954 25.0642 4.33117C25.3448 4.36693 25.5995 4.50764 25.7733 4.72286C25.947 4.93808 26.0258 5.21052 25.9926 5.48127C25.9595 5.75201 25.817 5.9993 25.596 6.16965Z" fill="#BE7E5E"/>
</svg>
