<svg width="234" height="596" viewBox="0 0 234 596" fill="none" xmlns="http://www.w3.org/2000/svg">
<g opacity="0.1">
<path d="M444.347 154.726C447.5 166.493 449.468 178.031 450.001 188.533C450.319 194.233 449.983 199.851 449.004 205.214C448.21 209.949 447.764 214.896 447.326 219.675C446.956 223.756 446.57 227.973 445.97 232.068C444.463 242.279 445.398 252.16 448.895 265.269L449.177 266.322C450.187 270.089 450.924 272.842 453.156 276.067C461.747 288.624 469.338 302.15 475.795 316.404C488.879 345.124 491.234 373.248 482.425 395.59C471.592 423.065 455.353 435.942 443.766 438.832C441.246 439.459 438.571 439.967 435.731 440.507C422.232 443.071 406.931 445.973 403.282 463.406C402.312 468.057 401.888 473.005 401.48 477.796C400.808 485.74 400.109 493.954 396.881 501.087C388.615 519.376 367.916 526.813 350.746 517.673L350.159 517.36C340.145 512.03 328.791 505.992 321.553 495.029C321.157 494.443 320.754 493.789 320.354 493.169C319.393 491.601 318.361 490.099 317.266 488.67C313.538 483.997 305.649 477.177 300.519 476.536C296.441 476.022 292.289 477.21 288.279 478.354C280.938 480.446 273.352 482.61 265.473 474.977C260.607 470.255 256.68 464.07 252.877 458.087C247.496 449.625 242.418 441.636 234.831 437.152C231.166 434.989 227.186 434.11 223.341 433.256C218.933 432.283 214.371 431.269 210.131 428.346C197.034 419.327 185.66 405.497 178.924 390.41C174.303 380.054 173.274 365.882 172.879 353.383C172.472 340.604 168.429 326.721 160.145 309.7L160.682 309.349L160.145 309.7C156.911 303.052 153.348 296.541 149.976 290.429C138.805 270.214 131.582 243.553 130.708 219.096C129.695 191.665 136.438 169.233 149.72 155.826C150.917 154.694 152.202 153.703 153.561 152.864C155.068 151.96 156.466 150.828 157.726 149.491C166.168 139.77 168.7 124.263 169.958 111.84C172.172 89.9991 176.741 74.951 192.673 67.3784C198.517 64.4661 204.72 62.5135 211.144 61.5634C217.824 60.5698 225.203 63.0528 230.22 65.31C231.631 65.9432 233.015 66.6387 234.369 67.3564C236.733 68.6614 239.151 69.7435 241.6 70.5925C245.909 71.9518 250.536 74.1402 255.443 76.4615C266.15 81.5295 277.228 86.7751 286.401 84.0401C293.997 81.7695 299.921 75.341 305.657 69.1221C308.766 65.7405 311.988 62.2521 315.43 59.4808C317.092 58.0331 318.624 56.3777 320.007 54.5353C320.434 54.0122 320.865 53.4813 321.302 52.9555C326.532 46.7476 335.29 44.858 343.195 43.8204C351.301 42.7635 359.731 44.1822 366.908 47.8549C369.91 49.3778 372.902 51.3047 375.8 53.1739C378.051 54.6484 380.362 56.1071 382.645 57.3859L383.466 57.8377C387.325 59.9895 390.962 62.0625 394.468 65.5693C399.527 70.6962 404.417 75.7439 408.653 81.1608C409.863 82.7583 411.016 84.421 412.109 86.1424C412.995 87.4702 413.895 88.8497 414.843 90.1331C419.736 96.7589 423.478 103.659 426.888 110.149C434.259 124.169 440.137 139.178 444.347 154.726V154.726ZM447.584 265.225C444.052 252.043 443.189 241.955 444.707 231.568C445.299 227.524 445.681 223.329 446.048 219.276C446.487 214.463 446.945 209.485 447.747 204.678C448.703 199.45 449.03 193.972 448.718 188.413C447.52 164.784 438.973 135.798 425.867 110.872C422.487 104.451 418.787 97.6296 413.976 91.1134C412.996 89.79 412.074 88.3887 411.181 87.0143C410.103 85.3848 408.992 83.6946 407.798 82.1655C403.629 76.8414 398.772 71.8337 393.749 66.7454C390.408 63.3605 386.854 61.3764 383.086 59.2693L382.26 58.7981C379.938 57.4949 377.599 55.9885 375.338 54.5374C372.472 52.6874 369.506 50.7811 366.561 49.2708C359.582 45.725 351.387 44.3332 343.489 45.3759C335.775 46.3903 327.218 48.219 322.246 54.1431C321.807 54.6624 321.385 55.1842 320.962 55.706C319.517 57.6106 317.918 59.3209 316.185 60.8159C312.81 63.535 309.616 66.9948 306.537 70.3269C300.713 76.6526 294.687 83.1982 286.823 85.5339C277.282 88.3812 266.006 83.0502 255.109 77.8876C250.251 75.588 245.654 73.4124 241.425 72.0797C238.91 71.2172 236.425 70.1211 233.992 68.8009C232.662 68.1115 231.286 67.4069 229.903 66.78C225.035 64.6216 217.862 62.1735 211.425 63.1293C205.094 64.0635 198.982 65.9874 193.223 68.8585C177.795 76.1923 173.357 90.8797 171.192 112.209C169.908 124.874 167.322 140.693 158.619 150.706C157.301 152.107 155.84 153.295 154.266 154.248C152.968 155.048 151.74 155.991 150.593 157.067C137.604 170.181 130.992 192.232 131.981 219.157C132.864 243.292 139.97 269.611 150.988 289.555C154.375 295.684 157.954 302.233 161.203 308.918C169.622 326.228 173.738 340.382 174.154 353.471C174.542 365.764 175.54 379.681 180.017 389.701C186.627 404.475 197.77 418.036 210.615 426.887C214.647 429.664 219.089 430.649 223.386 431.603C227.331 432.471 231.396 433.376 235.232 435.638C243.137 440.342 248.558 448.897 253.827 457.161C257.568 463.049 261.438 469.139 266.153 473.714C273.496 480.833 280.441 478.827 287.836 476.741C291.946 475.571 296.211 474.352 300.476 474.892C305.938 475.583 314.234 482.696 318.114 487.578C319.252 489.063 320.323 490.627 321.32 492.259C321.705 492.848 322.104 493.483 322.504 494.089C329.5 504.681 340.673 510.635 350.525 515.877L351.113 516.19C367.726 525.036 387.751 517.835 395.753 500.142C398.863 493.263 399.549 485.197 400.213 477.401C400.623 472.561 401.052 467.55 402.042 462.796C405.875 444.504 421.554 441.528 435.41 438.896C438.231 438.362 440.896 437.855 443.385 437.23C454.719 434.408 470.626 421.752 481.307 394.705C489.928 372.829 487.598 345.231 474.751 317.037C468.344 302.901 460.813 289.486 452.291 277.033C449.862 273.529 449.048 270.471 448.018 266.647L447.639 265.232L447.584 265.225Z" stroke="url(#paint0_linear_43_10145)" stroke-width="1.39479" stroke-miterlimit="10"/>
<path d="M441.633 120.641C442.761 124.85 443.803 129.054 444.844 133.237L446.307 139.113C449.41 151.427 452.537 164.702 454.371 178.317C456.205 191.932 457.116 206.5 457.245 224.066C457.243 226.038 457.246 228.03 457.252 230.035C457.254 247.268 457.263 265.101 465.897 280.553C466.682 281.955 467.584 283.305 468.453 284.608C469.49 286.107 470.462 287.671 471.364 289.293C472.122 290.716 472.831 292.193 473.516 293.622C474.45 295.643 475.465 297.614 476.557 299.525C479.395 304.299 482.008 309.258 484.531 314.04C485.761 316.374 487 318.72 488.27 321.064C491.703 327.303 494.436 334.033 496.378 341.03C496.745 342.398 497.113 343.773 497.484 345.154C499.884 353.975 502.356 363.103 502.026 372.206L502.004 372.737C501.895 376.288 501.745 379.967 500.854 383.312C500.63 384.14 500.394 384.944 500.16 385.733C499.495 387.774 499.004 389.922 498.695 392.144C497.818 399.564 495.881 406.556 492.972 412.8C483.621 432.768 471.021 438.053 456.418 444.138C450.745 446.509 444.878 448.967 438.78 452.462C427.116 459.143 419.516 467.309 414.874 478.239C414.112 480.223 413.554 482.347 413.211 484.565C412.968 485.855 412.71 487.19 412.369 488.492C411.922 490.189 411.402 491.83 410.899 493.418C410.096 495.798 409.418 498.258 408.867 500.783C408.568 502.282 408.293 503.808 408.018 505.335C406.862 511.774 405.661 518.419 402.457 523.685C399.003 529.174 394.753 533.761 389.884 537.251C379.406 544.853 363.982 545.084 349.639 537.845C336.008 530.967 327.549 517.474 319.361 504.399C314.731 497.019 309.798 495.837 302.318 500.311C298.705 502.469 295.874 503.725 292.096 503.742C274.056 503.912 266.535 490.078 259.262 476.696C253.778 466.604 248.105 456.163 237.878 450.961C232.184 448.066 226.298 447.028 220.602 446.022C213.819 444.823 206.804 443.589 199.928 439.233C189.181 432.427 178.045 419.755 169.362 404.474C160.953 389.666 161.284 367.813 161.551 350.259C161.589 347.848 161.625 345.527 161.633 343.318C161.705 328.3 154.449 317.397 146.768 305.86C144.815 302.925 142.789 299.877 140.902 296.778C135.46 287.793 130.95 278.057 127.502 267.852C123.999 257.664 121.664 247.074 120.573 236.432C118.794 218.388 119.738 191.735 126.004 175.859C128.788 168.825 133.351 163.679 137.779 158.702C142.681 153.237 147.717 147.522 150.221 139.324C153.31 129.212 153.638 117.903 153.959 106.962C154.435 90.9219 154.903 74.3931 164.089 61.4921C166.581 58.0017 169.795 56.1788 173.849 54.5183C177.215 53.1389 180.658 51.9855 184.165 51.0624V51.0624C203.167 46.1298 218.831 50.7122 237.941 59.7049L238.906 60.1382C257.021 68.6643 275.756 77.4811 292.687 68.5583C297.51 66.0275 301.755 62.1297 304.925 59.0525C308.247 55.7894 311.412 51.0878 314.778 46.1664C321.019 36.967 327.471 27.4481 335.902 25.4519C353.581 21.2614 377.487 33.0856 392.587 44.4744C400.57 50.5277 408.016 57.7865 414.732 66.0617C422.037 75.0285 428.008 84.4839 432.476 94.1693C436.405 102.595 439.212 111.604 441.633 120.641ZM459.224 267.211C455.983 255.115 455.979 242.31 455.974 229.817C455.969 227.819 455.968 225.833 455.97 223.861C455.844 206.385 454.935 191.926 453.112 178.371C451.289 164.815 448.188 151.657 445.095 139.403L443.631 133.521C440.399 120.488 437.057 107.007 431.424 94.7971C426.646 84.6742 420.744 75.3351 413.925 67.1081C407.295 58.938 399.943 51.7724 392.061 45.7984C377.173 34.5672 353.634 22.8868 336.324 27.0062C328.272 28.9145 321.945 38.2477 315.822 47.2704C312.429 52.2683 309.223 56.9947 305.819 60.3282C302.601 63.4872 298.279 67.4541 293.339 70.0438C275.961 79.1766 256.983 70.245 238.627 61.6106L237.662 61.1773C218.766 52.293 203.297 47.7623 184.597 52.614C181.131 53.5261 177.729 54.6685 174.405 56.0368C170.512 57.6264 167.442 59.3553 165.11 62.6299C156.186 75.1632 155.734 90.7399 155.256 107.209C154.937 118.274 154.6 129.71 151.446 140.054C148.85 148.561 143.702 154.354 138.74 159.952C134.396 164.845 129.906 169.929 127.209 176.713C121.045 192.318 120.126 218.605 121.882 236.427C122.958 246.912 125.26 257.345 128.713 267.383C132.112 277.444 136.559 287.043 141.925 295.902C143.806 298.961 145.8 301.99 147.746 304.914C155.264 316.203 163.034 327.875 162.958 343.531C162.947 345.747 162.908 348.076 162.871 350.472C162.606 367.777 162.275 389.312 170.408 403.626C178.939 418.636 189.884 431.111 200.411 437.789C207.077 442.015 213.976 443.231 220.653 444.41C226.427 445.429 232.401 446.479 238.256 449.462C248.915 454.908 254.714 465.565 260.332 475.897C267.681 489.466 274.668 502.275 291.951 502.113C295.493 502.084 298.193 500.876 301.678 498.815C307.344 495.429 314.003 493.333 320.36 503.495C328.418 516.362 336.756 529.66 350.017 536.366C363.998 543.42 379.005 543.218 389.176 535.836C393.925 532.432 398.071 527.96 401.441 522.608C404.505 517.588 405.673 511.097 406.801 504.796C407.078 503.255 407.357 501.721 407.657 500.208C408.22 497.621 408.914 495.101 409.736 492.664C410.235 491.098 410.749 489.473 411.187 487.82C411.512 486.577 411.761 485.272 412 484.004C412.366 481.669 412.958 479.434 413.765 477.346C418.532 466.19 426.285 457.823 438.169 451.014C444.322 447.483 450.218 445.018 455.921 442.639C470.315 436.624 482.742 431.426 491.889 411.887C494.728 405.788 496.616 398.96 497.465 391.713C497.792 389.391 498.306 387.147 499.001 385.012C499.234 384.258 499.462 383.443 499.679 382.631C500.521 379.479 500.647 375.91 500.773 372.458L500.795 371.927C501.092 363.137 498.69 354.171 496.322 345.493L495.214 341.356C493.338 334.514 490.665 327.937 487.289 321.859C486.016 319.502 484.777 317.157 483.545 314.816C481.033 310.052 478.432 305.117 475.615 300.386C474.489 298.42 473.443 296.39 472.484 294.306C471.809 292.896 471.112 291.443 470.368 290.031C469.497 288.468 468.561 286.958 467.565 285.51C466.638 284.162 465.759 282.765 464.932 281.324C462.475 276.937 460.548 272.172 459.224 267.211V267.211Z" stroke="url(#paint1_linear_43_10145)" stroke-width="1.39479" stroke-miterlimit="10"/>
<path d="M451.975 111.319C454.858 122.08 456.63 133.146 458.352 143.886L459.223 149.292C460.418 156.582 461.266 162.658 460.585 169.198C459.889 175.861 460.392 181.953 461.071 188.662C464.768 225.414 469.405 260.986 485.293 292.181C487.618 296.74 490.228 301.237 492.738 305.539C496.649 312.219 500.655 319.137 503.766 326.571C507.115 334.578 509.498 343.114 511.802 351.36C513.261 356.566 514.762 361.948 516.486 367.118C527.535 400.239 509.855 430.984 487.433 446.803C483.42 449.635 478.733 450.725 474.201 451.78L472.974 452.068C465.633 453.8 455.337 456.794 448.016 461.308C444.062 463.751 440.593 467.248 437.761 470.352C431.072 477.645 429.682 489.24 428.328 500.451C427.359 508.508 426.358 516.844 423.403 523.627C422.76 525.184 422.099 526.675 421.44 528.173C414.059 545.49 408.226 559.161 389.764 561.202C377.847 562.52 360.92 562.115 347.948 552.729C339.395 546.532 330.78 539.237 325.771 527.904C325.226 526.601 324.763 525.258 324.387 523.888C324.002 522.454 323.503 521.055 322.898 519.714C317.929 509.581 311.986 513.304 305.688 517.247C302.757 519.091 299.988 520.85 297.263 521.186C288.555 522.329 282.29 520.299 276.235 514.422C270.693 509.036 265.028 501.034 259.409 490.632C256.401 485.066 253.595 479.875 249.623 475.383C245.741 470.915 241.488 467.01 236.965 463.761C229.669 458.735 222.25 458.315 214.45 457.859C210.588 457.727 206.704 457.295 202.82 456.568C192.824 454.466 183.128 448.201 173.998 437.951C156.05 417.79 156.155 394.218 156.305 369.249L156.325 365.487C156.328 363.853 156.35 362.235 156.366 360.633C156.512 348.057 156.65 336.182 150.476 324.441C147.593 318.987 143.736 314.208 140.008 309.617C136.281 305.025 132.345 300.171 129.361 294.536C121.519 279.714 116.629 263.07 111.902 246.971L110.527 242.295C101.023 210.13 102.71 187.614 116.193 167.03C121.756 158.685 127.808 150.892 134.307 143.703C138.389 139.15 139.54 132.324 140.114 126.234C140.831 118.777 140.964 111.476 141.098 104.439C141.351 91.5296 141.567 79.336 145.089 66.5958C145.545 64.9516 145.964 63.2896 146.381 61.6211C147.184 58.2049 148.145 54.8731 149.258 51.6411C153.644 39.3958 164.505 32.3966 180.638 31.2981C198.302 30.0797 215.026 36.0945 219.762 37.9389C222.26 38.9301 224.869 40.1197 228.22 41.8025C231.282 43.3345 234.397 45.0666 237.747 46.8606C248.843 52.9302 261.424 59.8127 272.361 59.9819C280.624 60.1064 287.478 54.6996 291.78 50.1359C297.226 44.3593 302.358 36.5775 306.616 27.6323C308.049 24.6121 309.858 21.173 312.361 18.4821C321.828 8.4385 339.047 4.4889 350.44 5.8644C366.102 7.76299 378.614 12.305 389.795 20.1575L391.845 21.594C399.53 26.9448 407.487 32.4787 413.352 40.6905C414.912 42.8738 416.352 45.2001 417.743 47.4427C419.284 49.9288 420.872 52.4922 422.609 54.836C430.115 64.9583 436.911 75.852 442.899 87.3625C446.219 93.7654 448.917 100.575 450.926 107.622C451.304 108.876 451.648 110.099 451.975 111.319ZM470.76 257.06C464.923 235.273 462.167 212.204 459.795 188.651C459.133 182.083 458.599 175.619 459.311 168.779C459.967 162.48 459.132 156.532 457.97 149.406C457.673 147.603 457.385 145.799 457.098 143.994C455.189 132.1 453.23 119.804 449.75 108.041C447.78 101.129 445.137 94.4494 441.885 88.1671C435.939 76.7475 429.196 65.9375 421.751 55.8892C420.009 53.4725 418.354 50.9624 416.793 48.3685C415.419 46.1491 413.992 43.8537 412.472 41.7218C406.774 33.7559 398.939 28.3001 391.364 23.0237L389.309 21.5885C378.294 13.8643 365.956 9.39351 350.49 7.5182C339.338 6.1683 322.527 10.0157 313.267 19.8239C310.871 22.3615 309.127 25.6863 307.732 28.6132C303.416 37.6778 298.21 45.5764 292.674 51.4531C286.308 58.2096 279.334 61.7251 272.512 61.6157C261.329 61.4364 248.587 54.4864 237.37 48.3452C234.047 46.5304 230.916 44.8164 227.874 43.2791C224.552 41.6091 221.973 40.4322 219.507 39.4602C209.919 35.657 194.731 31.9292 180.865 32.8771C169.929 33.621 155.761 37.6179 150.429 52.4276C149.34 55.6233 148.399 58.915 147.61 62.2882C147.189 63.9645 146.77 65.6472 146.303 67.3083C142.844 79.8244 142.618 91.9029 142.375 104.692C142.243 111.777 142.107 119.106 141.363 126.639C140.757 132.966 139.548 140.091 135.198 144.952C128.749 152.103 122.747 159.855 117.232 168.156C104.038 188.296 102.397 210.371 111.727 241.925L113.102 246.601C117.802 262.597 122.658 279.139 130.404 293.779C133.292 299.233 137.134 303.973 140.846 308.548C144.629 313.208 148.54 318.027 151.513 323.679C157.964 335.885 157.797 348.024 157.649 360.87C157.633 362.472 157.616 364.089 157.614 365.723L157.595 369.492C157.45 394.002 157.336 417.224 174.773 436.789C183.686 446.799 193.138 452.908 202.856 454.96C206.699 455.668 210.542 456.085 214.363 456.208C222 456.653 229.901 457.109 237.484 462.335C242.116 465.651 246.472 469.64 250.448 474.207C254.564 478.861 257.416 484.144 260.443 489.74C266.009 500.045 271.56 507.898 276.971 513.152C282.705 518.721 288.694 520.631 297.009 519.545C299.519 519.218 302.203 517.537 305.044 515.752C311.278 511.847 318.345 507.414 324.009 518.973C324.669 520.419 325.211 521.93 325.625 523.48C325.978 524.761 326.41 526.017 326.918 527.237C331.747 538.154 340.154 545.27 348.516 551.325C361.165 560.479 377.8 560.858 389.531 559.562C407.397 557.591 413.103 544.196 420.33 527.239C420.989 525.741 421.642 524.217 422.292 522.687C425.14 516.119 426.124 507.919 427.067 499.959C428.45 488.518 429.835 476.648 436.844 469.027C439.748 465.855 443.261 462.285 447.328 459.791C454.768 455.223 465.167 452.181 472.578 450.43L473.805 450.143C478.248 449.112 482.839 448.041 486.693 445.306C508.681 429.79 526.038 399.699 515.313 367.508C513.569 362.288 512.055 356.875 510.597 351.648C508.307 343.461 505.937 334.991 502.641 327.101C499.586 319.797 495.592 312.945 491.731 306.314C489.202 301.961 486.582 297.467 484.234 292.859C478.542 281.539 474.009 269.495 470.76 257.06Z" stroke="url(#paint2_linear_43_10145)" stroke-width="1.39479" stroke-miterlimit="10"/>
<path d="M467.072 105.372C467.304 106.238 467.537 107.11 467.707 108.02C468.223 110.52 468.756 113.043 469.296 115.571C472.634 131.294 476.07 147.482 476.273 163.235C476.347 169.447 476.026 175.647 475.711 181.651C475.178 191.91 474.621 202.514 476.087 213.227C477.931 226.657 482.123 239.867 486.183 252.647C487.333 256.265 488.481 259.877 489.581 263.508C494.173 278.666 501.192 291.866 507.979 304.629C513.228 314.509 518.664 324.726 523.024 335.91C525.757 342.905 527.706 350.456 529.594 357.76C530.02 359.349 530.412 360.934 530.828 362.505C535.69 380.887 538.037 405.752 530.057 420.422C529.296 421.817 528.544 423.244 527.791 424.665C524.878 430.195 521.87 435.945 518.032 440.574C511.635 448.353 505.218 453.825 498.915 456.85C491.65 460.341 483.537 462.134 475.69 463.87C472.602 464.552 469.409 465.255 466.357 466.052C455.616 468.84 447.606 473.943 442.549 481.204C437.983 487.766 437.806 493.851 437.596 500.9C437.554 504.787 437.239 508.615 436.654 512.342C436.233 514.515 435.687 516.628 435.019 518.665C434.545 520.177 434.066 521.794 433.713 523.384C433.247 525.756 432.94 528.198 432.796 530.686C432.657 532.761 432.428 534.81 432.108 536.824C426.605 568.474 396.662 585.539 372.079 583.195C367.025 582.714 362.361 580.778 357.418 578.731L356.989 578.555C343.915 573.147 337.669 559.865 331.034 545.808L329.563 542.692C323.022 528.942 312.826 531.549 302.965 534.074C300.932 534.618 298.994 535.082 297.096 535.438C282.45 538.151 271.429 531.798 263.379 516.022C262.318 513.939 261.239 511.874 260.163 509.815C257.585 504.883 254.924 499.78 252.541 494.547C247.971 484.493 244.104 477.954 236.753 472.224C226.808 464.468 219.778 463.832 208.685 465.364C206.006 465.729 203.217 466.4 200.268 467.107C190.731 469.399 179.924 471.997 170.79 463.927C148.857 444.608 144.348 410.449 142.869 382.851L142.825 382.053C141.181 351.405 140.094 331.167 120.765 306.906C113.035 297.206 107.727 285.251 102.529 272.817C88.1469 238.451 84.5922 203.897 92.7221 178.053C96.0558 167.466 102.437 159.746 108.608 152.269C115.327 144.127 122.275 135.715 125.091 123.688C127.185 114.728 127.93 102.294 127.131 89.5605C126.881 86.6543 126.387 83.7485 125.657 80.8921C125.271 79.1953 124.87 77.4403 124.557 75.5993C122.126 61.205 124.272 45.8125 130.296 34.422C136.586 22.5237 146.869 13.1836 157.833 9.4289L160.256 8.5789C164.38 7.13456 168.427 5.8564 172.473 6.08077C185.263 6.80803 204.137 10.1981 221.483 22.4306C224.417 24.4971 227.394 26.6838 230.254 28.8116C240.625 36.4742 251.352 44.401 262.884 48.2281C265.858 49.2176 270.3 50.5408 274.517 50.6502C278.461 50.729 280.793 48.9685 283.675 46.5069C284.574 45.7261 285.505 45.0472 286.4 44.3919C288.366 42.9443 290.225 41.5737 291.7 39.3643C292.961 37.4824 293.679 35.3722 294.426 33.0949C295.02 31.1464 295.767 29.298 296.657 27.5741C298.697 23.8702 299.987 19.2664 301.354 14.3994C303.773 5.74025 306.283 -3.21323 313.357 -6.76364C337.461 -18.8721 364.356 -7.56404 387.483 5.09294C388.722 5.75815 389.951 6.39108 391.142 7.03459C395.577 9.34276 400.162 11.7354 404.32 15.5026C410.832 21.3878 416.758 28.1503 422.501 34.7263C427.836 40.7885 433.303 47.0647 439.202 52.5604C440.1 53.3998 441.023 54.212 441.945 55.0241C444.543 57.3192 447.236 59.6927 449.493 62.6953C451.75 65.6979 453.483 69.2978 455.138 72.7663C455.744 74.0372 456.348 75.3018 456.975 76.5325C459.231 80.9963 460.464 84.9656 461.865 89.5616L462.608 91.9796C463.207 93.8965 463.871 95.7404 464.512 97.5418C465.472 100.111 466.326 102.725 467.072 105.372V105.372ZM478.883 232.724C477.123 226.325 475.766 219.825 474.826 213.288C473.331 202.389 473.892 191.68 474.432 181.329C474.744 175.353 475.067 169.181 474.987 163.047C474.79 147.493 471.368 131.377 468.054 115.786L466.462 108.222C465.67 104.751 464.629 101.337 463.354 98.0253C462.702 96.2059 462.026 94.3167 461.422 92.3805L460.676 89.9495C459.306 85.4698 458.115 81.5585 455.92 77.2652C455.292 76.0487 454.674 74.7325 454.058 73.4434C452.45 70.0731 450.783 66.5802 448.622 63.718C446.46 60.8559 443.848 58.5647 441.337 56.3157C440.401 55.4932 439.47 54.6695 438.55 53.8289C432.595 48.2792 427.073 41.9762 421.732 35.874C416.025 29.3508 410.121 22.6102 403.652 16.7479C399.636 13.1157 395.334 10.8688 390.775 8.49672C389.544 7.85736 388.312 7.218 387.099 6.54617C364.219 -5.97649 337.642 -17.1688 313.959 -5.27002C307.333 -1.94374 304.909 6.71673 302.563 15.0933C301.237 19.8384 299.849 24.7457 297.738 28.6001C296.892 30.2431 296.186 32.0066 295.629 33.8665C294.933 36.2747 293.961 38.5042 292.739 40.4915C291.147 42.8777 289.119 44.3696 287.163 45.8146C286.276 46.4608 285.394 47.1264 284.503 47.8774C281.558 50.4183 278.96 52.3539 274.68 52.2682C270.4 52.1825 265.775 50.8255 262.731 49.8131C251.011 45.9187 240.197 37.925 229.735 30.1971C226.873 28.0835 223.911 25.8929 220.996 23.8353C203.898 11.7992 185.239 8.42074 172.605 7.72097C168.736 7.50455 164.798 8.7536 160.766 10.1663L159.96 10.4444L158.351 11.0071C147.646 14.6787 137.58 23.822 131.426 35.4554C125.652 46.3707 123.513 61.7126 125.842 75.4903C126.144 77.2718 126.539 79.0009 126.916 80.6655C127.673 83.6319 128.183 86.6498 128.437 89.6675C129.253 102.604 128.494 115.222 126.356 124.353C123.457 136.721 116.41 145.263 109.591 153.523C103.5 160.901 97.2048 168.529 93.9586 178.829C85.9313 204.265 89.4882 238.313 103.68 272.245C108.823 284.535 114.063 296.356 121.634 305.856C141.338 330.605 142.425 351.12 144.105 382.16L144.149 382.959C146.932 434.731 160.168 452.752 171.387 462.653C180.051 470.315 190.142 467.875 199.854 465.542C202.841 464.818 205.636 464.152 208.365 463.774C219.765 462.201 227.004 462.865 237.31 470.898C244.942 476.85 248.934 483.577 253.627 493.91C255.991 499.113 258.644 504.184 261.205 509.093C262.288 511.156 263.373 513.227 264.431 515.318C272.132 530.405 282.7 536.471 296.745 533.871C298.615 533.529 300.524 533.038 302.549 532.523C312.396 530.002 323.559 527.15 330.64 542.043L332.113 545.166C338.577 558.902 344.702 571.87 357.226 577.065L357.655 577.241C362.515 579.256 367.101 581.156 371.992 581.625C402.967 584.577 426.654 560.408 430.844 536.318C431.152 534.36 431.374 532.369 431.509 530.352C431.661 527.772 431.987 525.242 432.482 522.786C432.851 521.137 433.342 519.509 433.833 517.938C434.48 515.97 435.01 513.928 435.419 511.828C435.984 508.163 436.285 504.399 436.317 500.578C436.524 493.557 436.72 486.927 441.538 480C446.738 472.521 454.95 467.281 465.931 464.422C468.997 463.6 472.206 462.913 475.299 462.23C483.091 460.509 491.154 458.729 498.316 455.287C504.483 452.326 510.796 446.944 517.069 439.294C520.814 434.732 523.799 429.079 526.686 423.611C527.442 422.176 528.194 420.749 528.958 419.346C536.7 405.113 534.371 380.79 529.607 362.776C529.187 361.207 528.763 359.624 528.37 358.019C526.497 350.773 524.565 343.286 521.88 336.41C517.56 325.354 512.16 315.19 506.94 305.364C500.109 292.509 493.043 279.218 488.399 263.866C487.304 260.254 486.158 256.649 485.012 253.044C482.875 246.375 480.723 239.591 478.878 232.704L478.883 232.724Z" stroke="url(#paint3_linear_43_10145)" stroke-width="1.39479" stroke-miterlimit="10"/>
<path d="M475.412 90.1809C477.054 96.3061 477.832 102.953 478.582 109.393C478.709 110.459 478.827 111.513 478.956 112.551C481.028 129.643 482.844 147.959 482.147 166.159C481.811 175 481.659 182.982 483.235 191.159C484.415 197.283 485.265 203.447 486.092 209.403C487.769 221.599 489.371 233.117 493.552 244.822L495.204 249.485C496.469 253.075 497.776 256.786 499.146 260.375C503.271 271.217 509.091 281.777 514.716 291.982C517.224 296.533 519.816 301.241 522.196 305.888C523.536 308.389 524.979 310.811 526.516 313.143C528.452 316.173 530.454 319.31 531.98 322.747L532.109 323.051C534.802 329.144 537.577 335.422 538.564 342.331C539.322 347.022 540.31 351.688 541.522 356.301C543.529 364.465 545.601 372.91 545.075 381.041C544.792 385.427 544.684 389.834 544.58 394.096C544.209 409.414 543.859 423.883 535.734 436.291C525.804 451.48 514.506 460.554 499.074 465.719C497.376 466.292 495.686 466.932 494.031 467.562C491.392 468.559 488.668 469.594 485.882 470.34C484.239 470.78 482.576 471.164 480.901 471.543C477.614 472.202 474.387 473.11 471.236 474.265C465.614 476.497 462.688 479.966 459.274 483.986C457.445 486.229 455.502 488.32 453.453 490.25C451.044 492.459 450.235 493.499 449.951 497.366C448.594 515.557 446.954 530.239 444.783 543.571C443.042 554.469 437.379 565.533 432.69 572.24C431.091 574.428 429.38 576.481 427.565 578.387C426.338 579.746 425.031 581.141 423.852 582.64C423.139 583.523 422.447 584.4 421.763 585.275C418.062 590.065 414.566 594.592 409.193 597.36C394.01 605.177 372.909 603.298 355.433 592.561C351.122 589.911 348.136 585.675 345.45 581.567C343.172 577.932 341.072 574.141 339.163 570.218C335.51 563.034 331.732 555.607 325.896 550.848C319.063 545.276 312.475 546.952 305.499 548.704C303.777 549.165 301.99 549.602 300.222 549.931C291.96 551.453 281.68 553.384 273.299 547.045C265.559 541.274 260.996 528.717 256.975 517.667C255.628 513.947 254.353 510.435 253.037 507.384C252.498 506.145 252.009 504.775 251.542 503.468C250.708 501.146 249.849 498.754 248.657 496.839C236.687 477.578 219.024 480.927 200.258 484.496C186.885 487.035 173.058 489.661 161.493 483.254C157.54 481.048 153.175 476.435 150.617 472.824C148.839 470.326 147.636 467.321 146.475 464.415L146.065 463.398C139.5 447.171 134.825 426.854 131.791 401.338C131.41 397.568 131.233 393.805 131.259 390.073C131.241 388.501 131.225 386.935 131.178 385.377C130.19 352.99 119.772 320.384 103.317 298.16C102.268 296.739 101.143 295.352 100.052 294.012C98.083 291.683 96.2384 289.192 94.5343 286.56C88.3583 276.593 84.6721 261.49 81.7137 249.361L80.8733 245.947C79.335 239.711 78.3617 233.407 77.4173 227.31C76.8415 223.597 76.2476 219.758 75.5302 215.972L75.3433 214.978C74.5435 210.786 73.7893 206.823 73.9172 202.451C74.2927 189.207 76.7146 177.089 79.0255 166.951C81.8291 154.654 88.0283 148.538 95.2008 141.462C96.1312 140.521 97.0864 139.573 98.0564 138.622C112.628 123.932 112.949 98.7282 113.267 74.362C113.419 62.561 113.572 50.345 115.397 39.7007C118.359 22.4151 129.459 7.31428 148.399 -5.18344C149.148 -5.6746 149.907 -6.13868 150.677 -6.57567C165.085 -14.7322 186.154 -15.3069 201.91 -7.98302C205.18 -6.38352 208.398 -4.55718 211.548 -2.51321C213.413 -1.35263 215.338 -0.145892 217.243 0.927784C218.836 1.82894 220.468 2.67165 222.047 3.47979C225.121 4.96845 228.141 6.70161 231.084 8.66777C233.047 10.0419 235.008 11.4235 236.968 12.8123C245.368 18.7312 254.052 24.8371 262.774 30.3931C267.811 33.5953 272.041 35.886 276.784 33.9512C286.403 29.9902 289.702 18.3147 292.896 6.99929C294.605 1.02792 296.358 -5.17651 299.029 -10.1676C307.53 -25.9418 323.288 -30.8213 347.202 -25.0746C348.715 -24.7121 350.228 -24.3703 351.726 -24.0246C356.455 -22.9605 361.348 -21.8574 366.122 -20.072C367.938 -19.3307 369.71 -18.3512 371.407 -17.1507C372.269 -16.5862 373.139 -16.01 374.065 -15.4833C374.977 -14.9804 375.904 -14.5358 376.84 -14.1516C378.183 -13.6144 379.5 -12.9274 380.774 -12.0994C386.975 -7.77727 393.473 -3.94976 399.762 -0.252756C408.029 4.61572 416.575 9.65179 424.584 15.8694C439.155 27.184 453.235 44.0676 464.206 63.3613C468.589 71.1588 472.166 79.5421 474.838 88.2734C475.067 88.9107 475.243 89.5484 475.412 90.1809ZM489.859 237.116C487.377 227.854 486.091 218.542 484.836 209.463C484.014 203.526 483.192 197.389 481.998 191.331C480.382 182.944 480.546 174.495 480.875 165.864C481.566 147.803 479.753 129.576 477.696 112.577L477.323 109.405C476.502 102.382 475.643 95.0998 473.692 88.6702C471.061 80.0887 467.543 71.8484 463.238 64.1811C452.375 45.0728 438.464 28.386 424.058 17.1932C416.119 11.019 407.617 6.0267 399.386 1.17609C393.088 -2.53896 386.554 -6.3779 380.29 -10.7178C379.093 -11.4983 377.855 -12.1439 376.591 -12.646C375.611 -13.0488 374.641 -13.5164 373.687 -14.0467C372.734 -14.5939 371.832 -15.1893 370.958 -15.7577C369.345 -16.9113 367.658 -17.8513 365.928 -18.5604C361.217 -20.3074 356.378 -21.4044 351.682 -22.4635C350.165 -22.8039 348.647 -23.1444 347.127 -23.512C323.73 -29.1341 308.352 -24.4394 300.123 -9.17389C297.519 -4.32553 295.783 1.80508 294.114 7.74516C290.862 19.3596 287.46 31.3812 277.331 35.5201C272.136 37.6454 267.655 35.2283 262.331 31.8469C253.587 26.2898 244.88 20.1556 236.466 14.2264L230.585 10.0884C227.691 8.15013 224.723 6.44249 221.7 4.97697C220.114 4.1637 218.467 3.31848 216.853 2.40194C214.921 1.30775 212.979 0.0985386 211.106 -1.07363C207.996 -3.09859 204.82 -4.91045 201.592 -6.50025C186.132 -13.689 165.46 -13.1169 151.313 -5.11345C150.562 -4.69081 149.824 -4.2372 149.094 -3.7578C130.452 8.54916 119.53 23.3398 116.644 40.2175C114.843 50.7168 114.697 62.8759 114.54 74.5812C114.225 99.2927 113.896 124.845 98.9302 139.923C97.9552 140.876 97 141.824 96.0647 142.766C89.0345 149.7 82.9595 155.686 80.2535 167.556C77.9632 177.612 75.5668 189.647 75.1891 202.706C75.0739 206.887 75.8016 210.711 76.5802 214.785L76.7672 215.779C77.4882 219.598 78.0855 223.45 78.6617 227.184C79.5989 233.235 80.565 239.492 82.084 245.636L82.9212 249.058C85.8483 261.05 89.4893 275.965 95.4917 285.66C97.1568 288.221 98.9568 290.645 100.877 292.913C101.978 294.271 103.117 295.674 104.19 297.123C120.897 319.695 131.457 352.734 132.475 385.527C132.525 387.098 132.54 388.678 132.557 390.265C132.533 393.923 132.705 397.612 133.071 401.306C136.069 426.645 140.693 446.754 147.19 462.826L147.629 463.85C148.748 466.643 149.903 469.529 151.546 471.842C153.915 475.178 158.163 479.712 161.9 481.783C173.106 487.98 186.731 485.395 199.928 482.89C218.232 479.417 237.165 475.817 249.674 495.944C250.977 498.037 251.877 500.542 252.744 502.966C253.222 504.298 253.679 505.566 254.187 506.73C255.547 509.825 256.812 513.38 258.173 517.132C262.089 527.926 266.526 540.171 273.868 545.723C281.839 551.723 291.835 549.86 299.886 548.36C301.63 548.039 303.391 547.587 305.104 547.149C312.025 545.391 319.182 543.564 326.498 549.531C332.61 554.528 336.487 562.129 340.23 569.489C342.103 573.346 344.165 577.074 346.402 580.647C348.973 584.642 351.837 588.682 355.86 591.167C373 601.696 393.692 603.554 408.567 595.895C413.739 593.229 417.16 588.798 420.789 584.111C421.477 583.235 422.175 582.356 422.88 581.427C424.067 579.919 425.387 578.493 426.64 577.113C428.426 575.245 430.109 573.233 431.681 571.086C436.281 564.506 441.828 553.68 443.559 542.999C445.722 529.719 447.356 515.093 448.72 496.949C449.046 492.565 450.117 491.179 452.659 488.851C454.673 486.951 456.583 484.892 458.378 482.684C461.73 478.728 464.898 474.994 470.754 472.664C473.951 471.492 477.226 470.569 480.561 469.898C482.216 469.524 483.871 469.15 485.502 468.706C488.243 467.971 490.945 466.95 493.559 465.959C495.242 465.314 496.927 464.676 498.641 464.106C513.814 459.023 524.942 450.085 534.727 435.123C542.599 423.079 542.945 408.854 543.309 393.786C543.413 389.504 543.521 385.076 543.805 380.655C544.313 372.833 542.28 364.551 540.312 356.535C539.077 351.857 538.074 347.123 537.31 342.363C536.38 335.763 533.773 329.876 531.014 323.635L530.886 323.337C529.42 320.022 527.462 316.95 525.563 313.979C523.991 311.597 522.519 309.12 521.152 306.562C518.794 301.978 516.205 297.283 513.705 292.744C508.049 282.499 502.189 271.853 498.012 260.873C496.636 257.264 495.326 253.54 494.053 249.938L492.407 245.281C491.447 242.604 490.594 239.884 489.852 237.132L489.859 237.116Z" stroke="url(#paint4_linear_43_10145)" stroke-width="1.39479" stroke-miterlimit="10"/>
<path d="M494.467 99.0063C495.182 101.673 495.731 104.336 496.302 107.082L497.038 110.58C499.09 119.996 499.49 131.419 499.841 141.491L500.03 146.153C500.131 150.44 500.033 154.697 499.737 158.903C499.633 160.495 499.56 162.079 499.493 163.668C498.037 198.979 501.691 225.433 511.735 252.119C514.31 258.959 517.474 265.032 520.821 271.45L521.269 272.312C525.084 279.629 530.525 290.538 533.737 300.806C534.483 303.174 535.205 305.534 535.924 307.881C539.399 319.227 542.678 329.94 547.713 340.564L549.397 344.099C552.549 350.68 555.52 356.901 558.008 363.875C565.779 385.696 566.965 404.915 561.981 428.147C559.919 437.759 552.401 449.102 546.361 454.9C540.567 460.474 533.32 464.934 524.825 468.159C520.458 469.82 515.839 470.975 511.378 472.087C509.652 472.55 507.901 472.957 506.195 473.414L504.573 473.848C491.841 477.26 477.407 481.127 469.227 493.596C468.22 495.242 467.325 497 466.549 498.854C465.832 500.546 465.028 502.169 464.142 503.713C460.842 509.2 461.347 518.995 461.786 527.674C462.042 531.456 462.106 535.223 461.978 538.951C461.74 543.167 461.451 547.349 461.163 551.537L460.693 558.583C460.239 565.909 458.939 571.323 456.486 576.133C455.224 578.602 454.008 581.184 452.741 583.911C448.51 592.803 444.162 602.031 437.941 608.03C436.199 609.714 434.467 611.618 432.799 613.463C429.187 617.448 425.433 621.575 421.014 624.109C418.541 625.519 415.779 626.169 413.113 626.8C412.322 627.012 411.517 627.173 410.725 627.385C406.448 628.531 402.759 629.18 398.701 628.772C380.709 626.991 367.883 620.898 355.81 608.396C351.727 604.154 347.831 599.503 344.042 595.016C337.023 586.62 329.724 577.953 321.042 571.857C317.463 569.355 314.597 567.936 311.4 568.745C310.263 569.049 309.121 569.355 307.984 569.66C307.153 569.883 306.322 570.105 305.511 570.322C303.781 570.786 302.05 571.25 300.324 571.712C296.66 572.694 292.991 573.677 289.327 574.659C281.973 576.74 275.218 575.623 269.248 571.34C263.098 566.919 258.534 560.328 254.385 553.966C251.064 548.869 248.905 543.282 246.808 537.871C245.565 534.654 244.275 531.325 242.751 528.107C242.031 526.501 241.433 524.83 240.963 523.119C240.681 522.184 240.404 521.248 240.067 520.307C239.014 517.385 236.038 513.082 233.936 510.953C223.78 500.601 212.857 501.749 202.568 504.527L201.816 504.729C193.608 506.928 185.13 509.248 176.292 507.789C174.274 507.458 172.205 507.016 170.204 506.59C169.079 506.347 167.956 506.111 166.834 505.88C166.276 505.774 165.722 505.687 165.217 505.622C162.959 505.244 160.829 504.888 158.468 503.077C155.566 500.769 152.818 498.127 150.265 495.192C147.798 492.437 145.555 489.374 143.579 486.063C140.849 481.666 139.004 477.233 137.051 472.538C136.532 471.293 135.993 469.991 135.44 468.7C129.661 455.28 128.322 439.368 127.144 425.337L127.119 425.046C127.036 424.065 126.927 423.105 126.82 422.151C126.443 419.504 126.331 416.853 126.487 414.261C126.808 411.36 126.885 408.385 126.715 405.383C126.67 404.237 126.7 403.101 126.807 401.988C126.97 400.601 126.95 399.16 126.75 397.719C125.998 393.968 124.959 390.271 123.649 386.681C118.909 373.598 115.354 359.679 111.909 346.228C111.078 342.99 110.242 339.712 109.397 336.479C107.21 328.158 103.482 319.724 97.6697 310.077C94.7364 305.202 91.3331 301.955 88.0434 298.815C82.9509 293.951 78.1444 289.364 75.2137 279.415C74.0992 275.652 72.8915 271.837 71.7202 268.157C70.5488 264.478 69.3239 260.599 68.2022 256.788C61.5598 234.194 58.6126 213.385 59.5146 195.074C60.3427 178.208 65.5399 168.767 71.5629 157.858C73.6992 153.964 75.9315 149.933 78.0987 145.304C78.7797 143.89 79.4762 142.534 80.1728 141.177C81.7211 138.397 83.0502 135.415 84.1444 132.265C85.8118 127.037 87.8889 122.051 89.9034 117.227C91.1283 114.283 92.3968 111.244 93.5543 108.187C96.754 99.7166 97.5248 90.1328 98.2711 80.853C98.6402 75.2496 99.254 69.7162 100.11 64.2771C100.34 62.9419 100.586 61.6649 100.823 60.4112C101.679 55.9533 102.484 51.7375 102.307 46.6083C102.252 44.8377 102.17 43.1088 102.092 41.4134C101.692 32.7036 101.315 24.4724 104.059 16.0208C107.105 6.62304 111.438 -0.150473 116.024 -7.32399C117.621 -9.82813 119.279 -12.4038 120.913 -15.1669C126.024 -23.7822 134.053 -28.8819 141.225 -32.7344C145.604 -35.0841 150.074 -36.2611 154.786 -37.5031L154.984 -37.5561C156.329 -37.9165 157.669 -38.3169 159.008 -38.7173C163.422 -40.0454 167.961 -41.4207 172.774 -41.0218C188.971 -39.6316 204.652 -34.6498 218.122 -26.6257C237.371 -15.1739 250.394 -3.3969 260.338 11.503C263.896 16.8682 267.367 19.4191 270.602 19.0921C279.599 18.1761 285.912 -3.9518 290.092 -18.5945C291.69 -24.1993 292.954 -28.6211 294.031 -30.7714C296.499 -35.7233 300.187 -39.445 303.753 -43.0651L304.586 -43.9112C315.291 -54.752 335.437 -49.7622 351.625 -45.7538C355.383 -44.8229 358.932 -43.9399 362.043 -43.3478C364.626 -42.7778 367.199 -41.9753 369.74 -40.9465C372.179 -39.9516 374.649 -39.1679 377.13 -38.6015C381.3 -37.7948 384.335 -37.0716 388.327 -34.6119C391.082 -32.9875 393.893 -31.5726 396.744 -30.3757C399.757 -29.1053 402.726 -27.5886 405.629 -25.8359C407.651 -24.5577 409.762 -23.3861 411.811 -22.2466C415.124 -20.5079 418.37 -18.5037 421.527 -16.2477C423.529 -14.7081 425.639 -13.4395 427.673 -12.1782C429.707 -10.9169 431.772 -9.6364 433.784 -8.14083C448.773 3.01965 455.332 14.1689 465.26 31.0454L466.978 33.9554C476.682 50.3936 482.97 67.332 489.639 85.2615C490.651 87.9871 491.669 90.7179 492.703 93.4719C493.382 95.2822 493.971 97.1309 494.467 99.0063ZM504.701 234.433C499.025 213.247 497.052 190.993 498.191 163.38C498.26 161.777 498.347 160.182 498.432 158.582C498.729 154.446 498.83 150.26 498.734 146.044C498.673 144.531 498.62 142.967 498.543 141.375C498.198 131.384 497.804 120.064 495.79 110.825C495.531 109.642 495.29 108.467 495.05 107.314C494.096 102.725 493.205 98.4516 491.539 94.0122C490.503 91.2539 489.481 88.515 488.473 85.7954C481.836 67.9472 475.573 51.0992 465.968 34.8143L464.25 31.9043C454.432 15.2198 447.949 4.19553 433.22 -6.7648C431.24 -8.22047 429.201 -9.50113 427.212 -10.733C425.224 -11.9648 423.025 -13.3272 420.963 -14.8716C417.866 -17.0918 414.681 -19.066 411.43 -20.7811C409.369 -21.9245 407.237 -23.1179 405.162 -24.3957C402.315 -26.1043 399.405 -27.5812 396.452 -28.8163C393.546 -30.034 390.682 -31.4763 387.875 -33.1343C384.064 -35.4904 381.136 -36.1729 377.087 -36.9635C374.56 -37.5353 372.045 -38.3299 369.56 -39.3413C367.079 -40.3481 364.566 -41.1321 362.042 -41.6868C358.902 -42.2917 355.338 -43.1707 351.564 -44.1041C335.624 -48.0546 315.8 -52.9713 305.496 -42.5354L304.661 -41.6958C301.161 -38.1628 297.539 -34.5139 295.143 -29.7474C294.127 -27.7243 292.822 -23.1393 291.308 -17.8338C287.04 -2.84904 280.584 19.7532 270.873 20.7358C267.169 21.1124 263.308 18.3337 259.402 12.4804C249.608 -2.19666 236.754 -13.7976 217.708 -25.1445C204.396 -33.0726 188.885 -37.9959 172.861 -39.3704C168.233 -39.7705 163.772 -38.4228 159.457 -37.1213C158.103 -36.7169 156.755 -36.3074 155.403 -35.9521L155.201 -35.8978C150.533 -34.6471 146.107 -33.5027 141.83 -31.2079C134.417 -27.2285 126.911 -22.4076 121.954 -14.0688C120.304 -11.2874 118.627 -8.68578 117.039 -6.18428C112.505 0.906113 108.218 7.61203 105.227 16.8219C102.589 24.9752 102.937 32.6608 103.347 41.5477C103.423 43.2573 103.495 44.9683 103.564 46.7698C103.74 52.1138 102.92 56.4305 102.05 61.0166C101.81 62.2573 101.567 63.5266 101.34 64.854C100.494 70.2366 99.888 75.7125 99.5243 81.2578C98.7728 90.6565 97.9869 100.362 94.7021 109.049C93.535 112.13 92.2668 115.189 91.0336 118.142C89.0369 122.934 86.9727 127.888 85.3261 133.056C84.2073 136.282 82.8504 139.339 81.2711 142.191C80.5711 143.534 79.8729 144.884 79.2379 146.272C77.0496 150.942 74.8159 154.987 72.6551 158.908C66.726 169.653 61.5949 178.945 60.7949 195.402C59.9066 213.467 62.8244 234.028 69.4134 256.443C70.5299 260.234 71.7477 264.067 72.9242 267.766C74.1008 271.464 75.3102 275.286 76.4249 279.07C79.1986 288.472 83.8395 292.897 88.7397 297.577C92.1216 300.823 95.5983 304.127 98.6681 309.214C104.58 319.035 108.394 327.592 110.622 336.164C111.487 339.393 112.293 342.637 113.135 345.92C116.563 359.327 120.109 373.194 124.814 386.182C126.164 389.88 127.233 393.691 128.004 397.556C128.249 399.18 128.282 400.808 128.103 402.374C128.004 403.401 127.974 404.448 128.015 405.505C128.188 408.606 128.109 411.679 127.78 414.676C127.633 417.148 127.744 419.676 128.11 422.199C128.223 423.173 128.332 424.154 128.415 425.156L128.44 425.447C129.608 439.321 130.928 455.044 136.571 468.155C137.13 469.451 137.665 470.734 138.193 472.011C140.113 476.625 141.927 480.983 144.573 485.243C146.488 488.449 148.663 491.414 151.054 494.081C153.54 496.937 156.214 499.51 159.037 501.762C161.131 503.367 163.028 503.682 165.225 504.049C165.778 504.136 166.333 504.229 166.894 504.342C168.014 504.568 169.14 504.813 170.265 505.058C172.255 505.48 174.307 505.92 176.303 506.25C184.929 507.669 193.304 505.397 201.408 503.205L202.135 503.01C212.751 500.166 224.03 498.984 234.655 509.819C236.894 512.105 240.043 516.597 241.218 519.874C241.57 520.852 241.862 521.826 242.155 522.799C242.593 524.407 243.153 525.977 243.825 527.487C245.385 530.778 246.668 534.144 247.947 537.393C250.093 542.95 252.123 548.191 255.338 553.108C259.395 559.329 263.849 565.769 269.77 570.003C275.421 574.067 281.856 575.118 288.894 573.121C292.549 572.086 296.222 571.116 299.906 570.17C301.632 569.708 303.367 569.243 305.088 568.782C305.914 568.561 306.739 568.339 307.56 568.119C308.707 567.812 309.854 567.505 311.021 567.192C314.993 566.19 318.557 568.377 321.585 570.5C330.432 576.718 337.788 585.481 344.896 593.95C348.593 598.392 352.481 603.011 356.542 607.21C368.362 619.441 380.955 625.437 398.631 627.165C402.517 627.563 406.123 626.901 410.307 625.801C411.103 625.588 411.904 625.373 412.719 625.21C415.315 624.598 418.008 623.966 420.362 622.623C424.653 620.165 428.332 616.113 431.875 612.188C433.561 610.352 435.294 608.414 437.066 606.7C443.131 600.854 447.422 591.752 451.577 582.95C452.872 580.208 454.097 577.617 455.368 575.124C457.72 570.529 458.972 565.314 459.437 558.228C459.585 555.881 459.742 553.532 459.907 551.181C460.191 547.001 460.479 542.813 460.717 538.618C460.837 534.961 460.77 531.267 460.515 527.558C460.055 518.643 459.536 508.539 463.092 502.645C463.948 501.148 464.725 499.577 465.419 497.938C466.222 496.015 467.151 494.192 468.198 492.488C476.611 479.638 491.265 475.726 504.158 472.278L505.774 471.845C507.495 471.384 509.236 470.917 510.972 470.514C515.408 469.409 519.998 468.262 524.312 466.621C532.682 463.444 539.811 459.057 545.505 453.586C551.405 447.915 558.733 436.893 560.73 427.555C565.712 404.393 564.58 386.087 556.85 364.379C554.404 357.505 551.452 351.334 548.324 344.801L546.638 341.26C541.539 330.495 538.216 319.717 534.737 308.296C534.018 305.949 533.297 303.595 532.557 301.226C529.388 291.12 524.003 280.32 520.243 273.072L519.796 272.216C516.416 265.73 513.238 259.606 510.606 252.65C508.345 246.691 506.373 240.606 504.701 234.433Z" stroke="url(#paint5_linear_43_10145)" stroke-width="1.39479" stroke-miterlimit="10"/>
</g>
<defs>
<linearGradient id="paint0_linear_43_10145" x1="155.57" y1="327.595" x2="468.22" y2="243.821" gradientUnits="userSpaceOnUse">
<stop stop-color="#F9E2D7"/>
<stop offset="0.0001" stop-color="#FFF7F3"/>
<stop offset="1" stop-color="white" stop-opacity="0"/>
</linearGradient>
<linearGradient id="paint1_linear_43_10145" x1="144.688" y1="333.303" x2="474.907" y2="244.821" gradientUnits="userSpaceOnUse">
<stop stop-color="#F9E2D7"/>
<stop offset="0.0001" stop-color="#FFF7F3"/>
<stop offset="1" stop-color="white" stop-opacity="0"/>
</linearGradient>
<linearGradient id="paint2_linear_43_10145" x1="135.574" y1="336.024" x2="486.956" y2="241.871" gradientUnits="userSpaceOnUse">
<stop stop-color="#F9E2D7"/>
<stop offset="0.0001" stop-color="#FFF7F3"/>
<stop offset="1" stop-color="white" stop-opacity="0"/>
</linearGradient>
<linearGradient id="paint3_linear_43_10145" x1="117.896" y1="337.132" x2="501.621" y2="234.313" gradientUnits="userSpaceOnUse">
<stop stop-color="#F9E2D7"/>
<stop offset="0.0001" stop-color="#FFF7F3"/>
<stop offset="1" stop-color="white" stop-opacity="0"/>
</linearGradient>
<linearGradient id="paint4_linear_43_10145" x1="106.266" y1="341.645" x2="513.55" y2="232.513" gradientUnits="userSpaceOnUse">
<stop stop-color="#F9E2D7"/>
<stop offset="0.0001" stop-color="#FFF7F3"/>
<stop offset="1" stop-color="white" stop-opacity="0"/>
</linearGradient>
<linearGradient id="paint5_linear_43_10145" x1="92.0301" y1="346.017" x2="529.262" y2="228.861" gradientUnits="userSpaceOnUse">
<stop stop-color="#F9E2D7"/>
<stop offset="0.0001" stop-color="#FFF7F3"/>
<stop offset="1" stop-color="white" stop-opacity="0"/>
</linearGradient>
</defs>
</svg>
