<svg width="546" height="501" viewBox="0 0 546 501" fill="none" xmlns="http://www.w3.org/2000/svg">
<g opacity="0.1">
<path d="M357.85 263.73C360.888 275.069 362.476 286.269 362.365 296.557C362.34 302.139 361.511 307.688 359.906 313.033C358.575 317.747 357.661 322.644 356.768 327.375C356.01 331.415 355.222 335.591 354.179 339.661C351.565 349.812 351.997 359.46 355.362 372.093L355.634 373.108C356.606 376.738 357.317 379.391 359.843 382.398C369.553 394.114 377.956 406.857 384.901 420.399C398.984 447.679 399.834 475.161 387.291 497.776C371.867 525.588 350.823 539.442 336.27 543.134C333.105 543.936 329.757 544.633 326.202 545.372C309.307 548.884 290.157 552.861 284.36 570.271C282.818 574.916 281.93 579.812 281.073 584.553C279.659 592.414 278.19 600.542 273.672 607.793C262.098 626.384 235.934 635.217 215.354 627.49L214.65 627.225C202.648 622.719 189.039 617.616 180.885 607.367C180.439 606.82 179.988 606.207 179.539 605.626C178.464 604.156 177.297 602.754 176.047 601.429C171.776 597.108 162.513 590.981 156.211 590.727C151.201 590.521 145.976 591.995 140.928 593.414C131.689 596.01 122.141 598.695 112.95 591.767C107.275 587.482 102.869 581.688 98.6002 576.085C92.5626 568.159 86.8638 560.676 77.8038 556.824C73.4257 554.967 68.5649 554.394 63.8685 553.837C58.4848 553.204 52.9132 552.541 47.8795 549.979C32.3323 542.072 19.2708 529.307 12.0412 514.967C7.08331 505.123 6.85019 491.264 7.27861 479.003C7.71328 466.466 3.72824 453.112 -5.27385 436.984L-4.58361 436.599L-5.27385 436.984C-8.78866 430.684 -12.721 424.544 -16.4454 418.781C-28.7862 399.724 -35.7686 374.038 -35.0541 350.054C-34.294 323.155 -24.3015 300.603 -6.87913 286.444C-5.31378 285.243 -3.65081 284.174 -1.90756 283.25C0.0244852 282.25 1.83711 281.035 3.4957 279.626C14.6569 269.448 18.9292 254.014 21.3988 241.707C25.742 220.068 32.502 204.935 52.7763 196.319C60.2238 193.026 68.0436 190.651 76.0641 189.245C84.4054 187.778 93.3555 189.677 99.3989 191.528C101.098 192.047 102.761 192.63 104.384 193.236C107.214 194.346 110.127 195.232 113.095 195.887C118.329 196.907 123.895 198.719 129.798 200.642C142.677 204.839 156.003 209.184 167.557 205.821C177.124 203.03 184.928 196.274 192.485 189.738C196.58 186.185 200.825 182.518 205.288 179.54C207.451 177.994 209.469 176.254 211.315 174.341C211.883 173.795 212.454 173.242 213.034 172.693C219.963 166.204 230.941 163.703 240.8 162.102C250.911 160.468 261.24 161.244 269.854 164.328C273.457 165.606 277.019 167.28 280.468 168.906C283.146 170.19 285.899 171.455 288.631 172.545L289.614 172.929C294.232 174.761 298.581 176.533 302.663 179.723C308.548 184.393 314.229 188.998 319.073 194.013C320.454 195.495 321.759 197.045 322.985 198.658C323.984 199.898 324.997 201.189 326.076 202.381C331.646 208.537 335.771 215.047 339.514 221.178C347.607 234.423 353.781 248.75 357.85 263.73V263.73ZM353.742 372.146C350.339 359.444 350.011 349.587 352.652 339.263C353.682 335.243 354.463 331.089 355.214 327.077C356.111 322.312 357.044 317.383 358.389 312.598C359.957 307.387 360.764 301.976 360.785 296.533C361.038 273.387 352.588 245.512 338.198 221.965C334.485 215.898 330.407 209.463 324.931 203.409C323.815 202.179 322.777 200.869 321.773 199.583C320.558 198.06 319.308 196.48 317.941 195.064C313.174 190.135 307.529 185.567 301.687 180.933C297.8 177.85 293.547 176.16 289.039 174.364L288.051 173.962C285.273 172.851 282.488 171.541 279.797 170.28C276.385 168.672 272.854 167.015 269.32 165.746C260.943 162.772 250.902 162.005 241.051 163.61C231.429 165.174 220.704 167.601 214.115 173.791C213.534 174.334 212.973 174.878 212.412 175.422C210.483 177.401 208.379 179.2 206.125 180.797C201.747 183.719 197.54 187.355 193.485 190.858C185.812 197.506 177.874 204.384 167.969 207.259C155.952 210.759 142.387 206.345 129.28 202.069C123.436 200.164 117.906 198.362 112.77 197.362C109.72 196.699 106.726 195.804 103.812 194.684C102.216 194.104 100.564 193.512 98.899 192.997C93.0321 191.232 84.3338 189.352 76.2978 190.764C68.3936 192.148 60.6874 194.488 53.3488 197.734C33.7151 206.078 27.1442 220.846 22.8986 241.979C20.38 254.527 16.0176 270.271 4.51171 280.756C2.77687 282.231 0.882172 283.506 -1.13689 284.558C-2.80178 285.44 -4.39126 286.458 -5.88921 287.6C-22.9278 301.449 -32.7301 323.617 -33.483 350.02C-34.1622 373.688 -27.301 399.045 -15.1287 417.848C-11.3868 423.626 -7.43824 429.802 -3.90719 436.137C5.24175 452.539 9.29687 466.155 8.85019 478.996C8.4277 491.055 8.64096 504.666 13.4465 514.19C20.543 528.232 33.3377 540.748 48.5856 548.508C53.3719 550.943 58.7978 551.585 64.0454 552.208C68.8638 552.772 73.8296 553.364 78.4107 555.306C87.8489 559.351 93.9302 567.365 99.8443 575.104C104.043 580.62 108.385 586.324 113.884 590.476C122.45 596.937 131.193 594.454 140.499 591.861C145.67 590.408 151.039 588.896 156.278 589.114C162.987 589.392 172.732 595.777 177.176 600.293C178.476 601.67 179.687 603.129 180.8 604.661C181.235 605.212 181.681 605.806 182.132 606.373C190.013 616.274 203.403 621.309 215.212 625.74L215.916 626.005C235.829 633.483 261.142 624.932 272.345 606.947C276.698 599.954 278.14 591.973 279.534 584.258C280.397 579.469 281.295 574.51 282.871 569.763C288.957 551.494 308.581 547.417 325.923 543.811C329.454 543.079 332.789 542.385 335.916 541.588C350.151 537.98 370.767 524.368 385.973 496.988C398.249 474.845 397.391 447.879 383.561 421.098C376.669 407.668 368.333 395.031 358.701 383.411C355.952 380.144 355.169 377.197 354.175 373.512L353.81 372.148L353.742 372.146Z" stroke="url(#paint0_linear_43_10138)" stroke-width="1.39479" stroke-miterlimit="10"/>
<path d="M356.994 230.412C358.081 234.468 359.061 238.525 360.043 242.562L361.422 248.233C364.359 260.113 367.254 272.937 368.524 286.19C369.794 299.443 369.853 313.701 368.722 330.964C368.574 332.904 368.432 334.862 368.293 336.832C367.03 353.778 365.732 371.312 375.283 385.873C376.151 387.194 377.169 388.455 378.149 389.672C379.322 391.07 380.41 392.537 381.407 394.066C382.241 395.409 383.01 396.81 383.753 398.164C384.761 400.083 385.872 401.946 387.083 403.745C390.246 408.231 393.115 412.915 395.886 417.433C397.238 419.637 398.598 421.853 399.998 424.065C403.789 429.947 406.677 436.364 408.568 443.102C408.921 444.42 409.276 445.745 409.633 447.076C411.956 455.574 414.346 464.367 413.269 473.342L413.202 473.867C412.806 477.366 412.351 480.995 411.002 484.35C410.664 485.18 410.313 485.988 409.966 486.781C408.993 488.837 408.228 490.985 407.681 493.193C406.052 500.553 403.141 507.57 399.082 513.924C386.043 534.245 370.06 540.367 351.539 547.423C344.345 550.171 336.903 553.018 329.099 556.903C314.172 564.329 304.167 572.917 297.619 584.005C296.53 586.012 295.683 588.141 295.096 590.347C294.7 591.633 294.283 592.965 293.766 594.271C293.088 595.972 292.323 597.624 291.584 599.222C290.416 601.622 289.396 604.09 288.529 606.614C288.049 608.109 287.596 609.631 287.143 611.152C285.24 617.568 283.266 624.191 278.913 629.604C274.236 635.255 268.639 640.077 262.357 643.867C248.83 652.111 229.724 653.471 212.503 647.405C196.137 641.644 186.659 628.997 177.485 616.741C172.296 609.825 166.279 609.024 156.692 613.973C152.062 616.36 148.466 617.803 143.789 618.097C121.449 619.589 113.156 606.538 105.137 593.913C99.0913 584.393 92.8364 574.542 80.5608 570.178C73.7266 567.749 66.5182 567.161 59.5415 566.59C51.2345 565.909 42.6428 565.211 34.4529 561.432C21.6514 555.529 8.79954 543.886 -0.825565 529.498C-10.1447 515.555 -8.13142 494.042 -6.51162 476.761C-6.28712 474.388 -6.07206 472.103 -5.90047 469.931C-4.70923 455.158 -12.8889 444.97 -21.5474 434.19C-23.7499 431.446 -26.0339 428.598 -28.1407 425.69C-34.2164 417.254 -39.0839 408.012 -42.6022 398.231C-46.1894 388.469 -48.3019 378.228 -48.8701 367.843C-49.747 350.232 -46.6224 323.954 -37.701 307.884C-33.7393 300.762 -27.7139 295.367 -21.8684 290.148C-15.4001 284.415 -8.74702 278.425 -5.04627 270.18C-0.480582 260.01 0.755595 248.865 1.95563 238.084C3.72349 222.277 5.51614 205.989 17.8319 192.629C21.1723 189.014 25.2847 186.986 30.424 185.055C34.6916 183.452 39.0376 182.065 43.4451 180.9V180.9C67.326 174.654 86.3754 178.01 109.367 185.449L110.53 185.805C132.324 192.858 154.864 200.152 176.473 190.135C182.629 187.293 188.169 183.148 192.318 179.89C196.669 176.437 200.932 171.582 205.459 166.495C213.858 156.991 222.543 147.157 233.124 144.575C255.312 139.157 284.032 149.028 301.884 159.118C311.32 164.484 320.003 171.075 327.708 178.719C336.09 187 342.786 195.859 347.605 205.055C351.848 213.051 354.661 221.704 356.994 230.412ZM368.004 373.244C364.88 361.587 365.816 348.996 366.726 336.712C366.867 334.748 367.011 332.796 367.159 330.856C368.286 313.681 368.223 299.531 366.962 286.335C365.701 273.14 362.829 260.429 359.901 248.607L358.52 242.93C355.477 230.352 352.331 217.342 346.257 205.749C341.086 196.146 334.467 187.396 326.632 179.807C319.026 172.26 310.452 165.754 301.136 160.459C283.535 150.508 255.259 140.751 233.532 146.073C223.427 148.54 214.911 158.182 206.67 167.504C202.103 172.668 197.788 177.55 193.331 181.078C189.117 184.421 183.476 188.639 177.172 191.548C154.993 201.804 132.161 194.415 110.076 187.273L108.914 186.918C86.1795 179.569 67.3667 176.25 43.8655 182.394C39.5097 183.545 35.2156 184.918 30.9999 186.508C26.0656 188.356 22.139 190.282 19.0121 193.673C7.04787 206.652 5.34428 222.002 3.54284 238.232C2.33546 249.135 1.0795 260.405 -3.58389 270.808C-7.42168 279.363 -14.2187 285.438 -20.7707 291.307C-26.5067 296.437 -32.4363 301.766 -36.2726 308.634C-45.0468 324.432 -48.1151 350.348 -47.2496 367.743C-46.6882 377.974 -44.6051 388.063 -41.0689 397.68C-37.6 407.324 -32.8009 416.436 -26.8107 424.753C-24.7077 427.623 -22.4615 430.455 -20.2685 433.187C-11.7921 443.736 -3.03308 454.642 -4.27637 470.042C-4.45252 472.223 -4.67212 474.515 -4.89374 476.874C-6.49262 493.91 -8.48304 515.11 0.531432 528.588C9.98818 542.721 22.6183 554.183 35.1569 559.977C43.0964 563.643 51.5458 564.332 59.7228 565.001C66.795 565.58 74.1113 566.173 81.139 568.676C93.9307 573.249 100.327 583.302 106.52 593.049C114.62 605.852 122.327 617.934 143.73 616.506C148.115 616.217 151.546 614.832 156.01 612.549C163.271 608.803 171.666 606.254 178.788 615.779C187.816 627.84 197.159 640.303 213.08 645.924C229.865 651.833 248.454 650.532 261.584 642.527C267.711 638.831 273.171 634.129 277.736 628.619C281.896 623.458 283.818 616.99 285.678 610.711C286.133 609.176 286.591 607.647 287.073 606.137C287.959 603.552 289.004 601.023 290.201 598.566C290.933 596.99 291.688 595.354 292.351 593.696C292.845 592.451 293.25 591.149 293.638 589.885C294.262 587.562 295.16 585.32 296.312 583.208C303.03 571.888 313.241 563.092 328.449 555.524C336.323 551.6 343.802 548.743 351.034 545.985C369.291 539.013 385.053 532.99 397.808 513.105C401.77 506.9 404.608 500.047 406.191 492.859C406.766 490.552 407.568 488.307 408.585 486.158C408.928 485.399 409.269 484.581 409.598 483.766C410.872 480.605 411.29 477.086 411.699 473.683L411.765 473.159C412.779 464.494 410.464 455.854 408.171 447.495L407.102 443.508C405.283 436.918 402.458 430.648 398.726 424.919C397.323 422.695 395.962 420.479 394.609 418.268C391.849 413.768 388.993 409.107 385.854 404.661C384.604 402.811 383.46 400.892 382.426 398.913C381.694 397.575 380.938 396.198 380.12 394.864C379.157 393.391 378.11 391.976 376.983 390.624C375.934 389.367 374.949 388.058 374.031 386.702C371.313 382.568 369.277 378.024 368.004 373.244V373.244Z" stroke="url(#paint1_linear_43_10138)" stroke-width="1.39479" stroke-miterlimit="10"/>
<path d="M370.478 220.488C373.256 230.857 374.637 241.608 375.979 252.042L376.66 257.294C377.604 264.375 378.208 270.287 376.884 276.768C375.533 283.371 375.709 289.324 376.056 295.872C377.933 331.738 381.061 366.376 398.434 395.883C400.977 400.196 403.877 404.426 406.667 408.472C411.017 414.754 415.468 421.262 418.772 428.343C422.329 435.971 424.652 444.189 426.899 452.128C428.322 457.14 429.784 462.322 431.538 467.279C442.781 499.036 418.642 530.566 389.73 547.767C384.555 550.847 378.674 552.263 372.988 553.633L371.448 554.006C362.235 556.248 349.273 559.948 339.879 564.925C334.807 567.617 330.257 571.31 326.524 574.57C317.71 582.233 315.138 593.736 312.639 604.859C310.847 612.853 308.997 621.123 304.842 628.01C303.931 629.588 303.004 631.103 302.078 632.624C291.672 650.194 283.448 664.065 260.449 667.427C245.603 669.598 224.683 670.444 209.318 662.166C199.186 656.701 189.06 650.16 183.693 639.384C183.113 638.143 182.639 636.857 182.275 635.537C181.904 634.155 181.389 632.816 180.738 631.542C175.333 621.942 167.704 626.04 159.62 630.38C155.856 632.408 152.301 634.341 148.903 634.871C138.042 636.635 130.437 635.099 123.374 629.764C116.91 624.876 110.487 617.423 104.296 607.607C100.982 602.355 97.8898 597.457 93.3044 593.331C88.8281 589.222 83.8509 585.695 78.491 582.833C69.8301 578.426 60.6785 578.558 51.0582 578.683C46.2881 578.836 41.513 578.697 36.7598 578.267C24.5422 576.934 13.0021 571.485 2.45433 562.077C-18.2782 543.571 -16.4176 520.384 -14.3989 495.821L-14.0973 492.12C-13.9743 490.514 -13.8278 488.921 -13.6903 487.344C-12.5865 474.967 -11.5445 463.28 -18.3232 452.189C-21.4903 447.037 -25.9134 442.622 -30.1899 438.381C-34.4664 434.14 -38.9814 429.656 -42.2607 424.334C-50.8785 410.335 -55.7076 394.328 -60.3764 378.844L-61.7346 374.348C-71.1357 343.418 -67.3944 321.154 -49.1959 299.923C-41.6977 291.309 -33.6361 283.202 -25.0642 275.656C-19.6773 270.879 -17.7517 264.082 -16.5941 258.051C-15.1595 250.667 -14.4589 243.478 -13.7757 236.548C-12.5151 223.836 -11.352 211.83 -6.05778 199.044C-5.37325 197.394 -4.73271 195.729 -4.09384 194.058C-2.84845 190.639 -1.4149 187.293 0.200251 184.033C6.52786 171.67 20.4838 163.99 40.5309 161.725C62.4829 159.23 82.7391 163.917 88.4654 165.383C91.4841 166.174 94.6263 167.152 98.6505 168.561C102.327 169.842 106.056 171.317 110.069 172.835C123.357 177.988 138.423 183.832 151.947 183.196C162.164 182.711 171.045 176.892 176.704 172.088C183.869 166.008 190.791 157.979 196.717 148.871C198.713 145.796 201.205 142.281 204.5 139.452C216.955 128.881 238.556 123.733 252.555 124.249C271.801 124.965 286.952 128.513 300.214 135.413L302.646 136.675C311.764 141.373 321.206 146.23 327.861 153.874C329.633 155.906 331.244 158.088 332.801 160.191C334.525 162.522 336.303 164.926 338.28 167.104C346.827 176.506 354.438 186.719 361.004 197.597C364.642 203.65 367.482 210.148 369.451 216.929C369.827 218.135 370.163 219.312 370.478 220.488ZM383.027 362.416C377.401 341.421 375.684 318.94 374.479 295.954C374.141 289.544 373.955 283.227 375.339 276.449C376.613 270.207 376.016 264.42 375.101 257.498C374.865 255.748 374.642 253.994 374.419 252.241C372.93 240.685 371.408 228.739 367.964 217.427C366.034 210.776 363.253 204.402 359.689 198.463C353.169 187.671 345.618 177.536 337.141 168.202C335.162 165.954 333.299 163.607 331.557 161.171C330.019 159.09 328.422 156.937 326.697 154.953C320.23 147.538 310.933 142.749 301.945 138.117L299.507 136.856C286.442 130.07 271.5 126.58 252.496 125.871C238.793 125.363 217.703 130.38 205.523 140.704C202.372 143.376 199.969 146.773 198.027 149.753C192.02 158.984 184.997 167.133 177.714 173.318C169.339 180.429 160.449 184.398 152.014 184.791C138.186 185.436 122.926 179.538 109.495 174.322C105.515 172.782 101.765 171.326 98.113 170.038C94.1249 168.64 91.0189 167.672 88.0379 166.897C76.4508 163.862 57.927 161.311 40.6958 163.261C27.1065 164.796 9.2779 169.766 1.59116 184.72C0.00850856 187.943 -1.39803 191.248 -2.62221 194.623C-3.26564 196.302 -3.9074 197.988 -4.60725 199.655C-9.8084 212.217 -10.975 224.11 -12.2142 236.703C-12.8981 243.68 -13.6045 250.897 -15.0784 258.359C-16.2929 264.625 -18.312 271.719 -24.0527 276.818C-32.5591 284.323 -40.5569 292.387 -47.9929 300.954C-65.8008 321.727 -69.4526 343.553 -60.2223 373.896L-58.8641 378.392C-54.222 393.777 -49.4257 409.686 -40.914 423.513C-37.7406 428.663 -33.3337 433.043 -29.0746 437.269C-24.7346 441.573 -20.2483 446.025 -16.9843 451.364C-9.89524 462.892 -10.9937 474.84 -12.1196 487.483C-12.2571 489.06 -12.3975 490.651 -12.5204 492.257L-12.8204 495.965C-14.7998 520.077 -16.6459 542.92 3.49946 560.877C13.7951 570.066 25.0456 575.379 36.9222 576.683C41.6266 577.097 46.3518 577.225 51.0716 577.066C60.492 576.942 70.2371 576.811 79.2384 581.393C84.7277 584.313 89.8258 587.916 94.4117 592.115C99.1636 596.388 102.306 601.374 105.641 606.654C111.773 616.378 118.067 623.692 124.378 628.462C131.066 633.517 138.338 634.955 148.709 633.277C151.84 632.771 155.285 630.921 158.932 628.957C166.934 624.66 176.007 619.782 182.168 630.732C182.878 632.105 183.438 633.551 183.837 635.045C184.18 636.279 184.622 637.482 185.161 638.644C190.336 649.025 200.219 655.404 210.123 660.744C225.107 668.817 245.667 667.968 260.281 665.832C282.538 662.582 290.583 648.992 300.774 631.787C301.699 630.266 302.618 628.719 303.536 627.167C307.543 620.499 309.363 612.364 311.114 604.468C313.666 593.117 316.251 581.343 325.486 573.335C329.313 570.003 333.923 566.234 339.14 563.483C348.684 558.445 361.778 554.69 371.078 552.425L372.618 552.052C378.192 550.712 383.953 549.322 388.924 546.35C417.277 529.478 440.968 498.615 430.058 467.749C428.283 462.744 426.807 457.533 425.385 452.5C423.153 444.618 420.841 436.463 417.341 428.947C414.096 421.989 409.656 415.545 405.365 409.308C402.554 405.214 399.642 400.987 397.074 396.628C390.86 385.915 386.134 374.405 383.027 362.416Z" stroke="url(#paint2_linear_43_10138)" stroke-width="1.39479" stroke-miterlimit="10"/>
<path d="M389.599 213.531C389.823 214.365 390.048 215.206 390.191 216.088C390.646 218.508 391.12 220.95 391.602 223.396C394.58 238.611 397.644 254.277 396.739 269.752C396.374 275.855 395.521 281.975 394.69 287.902C393.278 298.029 391.81 308.497 392.838 318.924C394.134 331.994 398.352 344.675 402.439 356.944C403.596 360.417 404.752 363.884 405.847 367.374C410.417 381.942 418.135 394.406 425.597 406.458C431.369 415.787 437.347 425.434 441.921 436.112C444.79 442.789 446.648 450.071 448.448 457.115C448.859 458.646 449.229 460.175 449.628 461.689C454.295 479.408 455.375 503.685 444.421 518.697C443.377 520.124 442.341 521.582 441.304 523.035C437.293 528.686 433.148 534.561 428.058 539.394C419.57 547.514 411.226 553.365 403.203 556.803C393.955 560.769 383.782 563.128 373.943 565.411C370.071 566.308 366.067 567.234 362.231 568.242C348.734 571.772 338.445 577.378 331.653 584.889C325.52 591.676 324.854 597.673 324.076 604.62C323.739 608.445 323.068 612.232 322.071 615.94C321.39 618.108 320.559 620.226 319.583 622.278C318.884 623.799 318.173 625.424 317.62 627.014C316.869 629.38 316.31 631.804 315.949 634.26C315.625 636.311 315.19 638.343 314.647 640.347C305.511 671.872 267.2 690.851 236.946 690.351C230.727 690.249 225.097 688.689 219.129 687.038L218.611 686.897C202.827 682.539 196.071 669.938 188.892 656.602L187.3 653.646C180.214 640.606 167.404 643.918 155.013 647.125C152.457 647.81 150.025 648.408 147.65 648.898C129.324 652.64 116.15 647.203 107.346 632.281C106.184 630.311 105.002 628.359 103.821 626.414C100.992 621.754 98.0738 616.931 95.5088 611.96C90.5902 602.41 86.2841 596.264 77.6074 591.17C65.8685 584.273 57.2144 584.164 43.3729 586.485C40.0293 587.04 36.5285 587.905 32.827 588.817C20.8548 591.771 7.28859 595.119 -3.4227 587.854C-29.1499 570.468 -32.2226 537.21 -32.0264 510.182L-32.0226 509.401C-31.8071 479.385 -31.666 459.564 -53.8076 437.127C-62.663 428.157 -68.3544 416.792 -73.8744 404.947C-89.1514 372.21 -91.0138 338.494 -79.0541 312.484C-74.1508 301.83 -65.6861 293.77 -57.4997 285.965C-48.5865 277.465 -39.3688 268.684 -35.0013 256.651C-31.7512 247.687 -29.9164 235.406 -29.9698 222.943C-30.066 220.104 -30.4644 217.283 -31.1583 214.528C-31.5111 212.888 -31.879 211.191 -32.1313 209.404C-34.0831 195.429 -30.296 180.136 -22.0049 168.493C-13.3462 156.331 0.0668953 146.392 13.9118 141.895L16.9728 140.881C22.1831 139.158 27.2855 137.604 32.2772 137.528C48.0536 137.304 71.1637 139.252 91.7347 150.006C95.2141 151.823 98.7377 153.754 102.121 155.637C114.394 162.41 127.089 169.417 141.081 172.333C144.689 173.088 150.089 174.063 155.3 173.861C160.176 173.649 163.192 171.746 166.939 169.114C168.108 168.28 169.311 167.545 170.467 166.834C173.006 165.267 175.408 163.782 177.396 161.502C179.095 159.558 180.138 157.431 181.229 155.137C182.107 153.177 183.168 151.305 184.396 149.544C187.193 145.752 189.127 141.131 191.177 136.245C194.807 127.552 198.57 118.564 207.587 114.554C238.308 100.877 270.765 110.022 298.459 120.77C299.943 121.333 301.418 121.865 302.844 122.41C308.164 124.354 313.663 126.37 318.533 129.769C326.161 135.078 332.998 141.292 339.623 147.337C345.781 152.906 352.086 158.676 358.983 163.647C360.033 164.407 361.115 165.137 362.198 165.868C365.244 167.934 368.403 170.07 370.976 172.857C373.549 175.644 375.429 179.056 377.224 182.345C377.88 183.551 378.535 184.75 379.22 185.914C381.684 190.138 382.919 193.95 384.316 198.366L385.058 200.69C385.658 202.53 386.344 204.295 387.006 206.019C388.005 208.474 388.871 210.982 389.599 213.531V213.531ZM394.867 337.889C393.158 331.726 391.956 325.434 391.272 319.076C390.223 308.468 391.703 297.897 393.131 287.68C393.956 281.78 394.81 275.687 395.161 269.661C396.059 254.382 393.007 238.786 390.051 223.698L388.636 216.378C387.91 213.023 386.872 209.742 385.537 206.58C384.864 204.838 384.166 203.03 383.561 201.171L382.815 198.835C381.449 194.531 380.262 190.772 377.861 186.712C377.172 185.562 376.505 184.313 375.837 183.091C374.094 179.895 372.287 176.582 369.823 173.927C367.358 171.271 364.293 169.21 361.35 167.183C360.252 166.443 359.16 165.701 358.084 164.942C351.12 159.923 344.749 154.13 338.587 148.522C332.002 142.527 325.19 136.332 317.614 131.043C312.911 127.766 307.751 125.873 302.283 123.875C300.806 123.336 299.329 122.798 297.876 122.227C270.479 111.593 238.406 102.539 208.222 115.978C199.777 119.735 196.141 128.429 192.623 136.838C190.633 141.601 188.554 146.529 185.659 150.474C184.492 152.151 183.488 153.937 182.662 155.807C181.624 158.226 180.257 160.49 178.599 162.534C176.453 164.997 173.833 166.613 171.307 168.177C170.161 168.878 169.021 169.597 167.863 170.401C164.032 173.116 160.674 175.21 155.383 175.44C150.093 175.67 144.468 174.675 140.775 173.903C126.556 170.934 113.758 163.868 101.377 157.037C97.9903 155.169 94.4854 153.233 91.028 151.423C70.7504 140.844 47.9058 138.892 32.3202 139.131C27.5471 139.202 22.5815 140.72 17.4876 142.405L16.4703 142.738L14.4374 143.409C0.918749 147.805 -12.2106 157.535 -20.6818 169.426C-28.6297 180.583 -32.4037 195.826 -30.5324 209.203C-30.2889 210.932 -29.9277 212.604 -29.5832 214.213C-28.8642 217.074 -28.4544 220.004 -28.361 222.953C-28.3011 235.614 -30.1671 248.077 -33.4846 257.212C-37.9806 269.586 -47.3287 278.503 -56.3757 287.125C-64.4561 294.828 -72.8069 302.791 -77.5808 313.157C-89.3835 338.758 -87.4812 371.976 -72.408 404.3C-66.945 416.007 -61.3276 427.246 -52.655 436.031C-30.0855 458.921 -30.247 479.014 -30.4466 509.412L-30.4504 510.194C-30.8079 560.897 -15.7491 577.646 -2.59055 586.557C7.56944 593.456 20.2381 590.315 32.4295 587.309C36.1791 586.377 39.6878 585.517 43.0936 584.945C57.3182 582.561 66.2287 582.682 78.3934 589.825C87.4031 595.117 91.8496 601.438 96.8993 611.254C99.4434 616.197 102.354 620.989 105.163 625.627C106.352 627.577 107.542 629.533 108.699 631.512C117.122 645.782 129.756 650.97 147.33 647.382C149.67 646.909 152.069 646.286 154.613 645.631C166.985 642.429 181.011 638.804 188.681 652.929L190.275 655.891C197.266 668.924 203.895 681.226 219.014 685.415L219.532 685.556C225.399 687.18 230.935 688.712 236.954 688.814C275.074 689.442 306.165 663.937 313.119 639.943C313.644 637.995 314.065 636.02 314.38 634.027C314.758 631.479 315.347 628.967 316.14 626.516C316.718 624.867 317.446 623.231 318.168 621.649C319.114 619.667 319.92 617.62 320.58 615.525C321.549 611.88 322.197 608.156 322.517 604.397C323.289 597.478 324.018 590.945 330.489 583.779C337.474 576.043 348.023 570.288 361.823 566.67C365.679 565.637 369.701 564.726 373.579 563.827C383.35 561.562 393.46 559.22 402.576 555.31C410.426 551.945 418.635 546.189 426.96 538.207C431.93 533.446 436.04 527.668 440.015 522.079C441.055 520.613 442.091 519.154 443.139 517.719C453.767 503.155 452.669 479.409 448.097 462.046C447.692 460.533 447.283 459.008 446.914 457.459C445.129 450.471 443.288 443.252 440.469 436.688C435.935 426.133 429.997 416.535 424.258 407.257C416.747 395.118 408.978 382.568 404.358 367.813C403.268 364.342 402.114 360.881 400.96 357.42C398.805 351.019 396.64 344.506 394.862 337.87L394.867 337.889Z" stroke="url(#paint3_linear_43_10138)" stroke-width="1.39479" stroke-miterlimit="10"/>
<path d="M401.037 197.981C402.619 203.883 403.094 210.362 403.55 216.639C403.628 217.678 403.697 218.706 403.781 219.717C405.09 236.372 405.992 254.248 403.793 272.196C402.729 280.914 401.955 288.774 403.304 296.698C404.315 302.634 404.915 308.633 405.501 314.428C406.681 326.298 407.818 337.506 412.133 348.708L413.836 353.172C415.137 356.61 416.482 360.162 417.914 363.591C422.223 373.949 428.652 383.906 434.864 393.527C437.634 397.818 440.497 402.257 443.101 406.652C444.576 409.013 446.183 411.288 447.915 413.468C450.089 416.305 452.336 419.243 453.972 422.511L454.109 422.801C456.995 428.593 459.968 434.563 460.682 441.284C461.277 445.842 462.157 450.357 463.318 454.804C465.203 462.685 467.147 470.836 465.899 478.87C465.227 483.203 464.77 487.545 464.328 491.743C462.744 506.833 461.249 521.086 450.282 533.884C436.876 549.548 422.226 559.3 402.748 565.512C400.605 566.2 398.466 566.953 396.371 567.694C393.032 568.869 389.584 570.086 386.081 571.025C384.016 571.578 381.929 572.077 379.829 572.573C375.712 573.462 371.651 574.593 367.667 575.959C360.545 578.567 356.668 582.192 352.147 586.397C349.72 588.736 347.161 590.935 344.484 592.983C341.34 595.332 340.263 596.414 339.627 600.238C336.612 618.224 333.505 632.782 329.839 646.05C326.883 656.894 319.061 668.19 312.766 675.129C310.627 677.398 308.358 679.542 305.972 681.549C304.354 682.976 302.633 684.444 301.064 686.004C300.117 686.924 299.195 687.838 298.286 688.748C293.353 693.73 288.693 698.438 281.84 701.554C262.475 710.356 236.498 710.058 215.656 700.783C210.515 698.494 207.131 694.548 204.108 690.705C201.555 687.299 199.235 683.725 197.161 680.008C193.166 673.212 189.036 666.186 182.163 661.935C174.115 656.959 165.838 659.09 157.075 661.324C154.91 661.904 152.667 662.466 150.455 662.918C140.116 665.022 127.252 667.676 117.345 662.057C108.189 656.951 103.463 644.939 99.2977 634.369C97.9038 630.81 96.5836 627.45 95.1789 624.547C94.603 623.368 94.0982 622.057 93.6164 620.806C92.7543 618.584 91.8676 616.295 90.533 614.5C77.1322 596.439 55.025 601.029 31.537 605.916C14.7994 609.394 -2.50641 612.992 -16.3488 607.541C-21.0796 605.663 -26.1433 601.447 -29.0446 598.084C-31.0614 595.758 -32.3296 592.892 -33.5524 590.12L-33.9858 589.149C-40.9192 573.675 -45.2134 554.041 -47.0957 529.174C-47.2895 525.495 -47.2329 521.807 -46.9261 518.136C-46.8332 516.591 -46.7387 515.053 -46.6816 513.524C-45.527 481.751 -56.0267 450.453 -74.7607 429.809C-75.9545 428.489 -77.2445 427.208 -78.4963 425.97C-80.7627 423.825 -82.8629 421.511 -84.7786 419.047C-91.6906 409.7 -95.1439 395.12 -97.9148 383.41L-98.7043 380.115C-100.15 374.097 -100.892 367.969 -101.613 362.043C-102.053 358.435 -102.506 354.703 -103.116 351.033L-103.275 350.069C-103.957 346.006 -104.599 342.165 -104.12 337.857C-102.683 324.806 -98.7954 312.712 -95.1909 302.574C-90.818 290.276 -82.6965 283.807 -73.2999 276.323C-72.0793 275.329 -70.8275 274.327 -69.5571 273.32C-50.4435 257.806 -48.1957 232.999 -46.0138 209.017C-44.9587 197.401 -43.873 185.378 -40.8324 174.778C-35.8968 157.563 -21.0507 141.899 3.30846 128.22C4.27118 127.682 5.24525 127.169 6.2307 126.683C24.6617 117.605 50.7801 115.493 69.7427 121.538C73.672 122.87 77.5207 124.43 81.2693 126.208C83.492 127.213 85.7858 128.258 88.0649 129.174C89.9712 129.943 91.9281 130.652 93.8236 131.33C97.5194 132.569 101.129 134.051 104.628 135.768C106.956 136.975 109.282 138.19 111.605 139.412C121.567 144.615 131.867 149.981 142.254 154.804C148.252 157.583 153.32 159.525 159.332 157.274C171.528 152.673 176.468 140.95 181.252 129.589C183.805 123.592 186.43 117.362 190.103 112.259C201.783 96.1235 221.644 90.1684 250.819 94.0633C252.665 94.3086 254.512 94.5336 256.341 94.7636C262.116 95.4627 268.091 96.1881 273.868 97.5931C276.061 98.1887 278.183 99.0218 280.195 100.078C281.22 100.569 282.255 101.072 283.362 101.522C284.454 101.95 285.568 102.319 286.699 102.628C288.322 103.057 289.901 103.636 291.417 104.357C298.774 108.152 306.536 111.438 314.048 114.612C323.922 118.792 334.129 123.116 343.585 128.642C360.788 138.698 376.975 154.266 389.137 172.432C393.988 179.777 397.8 187.758 400.466 196.147C400.703 196.757 400.874 197.371 401.037 197.981ZM408.128 341.402C405.737 332.477 404.829 323.415 403.942 314.58C403.36 308.802 402.793 302.828 401.761 296.959C400.376 288.83 401.2 280.51 402.24 271.999C404.423 254.189 403.517 236.4 402.219 219.836L401.991 216.744C401.49 209.898 400.962 202.801 399.019 196.622C396.393 188.377 392.644 180.532 387.879 173.309C375.836 155.317 359.845 139.93 342.837 129.982C333.465 124.494 323.309 120.209 313.478 116.044C305.955 112.854 298.151 109.558 290.717 105.751C289.292 105.071 287.807 104.527 286.281 104.126C285.096 103.802 283.93 103.414 282.788 102.962C281.649 102.494 280.577 101.975 279.537 101.48C277.625 100.464 275.606 99.6641 273.517 99.0938C267.815 97.7219 261.907 96.9985 256.173 96.3018C254.319 96.0785 252.466 95.8552 250.612 95.6053C222.066 91.795 202.689 97.5404 191.384 113.155C187.805 118.114 185.207 124.27 182.704 130.233C177.827 141.892 172.733 153.963 159.894 158.777C153.308 161.248 147.939 159.2 141.599 156.266C131.185 151.444 120.859 146.051 110.88 140.839L103.905 137.202C100.467 135.508 96.9185 134.047 93.2847 132.828C91.3813 132.145 89.4041 131.435 87.4741 130.652C85.1635 129.718 82.8494 128.671 80.6171 127.656C76.9167 125.894 73.1179 124.345 69.2395 123.019C50.6334 117.085 25.0065 119.166 6.91017 128.074C5.94946 128.545 5.00331 129.045 4.06381 129.57C-19.9114 143.041 -34.516 158.386 -39.3272 175.194C-42.3264 185.65 -43.4006 197.617 -44.4542 209.139C-46.6585 233.461 -48.9412 258.61 -68.5712 274.536C-69.8479 275.545 -71.0996 276.547 -72.3265 277.542C-81.5365 284.876 -89.4948 291.208 -93.7155 303.078C-97.2885 313.135 -101.138 325.145 -102.564 338.013C-103.014 342.133 -102.394 345.84 -101.73 349.789L-101.571 350.753C-100.959 354.455 -100.503 358.199 -100.064 361.828C-99.3482 367.709 -98.6119 373.791 -97.183 379.721L-96.3981 383.024C-93.6559 394.601 -90.2447 409 -83.5277 418.092C-81.6548 420.488 -79.605 422.739 -77.3953 424.828C-76.1323 426.083 -74.8248 427.379 -73.604 428.725C-54.5834 449.693 -43.9393 481.405 -45.0872 513.577C-45.141 515.118 -45.2384 516.67 -45.3341 518.229C-45.6325 521.828 -45.6909 525.442 -45.5089 529.049C-43.6592 553.744 -39.4122 573.178 -32.5515 588.505L-32.0837 589.479C-30.9033 592.143 -29.6854 594.896 -27.8215 597.05C-25.1354 600.157 -20.2104 604.303 -15.7378 606.064C-2.32326 611.336 14.7304 607.793 31.2469 604.361C54.1559 599.602 77.8525 594.673 91.8574 613.545C93.3167 615.507 94.2458 617.904 95.1408 620.224C95.6355 621.498 96.1074 622.712 96.6509 623.819C98.1062 626.763 99.4115 630.166 100.82 633.755C104.874 644.081 109.466 655.796 118.146 660.716C127.571 666.03 140.079 663.465 150.154 661.399C152.335 660.955 154.549 660.381 156.7 659.825C165.396 657.588 174.388 655.265 183.004 660.596C190.202 665.06 194.442 672.25 198.535 679.213C200.569 682.868 202.848 686.382 205.354 689.732C208.243 693.47 211.491 697.233 216.287 699.381C236.727 708.476 262.201 708.783 281.173 700.16C287.771 697.159 292.33 692.551 297.165 687.676C298.081 686.764 299.009 685.848 299.95 684.883C301.53 683.313 303.269 681.814 304.921 680.365C307.268 678.397 309.499 676.295 311.602 674.068C317.779 667.26 325.439 656.208 328.365 645.578C332.018 632.36 335.113 617.859 338.134 599.918C338.86 595.583 340.287 594.141 343.604 591.666C346.236 589.65 348.75 587.485 351.135 585.182C355.574 581.046 359.769 577.142 367.188 574.421C371.231 573.033 375.351 571.885 379.529 570.981C381.604 570.491 383.68 570.002 385.732 569.445C389.178 568.522 392.597 567.319 395.905 566.153C398.035 565.395 400.168 564.644 402.331 563.958C421.483 557.846 435.912 548.24 449.12 532.809C459.748 520.388 461.221 506.375 462.778 491.532C463.221 487.314 463.679 482.951 464.356 478.584C465.559 470.855 463.65 462.861 461.803 455.123C460.618 450.613 459.725 446.032 459.129 441.407C458.462 434.987 455.668 429.389 452.711 423.455L452.575 423.172C451.004 420.02 448.806 417.142 446.674 414.36C444.904 412.133 443.263 409.806 441.759 407.391C439.178 403.057 436.318 398.63 433.557 394.35C427.309 384.692 420.838 374.653 416.474 364.164C415.037 360.716 413.688 357.151 412.378 353.702L410.683 349.244C409.69 346.682 408.834 344.07 408.119 341.418L408.128 341.402Z" stroke="url(#paint4_linear_43_10138)" stroke-width="1.39479" stroke-miterlimit="10"/>
<path d="M423.973 205.26C424.661 207.829 425.145 210.407 425.651 213.066L426.305 216.452C428.153 225.56 427.809 236.762 427.504 246.64L427.396 251.211C427.207 255.419 426.773 259.612 426.097 263.77C425.852 265.342 425.645 266.905 425.445 268.473C421.05 303.301 423.631 329.045 434.102 354.548C436.787 361.085 440.257 366.824 443.928 372.889L444.419 373.704C448.604 380.619 454.537 390.947 457.758 400.807C458.508 403.08 459.228 405.348 459.946 407.603C463.413 418.505 466.685 428.798 472.137 438.875L473.961 442.227C477.379 448.467 480.599 454.366 483.167 461.041C491.182 481.927 491.238 500.738 483.364 523.948C480.107 533.551 469.97 545.256 462.068 551.402C454.488 557.307 445.191 562.226 434.44 566.02C428.913 567.975 423.112 569.449 417.509 570.87C415.339 571.452 413.142 571.981 410.997 572.555L408.958 573.102C392.949 577.391 374.801 582.254 363.761 595.115C362.394 596.808 361.157 598.602 360.061 600.481C359.049 602.198 357.935 603.853 356.725 605.437C352.238 611.074 352.144 620.669 352.05 629.17C352.089 632.871 351.892 636.57 351.459 640.245C350.855 644.408 350.19 648.541 349.527 652.68L348.427 659.644C347.328 666.881 345.322 672.3 341.933 677.209C340.189 679.73 338.495 682.358 336.726 685.133C330.836 694.187 324.777 703.58 316.638 709.935C314.358 711.72 312.075 713.719 309.875 715.655C305.112 719.839 300.163 724.173 294.507 726.989C291.343 728.557 287.877 729.399 284.531 730.216C283.536 730.482 282.528 730.699 281.533 730.965C276.155 732.406 271.541 733.316 266.55 733.213C244.412 732.783 228.986 727.733 214.961 716.326C210.219 712.455 205.738 708.167 201.379 704.033C193.308 696.293 184.911 688.306 174.613 682.949C170.366 680.753 166.924 679.568 162.908 680.597C161.478 680.98 160.042 681.365 158.612 681.748C157.568 682.028 156.523 682.308 155.504 682.581C153.328 683.164 151.152 683.747 148.982 684.329C144.375 685.563 139.762 686.799 135.155 688.034C125.9 690.62 117.622 690.017 110.548 686.245C103.26 682.349 98.0952 676.203 93.4285 670.252C89.6923 665.484 87.4297 660.148 85.2324 654.982C83.9295 651.91 82.5779 648.731 80.9272 645.679C80.1548 644.153 79.5365 642.554 79.0816 640.905C78.8009 640.006 78.5264 639.106 78.1785 638.206C77.0895 635.41 73.7221 631.397 71.2769 629.458C59.4671 620.025 45.8647 621.956 32.9258 625.443L31.9808 625.696C21.6605 628.462 10.9975 631.366 0.165527 630.58C-2.30755 630.403 -4.83551 630.12 -7.28052 629.848C-8.65509 629.691 -10.028 629.541 -11.3992 629.398C-12.0826 629.334 -12.761 629.289 -13.3813 629.262C-16.1484 629.056 -18.7592 628.862 -21.5485 627.255C-24.9707 625.199 -28.1777 622.803 -31.1211 620.104C-33.9723 617.576 -36.5239 614.729 -38.7256 611.618C-41.7826 607.496 -43.7405 603.272 -45.812 598.799C-46.3631 597.613 -46.9353 596.372 -47.5246 595.143C-53.6922 582.371 -54.18 566.823 -54.6084 553.113L-54.6179 552.829C-54.6483 551.87 -54.7126 550.934 -54.7753 550.004C-55.0479 547.429 -54.9919 544.83 -54.6087 542.27C-53.9978 539.394 -53.6846 536.463 -53.6739 533.523C-53.6462 532.4 -53.5247 531.281 -53.3108 530.178C-53.0077 528.802 -52.9258 527.387 -53.0683 525.985C-53.7232 522.352 -54.7372 518.792 -56.0954 515.359C-61.0018 502.843 -64.3795 489.417 -67.6558 476.443C-68.4459 473.32 -69.2397 470.159 -70.0485 467.041C-72.1444 459.02 -76.139 451.001 -82.6244 441.941C-85.8968 437.363 -89.8705 434.42 -93.7115 431.575C-99.6571 427.166 -105.269 423.008 -108.166 413.44C-109.269 409.821 -110.483 406.159 -111.663 402.627C-112.843 399.095 -114.074 395.37 -115.182 391.706C-121.744 369.977 -123.864 349.731 -121.403 331.659C-119.14 315.014 -112.014 305.349 -103.759 294.181C-100.829 290.195 -97.7703 286.068 -94.748 281.356C-93.8014 279.916 -92.8397 278.531 -91.8781 277.146C-89.7576 274.299 -87.8937 271.269 -86.3082 268.091C-83.8606 262.827 -80.9238 257.772 -78.0764 252.881C-76.3441 249.896 -74.551 246.815 -72.8939 243.724C-68.3119 235.16 -66.6542 225.68 -65.0492 216.5C-64.181 210.963 -63.0151 205.477 -61.5566 200.066C-61.1732 198.736 -60.7749 197.462 -60.3902 196.212C-59.0029 191.766 -57.6973 187.561 -57.5393 182.531C-57.4783 180.794 -57.4525 179.1 -57.4246 177.438C-57.2794 168.903 -57.1418 160.837 -53.1256 152.325C-48.665 142.861 -42.8054 135.882 -36.603 128.492C-34.4422 125.912 -32.2016 123.258 -29.9765 120.421C-23.0182 111.574 -12.7056 105.97 -3.54672 101.655C2.04498 99.0231 7.66398 97.5375 13.5876 95.9702L13.8363 95.9036C15.5273 95.4505 17.2146 94.9584 18.9019 94.4663C24.4622 92.8363 30.1808 91.1507 36.1084 91.1896C56.053 91.3672 75.0949 95.1145 91.1772 102.016C114.159 111.863 129.413 122.487 140.626 136.408C144.635 141.422 148.744 143.676 152.772 143.117C163.975 141.555 173.413 119.333 179.661 104.628C182.051 98.9997 183.94 94.559 185.431 92.3655C188.849 87.315 193.686 83.3847 198.366 79.5632L199.459 78.67C213.504 67.2242 238.071 70.6515 257.813 73.4044C262.395 74.0437 266.723 74.6515 270.529 75.0053C273.685 75.376 276.81 75.9763 279.879 76.8014C282.826 77.6005 285.825 78.1897 288.854 78.5646C293.956 79.0516 297.658 79.54 302.419 81.6654C305.709 83.0604 309.085 84.2452 312.525 85.2129C316.161 86.2408 319.724 87.5142 323.188 89.0245C325.597 90.1329 328.124 91.1299 330.576 92.1C334.549 93.5664 338.419 95.2987 342.16 97.2853C344.525 98.6522 347.044 99.7447 349.468 100.836C351.893 101.926 354.355 103.034 356.735 104.357C374.467 114.23 381.767 124.712 392.815 140.578L394.727 143.313C405.531 158.764 412.069 174.958 419.007 192.099C420.058 194.705 421.118 197.315 422.196 199.947C422.903 201.677 423.497 203.452 423.973 205.26ZM426.696 337.673C421.225 317.259 420.418 295.521 423.855 268.285C424.058 266.703 424.282 265.129 424.505 263.549C425.177 259.461 425.609 255.337 425.8 251.198C425.836 249.715 425.885 248.181 425.907 246.622C426.213 236.823 426.557 225.721 424.742 216.784C424.508 215.639 424.297 214.502 424.084 213.386C423.241 208.943 422.452 204.807 420.715 200.564C419.636 197.928 418.572 195.309 417.525 192.709C410.62 175.646 404.106 159.539 393.414 144.232L391.502 141.496C380.575 125.811 373.36 115.447 355.936 105.751C353.593 104.465 351.163 103.356 348.792 102.291C346.421 101.225 343.8 100.047 341.361 98.6799C337.691 96.7241 333.894 95.0167 329.996 93.569C327.53 92.596 324.979 91.5791 322.504 90.4749C319.107 89.0039 315.613 87.7653 312.049 86.7677C308.542 85.7836 305.103 84.5758 301.751 83.1515C297.207 81.1146 293.633 80.6584 288.68 80.1783C285.595 79.8016 282.54 79.205 279.539 78.3929C276.542 77.5851 273.49 76.9987 270.407 76.6386C266.564 76.2744 262.218 75.6717 257.615 75.0311C238.177 72.3169 214.003 68.9378 200.484 79.9561L199.388 80.843C194.798 84.574 190.046 88.4279 186.732 93.2907C185.326 95.3547 183.374 99.9589 181.11 105.287C174.727 120.335 165.077 143.034 152.987 144.713C148.375 145.355 143.8 142.907 139.396 137.438C128.352 123.725 113.295 113.262 90.5561 103.502C74.6626 96.6841 55.8259 92.9819 36.0953 92.807C30.397 92.7533 24.7762 94.4061 19.3402 96.0027C17.6343 96.4998 15.9363 97.0015 14.2373 97.45L13.9824 97.5183C8.11353 99.0909 2.55169 100.541 -2.9099 103.112C-12.377 107.569 -22.0205 112.86 -28.7681 121.424C-31.0147 124.28 -33.2815 126.961 -35.4298 129.538C-41.5618 136.843 -47.3602 143.751 -51.7381 153.027C-55.6017 161.238 -55.7359 168.77 -55.8813 177.478C-55.9121 179.154 -55.9491 180.831 -55.9956 182.597C-56.1703 187.839 -57.5022 192.144 -58.9155 196.717C-59.3035 197.955 -59.6973 199.221 -60.0761 200.543C-61.5184 205.898 -62.6707 211.327 -63.5279 216.806C-65.1481 226.103 -66.8334 235.704 -71.5366 244.487C-73.2074 247.602 -75.0017 250.704 -76.7447 253.698C-79.5677 258.556 -82.4863 263.58 -84.9038 268.782C-86.5253 272.036 -88.429 275.142 -90.5931 278.062C-91.5581 279.435 -92.5214 280.813 -93.4092 282.225C-96.4605 286.977 -99.5221 291.118 -102.484 295.133C-110.611 306.134 -117.644 315.647 -119.843 331.888C-122.269 349.717 -120.167 369.721 -113.658 391.278C-112.554 394.923 -111.329 398.603 -110.144 402.153C-108.959 405.704 -107.743 409.372 -106.641 413.012C-103.899 422.054 -98.4799 426.063 -92.7588 430.306C-88.8116 433.249 -84.7511 436.243 -81.3254 441.02C-74.7295 450.243 -70.6377 458.376 -68.5095 466.642C-67.6759 469.753 -66.9169 472.884 -66.1152 476.05C-62.8568 488.982 -59.4862 502.357 -54.6173 514.783C-53.2177 518.32 -52.1745 521.988 -51.5035 525.733C-51.3198 527.312 -51.3981 528.91 -51.7352 530.463C-51.9335 531.48 -52.047 532.512 -52.0747 533.548C-52.088 536.585 -52.4111 539.612 -53.0389 542.583C-53.402 545.024 -53.4501 547.503 -53.182 549.957C-53.1143 550.906 -53.0512 551.862 -53.022 552.842L-53.0125 553.126C-52.5851 566.682 -52.1067 582.046 -46.0846 594.524C-45.4875 595.757 -44.9202 596.979 -44.3609 598.196C-42.3235 602.592 -40.3979 606.744 -37.4352 610.739C-35.3006 613.751 -32.827 616.507 -30.0633 618.953C-27.1963 621.579 -24.0754 623.913 -20.7469 625.92C-18.2729 627.345 -15.9482 627.515 -13.2562 627.714C-12.5778 627.759 -11.8977 627.811 -11.2127 627.88C-9.84257 628.02 -8.46745 628.178 -7.09233 628.337C-4.66141 628.606 -2.15377 628.888 0.292767 629.066C10.8651 629.827 21.3964 626.979 31.5874 624.228L32.5013 623.983C45.8493 620.407 59.8957 618.417 72.25 628.291C74.8539 630.374 78.4209 634.56 79.6344 637.696C79.9985 638.632 80.2892 639.568 80.5799 640.503C81.0042 642.052 81.581 643.555 82.3019 644.99C83.9913 648.112 85.3326 651.327 86.6766 654.428C88.9247 659.734 91.0521 664.74 94.6699 669.339C99.2344 675.158 104.275 681.163 111.291 684.892C117.988 688.472 125.874 689.033 134.732 686.553C139.332 685.267 143.948 684.044 148.577 682.843C150.747 682.262 152.929 681.677 155.093 681.098C156.131 680.819 157.169 680.541 158.201 680.265C159.644 679.878 161.086 679.492 162.553 679.099C167.542 677.822 171.793 679.71 175.384 681.576C185.878 687.04 194.339 695.116 202.514 702.922C206.763 707.019 211.236 711.276 215.954 715.106C229.685 726.265 244.83 731.237 266.581 731.637C271.36 731.744 275.872 730.828 281.131 729.439C282.132 729.171 283.139 728.901 284.159 728.681C287.419 727.888 290.797 727.069 293.809 725.575C299.3 722.843 304.151 718.589 308.824 714.47C311.046 712.541 313.333 710.507 315.652 708.692C323.588 702.498 329.568 693.233 335.356 684.273C337.161 681.482 338.866 678.844 340.623 676.3C343.87 671.608 345.803 666.389 346.899 659.386C347.255 657.068 347.622 654.747 347.998 652.423C348.657 648.292 349.321 644.153 349.923 640.01C350.341 636.405 350.528 632.778 350.485 629.149C350.57 620.417 350.671 610.52 355.504 604.463C356.673 602.929 357.75 601.326 358.73 599.664C359.865 597.714 361.149 595.854 362.57 594.101C373.925 580.848 392.349 575.925 408.559 571.588L410.592 571.043C412.755 570.464 414.944 569.877 417.122 569.353C422.694 567.94 428.459 566.476 433.919 564.546C444.511 560.808 453.656 555.97 461.105 550.172C468.824 544.163 478.703 532.786 481.86 523.458C489.726 500.316 489.67 482.399 481.697 461.621C479.174 455.041 475.974 449.19 472.582 442.997L470.755 439.638C465.234 429.427 461.913 419.073 458.446 408.098C457.729 405.843 457.009 403.582 456.267 401.307C453.086 391.602 447.215 381.378 443.094 374.526L442.604 373.717C438.896 367.589 435.412 361.8 432.665 355.153C430.306 349.46 428.312 343.621 426.696 337.673Z" stroke="url(#paint5_linear_43_10138)" stroke-width="1.39479" stroke-miterlimit="10"/>
</g>
<defs>
<linearGradient id="paint0_linear_43_10138" x1="-12.251" y1="454.916" x2="380.854" y2="349.584" gradientUnits="userSpaceOnUse">
<stop stop-color="#ECD9CF"/>
<stop offset="1" stop-color="#FFF0E9" stop-opacity="0"/>
</linearGradient>
<linearGradient id="paint1_linear_43_10138" x1="-26.1378" y1="461.327" x2="389.058" y2="350.076" gradientUnits="userSpaceOnUse">
<stop stop-color="#ECD9CF"/>
<stop offset="1" stop-color="#FFF0E9" stop-opacity="0"/>
</linearGradient>
<linearGradient id="paint2_linear_43_10138" x1="-37.6175" y1="464.673" x2="404.187" y2="346.292" gradientUnits="userSpaceOnUse">
<stop stop-color="#ECD9CF"/>
<stop offset="1" stop-color="#FFF0E9" stop-opacity="0"/>
</linearGradient>
<linearGradient id="paint3_linear_43_10138" x1="-59.5784" y1="467.059" x2="422.892" y2="337.782" gradientUnits="userSpaceOnUse">
<stop stop-color="#ECD9CF"/>
<stop offset="1" stop-color="#FFF0E9" stop-opacity="0"/>
</linearGradient>
<linearGradient id="paint4_linear_43_10138" x1="-74.3035" y1="472.351" x2="437.788" y2="335.136" gradientUnits="userSpaceOnUse">
<stop stop-color="#ECD9CF"/>
<stop offset="1" stop-color="#FFF0E9" stop-opacity="0"/>
</linearGradient>
<linearGradient id="paint5_linear_43_10138" x1="-92.2431" y1="477.695" x2="457.502" y2="330.391" gradientUnits="userSpaceOnUse">
<stop stop-color="#ECD9CF"/>
<stop offset="1" stop-color="#FFF0E9" stop-opacity="0"/>
</linearGradient>
</defs>
</svg>
