<svg width="256" height="215" viewBox="0 0 256 215" fill="none" xmlns="http://www.w3.org/2000/svg">
<path d="M143.94 -170.462C144.503 -170.613 145.071 -170.765 145.666 -170.862C147.3 -171.169 148.948 -171.489 150.6 -171.815C160.871 -173.825 171.446 -175.893 181.893 -175.282C186.013 -175.036 190.144 -174.46 194.146 -173.899C200.982 -172.946 208.048 -171.955 215.087 -172.649C223.91 -173.524 232.471 -176.371 240.753 -179.13C243.098 -179.911 245.438 -180.691 247.794 -181.431C257.629 -184.516 266.042 -189.726 274.178 -194.763C280.476 -198.66 286.989 -202.695 294.197 -205.783C298.704 -207.72 303.62 -208.974 308.375 -210.19C309.409 -210.467 310.441 -210.716 311.463 -210.986C323.424 -214.137 339.813 -214.865 349.947 -207.471C350.911 -206.766 351.895 -206.067 352.876 -205.367C356.691 -202.659 360.657 -199.861 363.919 -196.425C369.4 -190.694 373.351 -185.062 375.671 -179.646C378.349 -173.403 379.941 -166.536 381.482 -159.894C382.088 -157.28 382.713 -154.577 383.393 -151.987C385.776 -142.876 389.561 -135.93 394.631 -131.345C399.213 -127.205 403.261 -126.755 407.951 -126.23C410.533 -126.002 413.09 -125.549 415.593 -124.876C417.056 -124.417 418.486 -123.856 419.871 -123.197C420.898 -122.725 421.995 -122.245 423.068 -121.871C424.666 -121.365 426.302 -120.988 427.96 -120.744C429.345 -120.525 430.716 -120.231 432.069 -119.865C453.351 -113.698 466.163 -87.835 465.825 -67.4116C465.756 -63.2133 464.703 -59.4124 463.589 -55.3839L463.493 -55.0343C460.552 -44.3789 452.045 -39.8183 443.042 -34.9719L441.047 -33.8973C432.244 -29.1133 434.48 -20.4661 436.645 -12.1014C437.107 -10.376 437.511 -8.73393 437.841 -7.1307C440.368 5.24059 436.697 14.1341 426.624 20.0773C425.294 20.8612 423.976 21.6596 422.663 22.457C419.517 24.3662 416.262 26.3364 412.906 28.0679C406.459 31.3883 402.31 34.2952 398.871 40.1526C394.216 48.0771 394.142 53.9192 395.708 63.2631C396.084 65.5203 396.667 67.8836 397.283 70.3823C399.277 78.4643 401.537 87.6224 396.633 94.8532C384.896 112.221 362.445 114.295 344.199 114.163L343.672 114.16C323.409 114.015 310.029 113.919 294.882 128.866C288.827 134.844 281.155 138.686 273.158 142.413C251.059 152.726 228.299 153.983 210.74 145.909C203.548 142.599 198.107 136.885 192.838 131.359C187.1 125.342 181.172 119.119 173.049 116.171C166.998 113.977 158.707 112.738 150.294 112.774C148.377 112.839 146.473 113.108 144.613 113.577C143.506 113.815 142.361 114.063 141.154 114.233C131.72 115.551 121.396 112.994 113.536 107.397C105.327 101.552 98.6171 92.4975 95.5812 83.1513L94.8969 81.085C93.7338 77.5676 92.6847 74.1232 92.6331 70.7535C92.4819 60.1034 93.7967 44.5025 101.057 30.6157C102.283 28.2669 103.587 25.8883 104.858 23.604C109.43 15.3193 114.16 6.74933 116.129 -2.69604C116.638 -5.13175 117.297 -8.77716 117.16 -12.2952C117.017 -15.5864 115.733 -17.6224 113.956 -20.152C113.393 -20.9415 112.896 -21.7533 112.417 -22.5337C111.359 -24.2479 110.357 -25.8692 108.817 -27.2114C107.505 -28.3582 106.069 -29.0622 104.52 -29.7991C103.197 -30.3918 101.933 -31.1076 100.745 -31.9371C98.1852 -33.8249 95.0652 -35.1306 91.7667 -36.5145C85.8989 -38.9647 79.8313 -41.5053 77.1239 -47.592C67.8916 -68.3307 74.0647 -90.2412 81.32 -108.937C81.7002 -109.938 82.0594 -110.934 82.4275 -111.897C83.7398 -115.488 85.1008 -119.2 87.3953 -122.488C90.9791 -127.637 95.1743 -132.253 99.2548 -136.725C103.014 -140.882 106.91 -145.138 110.265 -149.795C110.778 -150.503 111.271 -151.234 111.765 -151.965C113.159 -154.021 114.601 -156.153 116.483 -157.89C118.364 -159.627 120.668 -160.897 122.888 -162.108C123.701 -162.551 124.511 -162.993 125.297 -163.456C128.148 -165.119 130.722 -165.953 133.703 -166.896L135.271 -167.397C136.514 -167.802 137.705 -168.265 138.869 -168.712C140.527 -169.387 142.219 -169.971 143.94 -170.462V-170.462ZM227.89 -174.019C223.73 -172.865 219.482 -172.053 215.19 -171.592C208.029 -170.884 200.893 -171.882 193.995 -172.846C190.013 -173.404 185.899 -173.98 181.832 -174.217C171.517 -174.823 160.989 -172.763 150.804 -170.767L145.862 -169.812C143.597 -169.322 141.382 -168.622 139.247 -167.72C138.072 -167.266 136.852 -166.795 135.596 -166.386L134.02 -165.883C131.114 -164.96 128.577 -164.159 125.835 -162.538C125.059 -162.074 124.216 -161.623 123.391 -161.172C121.233 -159.996 118.997 -158.776 117.205 -157.112C115.412 -155.448 114.021 -153.379 112.652 -151.393C112.153 -150.651 111.652 -149.914 111.139 -149.188C107.751 -144.487 103.841 -140.186 100.055 -136.026C96.0076 -131.581 91.8258 -126.982 88.2551 -121.868C86.0431 -118.693 84.7649 -115.209 83.4162 -111.518C83.0529 -110.521 82.6895 -109.524 82.3037 -108.543C75.1253 -90.0484 69.0133 -68.3973 78.0855 -48.0206C80.6219 -42.3201 86.4908 -39.8657 92.1674 -37.4903C95.3829 -36.1471 98.7092 -34.7437 101.372 -32.7891C102.505 -32.0013 103.71 -31.3239 104.973 -30.7662C106.606 -30.0656 108.134 -29.1426 109.514 -28.0235C111.176 -26.5748 112.267 -24.8063 113.323 -23.1006C113.796 -22.3274 114.282 -21.5576 114.825 -20.7762C116.657 -18.1896 118.071 -15.9227 118.226 -12.3513C118.381 -8.77986 117.71 -4.9824 117.189 -2.48957C115.184 7.10928 110.414 15.7485 105.803 24.1066C104.542 26.3928 103.235 28.7588 102.013 31.0928C94.8714 44.7815 93.5536 60.2031 93.7153 70.7244C93.7635 73.9466 94.7878 77.2987 95.9254 80.7374L96.1499 81.4241L96.6032 82.7965C99.571 91.9225 106.139 100.786 114.166 106.504C121.698 111.87 131.988 114.417 141.018 113.154C142.186 112.99 143.314 112.746 144.4 112.513C146.332 112.028 148.31 111.751 150.3 111.688C158.847 111.648 167.261 112.908 173.428 115.147C181.781 118.182 187.8 124.493 193.621 130.6C198.821 136.055 204.196 141.692 211.194 144.915C228.477 152.882 250.901 151.598 272.722 141.423C280.625 137.735 288.212 133.943 294.142 128.088C309.594 112.852 323.158 112.961 343.679 113.096L344.207 113.099C378.435 113.34 389.742 103.174 395.757 94.2915C400.415 87.4328 398.294 78.8807 396.265 70.6506C395.636 68.1194 395.055 65.7508 394.669 63.4517C393.06 53.8491 393.142 47.834 397.963 39.6219C401.536 33.5398 405.803 30.5381 412.43 27.1293C415.766 25.4118 419.001 23.4473 422.132 21.5509C423.448 20.7482 424.769 19.9445 426.105 19.1636C435.738 13.4778 439.24 4.94882 436.818 -6.91503C436.499 -8.4942 436.078 -10.1138 435.636 -11.8311C433.475 -20.1833 431.028 -29.6514 440.563 -34.8294L442.563 -35.9052C451.36 -40.6247 459.665 -45.0997 462.493 -55.3061L462.588 -55.6557C463.684 -59.6164 464.719 -63.3537 464.788 -67.4171C465.212 -93.1504 447.994 -114.139 431.796 -118.833C430.481 -119.188 429.148 -119.472 427.803 -119.684C426.083 -119.94 424.387 -120.337 422.732 -120.873C421.619 -121.263 420.514 -121.754 419.447 -122.242C418.108 -122.88 416.727 -123.424 415.313 -123.87C412.852 -124.524 410.338 -124.961 407.801 -125.178C403.13 -125.699 398.719 -126.191 393.882 -130.559C388.66 -135.275 384.774 -142.396 382.332 -151.712C381.635 -154.315 381.02 -157.03 380.413 -159.648C378.884 -166.244 377.303 -173.069 374.663 -179.223C372.392 -184.522 368.507 -190.063 363.118 -195.684C359.904 -199.038 356.003 -201.813 352.23 -204.496C351.241 -205.198 350.256 -205.898 349.287 -206.605C339.456 -213.78 323.426 -213.039 311.704 -209.952C310.683 -209.679 309.653 -209.403 308.608 -209.154C303.89 -207.949 299.017 -206.706 294.586 -204.803C287.46 -201.742 280.981 -197.734 274.718 -193.86C266.523 -188.789 258.051 -183.544 248.09 -180.426C245.747 -179.69 243.411 -178.911 241.075 -178.132C236.753 -176.677 232.357 -175.216 227.877 -174.015L227.89 -174.019Z" stroke="url(#paint0_linear_35_7087)" stroke-width="1.78286" stroke-miterlimit="10"/>
<path d="M133.442 -178.184C137.427 -179.251 141.8 -179.573 146.038 -179.88C146.739 -179.933 147.433 -179.979 148.116 -180.036C159.359 -180.919 171.427 -181.529 183.543 -180.045C189.428 -179.326 194.734 -178.803 200.083 -179.714C204.09 -180.396 208.14 -180.802 212.052 -181.197C220.065 -181.994 227.631 -182.761 235.193 -185.674L238.207 -186.824C240.527 -187.702 242.925 -188.61 245.24 -189.577C252.233 -192.486 258.954 -196.826 265.449 -201.019C268.345 -202.889 271.342 -204.822 274.309 -206.58C275.903 -207.576 277.439 -208.66 278.91 -209.829C280.826 -211.297 282.809 -212.814 285.015 -213.918L285.211 -214.011C289.121 -215.959 293.151 -217.966 297.688 -218.448C300.765 -218.85 303.813 -219.444 306.815 -220.228C312.135 -221.5 317.638 -222.813 323.061 -221.97C325.986 -221.516 328.917 -221.208 331.751 -220.909C341.938 -219.84 351.56 -218.831 360.199 -211.427C370.774 -202.378 377.357 -192.488 381.55 -179.338C382.015 -177.892 382.523 -176.448 383.023 -175.034C383.816 -172.78 384.638 -170.452 385.272 -168.088C385.645 -166.694 385.982 -165.285 386.317 -163.867C386.917 -161.088 387.68 -158.346 388.602 -155.657C390.363 -150.849 392.81 -148.232 395.649 -145.18C397.228 -143.541 398.712 -141.814 400.095 -140.007C401.681 -137.884 402.411 -137.157 404.992 -136.728C417.134 -134.692 426.962 -132.595 435.919 -130.12C443.239 -128.125 450.864 -122.845 455.549 -118.595C457.081 -117.151 458.528 -115.619 459.883 -114.008C460.846 -112.916 461.837 -111.755 462.89 -110.696C463.512 -110.056 464.128 -109.434 464.743 -108.82C468.106 -105.49 471.284 -102.344 473.388 -97.7182C479.33 -84.6454 479.128 -67.1088 472.867 -53.0395C471.322 -49.5691 468.658 -47.2844 466.064 -45.2435C463.764 -43.5206 461.352 -41.9538 458.842 -40.5538C454.255 -37.8571 449.512 -35.0693 446.642 -30.4294C443.283 -24.9965 444.721 -19.409 446.23 -13.4935C446.621 -12.032 447 -10.5176 447.306 -9.02408C448.726 -2.04512 450.517 6.63927 446.725 13.327C443.278 19.508 435.168 22.6981 428.033 25.5102C425.63 26.4512 423.363 27.3424 421.403 28.2906C420.607 28.6794 419.722 29.0202 418.877 29.3454C417.377 29.9274 415.832 30.526 414.62 31.4269C402.428 40.4734 405.527 55.3972 408.826 71.2531C411.174 82.5521 413.602 94.2347 409.923 103.579C408.654 106.773 405.808 110.191 403.539 112.15C401.968 113.511 400.033 114.367 398.162 115.193L397.507 115.485C387.061 120.166 373.806 123.065 357.019 124.335C354.536 124.466 352.046 124.428 349.568 124.221C348.525 124.158 347.487 124.094 346.455 124.056C325.006 123.276 303.878 130.364 289.941 143.011C289.05 143.817 288.186 144.688 287.35 145.533C285.902 147.063 284.34 148.481 282.677 149.774C276.367 154.44 266.524 156.771 258.62 158.642L256.395 159.175C252.332 160.151 248.196 160.651 244.195 161.138C241.759 161.435 239.24 161.741 236.763 162.153L236.112 162.26C233.369 162.72 230.776 163.154 227.868 162.83C219.058 161.86 210.894 159.236 204.049 156.803C195.748 153.851 191.381 148.368 186.328 142.025C185.658 141.201 184.981 140.356 184.301 139.498C173.828 126.595 157.082 125.078 140.892 123.605C133.051 122.893 124.935 122.16 117.779 120.107C106.158 116.775 95.5836 106.753 86.3489 90.3093C85.9857 89.6594 85.64 89.0018 85.3118 88.3366C79.1834 75.8944 77.7575 58.2628 81.8382 45.4618C82.7378 42.8092 83.7906 40.2111 84.9913 37.6806C85.6692 36.1801 86.3748 34.6316 86.9931 33.0931C87.5123 31.8062 87.9908 30.4852 88.449 29.2056C89.2848 26.7107 90.2856 24.2741 91.4448 21.9122C92.2597 20.3405 93.0795 18.7704 93.9043 17.2021C97.4169 10.4769 101.039 3.5241 104.295 -3.48789C106.171 -7.53748 107.482 -10.9585 105.963 -15.0166C102.857 -23.2497 94.9429 -26.5847 87.2735 -29.8141C83.225 -31.538 79.0196 -33.3099 75.5742 -35.7896C64.6819 -43.6739 60.6619 -57.0815 63.2912 -76.7766C63.4568 -78.0228 63.6087 -79.2698 63.7639 -80.5042C64.2359 -84.4026 64.7255 -88.4364 65.6741 -92.3365C66.0761 -93.8169 66.6385 -95.249 67.3512 -96.6074C67.6833 -97.2995 68.0226 -97.9981 68.3263 -98.7457C68.6149 -99.4827 68.8641 -100.235 69.0728 -100.998C69.3628 -102.093 69.7535 -103.16 70.24 -104.183C72.8016 -109.15 75.0202 -114.389 77.1626 -119.46C79.9845 -126.126 82.9038 -133.017 86.6341 -139.4C93.4224 -151.013 103.932 -161.94 116.195 -170.15C121.154 -173.425 126.541 -175.999 132.205 -177.798C132.616 -177.958 133.031 -178.074 133.442 -178.184ZM230.261 -182.971C224.236 -181.356 218.118 -180.743 212.154 -180.145C208.254 -179.752 204.221 -179.369 200.259 -178.672C194.772 -177.738 189.155 -178.294 183.409 -178.996C171.387 -180.469 159.378 -179.858 148.196 -178.982L146.109 -178.827C141.488 -178.489 136.696 -178.133 132.525 -176.822C126.959 -175.049 121.663 -172.518 116.787 -169.301C104.642 -161.172 94.2545 -150.376 87.5388 -138.895C83.834 -132.568 80.9415 -125.712 78.1297 -119.076C75.9758 -113.997 73.7514 -108.729 71.1811 -103.71C70.7223 -102.749 70.3552 -101.746 70.0845 -100.716C69.8657 -99.916 69.6034 -99.129 69.2987 -98.358C68.9827 -97.5892 68.6322 -96.8651 68.2982 -96.1635C67.6124 -94.8726 67.0721 -93.5095 66.6871 -92.0993C65.7609 -88.2502 65.2726 -84.2618 64.8023 -80.3908C64.6516 -79.1396 64.5008 -77.8884 64.3322 -76.6369C61.7599 -57.3668 65.6385 -44.2858 76.1796 -36.654C79.527 -34.2381 83.6824 -32.4843 87.7082 -30.7948C95.579 -27.5023 103.728 -24.0637 106.977 -15.3964C108.645 -10.9506 107.263 -7.32588 105.282 -3.04567C102.027 3.98424 98.3866 10.9552 94.8678 17.6911L92.4126 22.4C91.2694 24.7211 90.283 27.1163 89.46 29.5694C88.9988 30.8543 88.5194 32.189 87.991 33.4919C87.3604 35.0517 86.654 36.6139 85.9688 38.1209C84.7787 40.6188 83.7335 43.1833 82.8382 45.8015C78.8326 58.3618 80.237 75.6616 86.2509 87.8779C86.5687 88.5264 86.9063 89.1651 87.2608 89.7994C96.3541 105.984 106.713 115.843 118.06 119.091C125.118 121.116 133.197 121.841 140.975 122.552C157.394 124.04 174.371 125.581 185.122 138.833C185.803 139.695 186.48 140.54 187.151 141.368C192.102 147.585 196.377 152.958 204.39 155.807C211.179 158.219 219.287 160.818 227.974 161.78C230.755 162.084 233.257 161.665 235.923 161.217L236.574 161.11C239.073 160.697 241.6 160.389 244.05 160.092C248.02 159.609 252.126 159.112 256.129 158.148L258.359 157.618C266.174 155.767 275.894 153.464 282.032 148.929C283.649 147.665 285.169 146.281 286.579 144.79C287.426 143.937 288.301 143.054 289.21 142.23C303.365 129.39 324.772 122.205 346.49 122.98C347.531 123.016 348.579 123.082 349.631 123.146C352.06 123.348 354.5 123.387 356.935 123.264C373.606 122.016 386.725 119.148 397.072 114.517L397.73 114.201C399.528 113.404 401.386 112.582 402.84 111.324C404.937 109.511 407.737 106.186 408.926 103.167C412.484 94.111 410.093 82.5987 407.776 71.449C404.563 55.9839 401.235 39.9871 413.975 30.5329C415.3 29.5478 416.918 28.9206 418.485 28.3164C419.345 27.9824 420.164 27.6639 420.912 27.297C422.898 26.3145 425.196 25.4333 427.619 24.4826C434.589 21.746 442.498 18.6457 445.819 12.7864C449.407 6.42377 447.675 -2.02013 446.28 -8.82127C445.98 -10.2938 445.593 -11.788 445.218 -13.2403C443.708 -19.1104 442.14 -25.1809 445.738 -30.9974C448.752 -35.856 453.606 -38.7184 458.306 -41.4813C460.773 -42.8549 463.145 -44.3929 465.407 -46.0846C467.931 -48.0347 470.47 -50.2277 471.92 -53.4655C478.06 -67.2639 478.268 -84.46 472.446 -97.2679C470.42 -101.721 467.31 -104.799 464.019 -108.063C463.403 -108.681 462.785 -109.308 462.133 -109.944C461.074 -111.01 460.062 -112.184 459.083 -113.299C457.755 -114.884 456.336 -116.389 454.833 -117.809C450.237 -121.979 442.776 -127.15 435.6 -129.125C426.677 -131.591 416.888 -133.681 404.776 -135.72C401.85 -136.21 400.877 -137.173 399.206 -139.413C397.845 -141.19 396.383 -142.887 394.828 -144.497C392.036 -147.494 389.401 -150.325 387.564 -155.334C386.628 -158.063 385.852 -160.844 385.242 -163.664C384.911 -165.066 384.581 -166.467 384.205 -167.852C383.582 -170.178 382.77 -172.486 381.983 -174.719C381.471 -176.157 380.964 -177.597 380.501 -179.057C376.375 -191.986 369.89 -201.727 359.473 -210.643C351.089 -217.818 341.629 -218.812 331.609 -219.863C328.761 -220.162 325.816 -220.471 322.868 -220.928C317.651 -221.74 312.254 -220.452 307.03 -219.205C303.986 -218.405 300.893 -217.802 297.771 -217.399C293.437 -216.949 289.658 -215.063 285.652 -213.067L285.461 -212.976C283.333 -211.915 281.391 -210.431 279.513 -208.992C278.009 -207.797 276.439 -206.689 274.808 -205.674C271.882 -203.931 268.894 -202.001 266.005 -200.137C259.485 -195.919 252.708 -191.551 245.627 -188.605C243.299 -187.635 240.893 -186.724 238.565 -185.839L235.555 -184.695C233.826 -184.025 232.062 -183.448 230.272 -182.965L230.261 -182.971Z" stroke="url(#paint1_linear_35_7087)" stroke-width="1.78286" stroke-miterlimit="10"/>
<path d="M138.357 -193.667C140.091 -194.132 141.832 -194.459 143.626 -194.8L145.912 -195.242C152.061 -196.489 159.623 -196.257 166.291 -196.051L169.377 -195.978C172.217 -195.85 175.048 -195.557 177.855 -195.101C178.916 -194.936 179.971 -194.796 181.03 -194.661C204.541 -191.694 221.92 -193.436 239.136 -200.505C243.549 -202.317 247.423 -204.66 251.518 -207.138L252.068 -207.47C256.736 -210.295 263.708 -214.3 270.364 -216.475C271.899 -216.98 273.429 -217.467 274.952 -217.951C282.311 -220.292 289.26 -222.5 296.062 -226.181L298.325 -227.413C302.538 -229.72 306.52 -231.893 311.026 -233.627C325.125 -239.038 337.824 -239.076 353.492 -233.76C359.975 -231.561 367.877 -224.718 372.025 -219.384C376.012 -214.267 379.332 -207.991 381.894 -200.733C383.213 -197.002 384.209 -193.086 385.168 -189.303C385.561 -187.839 385.917 -186.355 386.305 -184.907L386.674 -183.531C389.57 -172.724 392.853 -160.473 401.535 -153.02C402.677 -152.097 403.888 -151.262 405.157 -150.523C406.316 -149.839 407.434 -149.087 408.503 -148.27C412.308 -145.241 418.785 -145.178 424.524 -145.114C427.022 -145.141 429.52 -145.008 432.001 -144.715C434.811 -144.308 437.601 -143.859 440.395 -143.411L445.096 -142.669C449.981 -141.927 453.64 -140.572 456.954 -138.285C458.656 -137.108 460.43 -135.964 462.303 -134.77C468.415 -130.794 474.756 -126.703 479.046 -121.209C480.251 -119.67 481.6 -118.129 482.907 -116.644C485.732 -113.428 488.657 -110.087 490.558 -106.269C491.617 -104.133 492.185 -101.793 492.737 -99.5345C492.916 -98.8629 493.063 -98.1824 493.243 -97.5109C494.215 -93.8806 494.829 -90.7659 494.76 -87.3961C494.47 -72.4515 491.061 -62.0378 483.36 -52.5704C480.747 -49.3691 477.852 -46.3444 475.062 -43.4015C469.837 -37.953 464.445 -32.2845 460.829 -25.3328C459.346 -22.466 458.546 -20.142 459.241 -17.4313C459.5 -16.466 459.759 -15.4965 460.018 -14.5312C460.207 -13.8261 460.396 -13.1211 460.58 -12.4328C460.974 -10.9638 461.368 -9.49491 461.76 -8.03019C462.593 -4.92027 463.428 -1.80615 464.261 1.30377C466.007 7.55177 465.6 13.1397 463.053 17.9156C460.423 22.8351 456.275 26.3218 452.257 29.4721C449.039 31.9943 445.437 33.5217 441.949 35.005C439.875 35.8846 437.729 36.7969 435.669 37.9113C434.639 38.4327 433.559 38.8501 432.446 39.1572C431.839 39.3467 431.232 39.532 430.624 39.7668C428.737 40.502 426.028 42.7752 424.719 44.4259C418.351 52.3983 419.654 61.5808 422.008 70.3154L422.179 70.9533C424.046 77.9202 426.006 85.1185 425.476 92.4307C425.356 94.1002 425.165 95.8068 424.982 97.4573C424.876 98.3852 424.775 99.312 424.678 100.238C424.635 100.699 424.604 101.157 424.586 101.576C424.447 103.444 424.316 105.206 423.232 107.089C421.843 109.399 420.226 111.564 418.404 113.551C416.697 115.476 414.775 117.199 412.675 118.685C409.892 120.748 407.041 122.07 404.022 123.469C403.221 123.841 402.383 124.227 401.554 124.625C392.932 128.788 382.436 129.118 373.181 129.407L372.989 129.413C372.342 129.434 371.71 129.477 371.082 129.519C369.344 129.703 367.589 129.666 365.861 129.407C363.92 128.995 361.941 128.783 359.956 128.776C359.198 128.757 358.443 128.675 357.698 128.531C356.769 128.326 355.814 128.271 354.868 128.367C352.415 128.809 350.012 129.494 347.694 130.411C339.245 133.723 330.181 136.003 321.423 138.215C319.315 138.748 317.181 139.284 315.076 139.83C309.662 141.245 304.248 143.941 298.133 148.319C295.042 150.528 293.055 153.211 291.134 155.804C288.158 159.818 285.351 163.606 278.892 165.562C276.449 166.306 273.977 167.126 271.593 167.922C269.208 168.719 266.694 169.55 264.22 170.298C249.552 174.728 235.884 176.159 223.685 174.498C212.448 172.97 205.924 168.16 198.384 162.587C195.694 160.609 192.907 158.544 189.727 156.504C188.754 155.865 187.82 155.215 186.885 154.566C184.963 153.135 182.917 151.877 180.772 150.806C177.219 149.154 173.806 147.171 170.505 145.249C168.489 144.08 166.409 142.869 164.322 141.751C158.541 138.658 152.142 137.538 145.945 136.455C142.207 135.869 138.503 135.082 134.851 134.097C133.953 133.838 133.093 133.57 132.249 133.31C129.247 132.373 126.409 131.492 123.013 131.385C121.841 131.344 120.697 131.327 119.575 131.308C113.814 131.21 108.369 131.117 102.622 128.406C96.2333 125.395 91.5223 121.439 86.5332 117.252C84.7918 115.793 82.9999 114.281 81.0848 112.779C75.1127 108.081 71.3295 101.12 68.4168 94.9368C66.64 91.162 65.6371 87.3688 64.5791 83.37L64.5341 83.2021C64.2283 82.0605 63.8961 80.9215 63.5638 79.7825C62.4635 76.0289 61.3256 72.1684 61.3519 68.167C61.4718 54.7031 64.0014 41.8485 68.6602 30.9919C75.3077 15.4776 82.4797 5.18008 91.8773 -2.38953C95.2624 -5.09586 96.7836 -7.86956 96.4061 -10.5888C95.3522 -18.1514 80.3508 -24.5227 70.4239 -28.7406C66.6242 -30.354 63.6264 -31.6289 62.1457 -32.6356C58.7363 -34.9428 56.083 -38.2083 53.5033 -41.3676L52.9003 -42.1057C45.1737 -51.5868 47.4873 -68.171 49.3457 -81.498C49.7773 -84.5915 50.1875 -87.5128 50.4264 -90.0824C50.6767 -92.2129 51.0819 -94.3225 51.6389 -96.3944C52.1783 -98.3834 52.5761 -100.408 52.8291 -102.453C53.1579 -105.897 53.4876 -108.396 54.9224 -111.61C55.8641 -113.831 56.664 -116.11 57.3172 -118.432C58.0111 -120.887 58.8708 -123.292 59.8903 -125.631C60.6385 -127.257 61.3116 -128.963 61.9665 -130.618C62.9564 -133.3 64.1258 -135.913 65.4669 -138.438C66.3896 -140.035 67.1271 -141.735 67.8636 -143.372C68.6 -145.008 69.3476 -146.671 70.2406 -148.277C76.906 -160.247 83.9816 -165.175 94.6921 -172.633L96.5387 -173.924C106.969 -181.217 117.901 -185.631 129.472 -190.315C131.231 -191.025 132.994 -191.74 134.77 -192.468C135.938 -192.945 137.136 -193.346 138.357 -193.667ZM227.745 -195.505C213.963 -191.812 199.289 -191.268 180.903 -193.588C179.835 -193.724 178.773 -193.876 177.706 -194.027C174.946 -194.48 172.162 -194.772 169.368 -194.901C168.367 -194.925 167.332 -194.958 166.279 -194.973C159.664 -195.179 152.169 -195.411 146.136 -194.186C145.364 -194.029 144.596 -193.886 143.842 -193.742C140.844 -193.173 138.051 -192.64 135.187 -191.468C133.407 -190.739 131.64 -190.021 129.884 -189.314C118.366 -184.653 107.493 -180.256 97.1588 -173.038L95.3123 -171.747C84.7238 -164.371 77.7274 -159.5 71.182 -147.738C70.3139 -146.156 69.5648 -144.516 68.8457 -142.915C68.1266 -141.315 67.3313 -139.545 66.4083 -137.899C65.088 -135.421 63.9354 -132.858 62.9581 -130.227C62.3013 -128.562 61.6148 -126.84 60.8694 -125.169C59.8764 -122.876 59.0402 -120.517 58.3668 -118.111C57.7025 -115.744 56.8871 -113.422 55.9256 -111.159C54.5506 -108.092 54.2426 -105.679 53.9185 -102.336C53.6642 -100.253 53.2615 -98.1906 52.7133 -96.165C52.1679 -94.1417 51.7721 -92.0811 51.529 -89.9999C51.2831 -87.406 50.8763 -84.4721 50.4438 -81.3649C48.6116 -68.2429 46.3304 -51.9237 53.7685 -42.7971L54.3673 -42.0579C56.8859 -38.9587 59.4875 -35.7513 62.7703 -33.5137C64.1636 -32.5645 67.2717 -31.2472 70.8686 -29.7189C81.027 -25.4101 96.3503 -18.8956 97.4838 -10.7336C97.9174 -7.62007 96.2643 -4.53214 92.5725 -1.5592C83.3154 5.8963 76.2519 16.0612 69.6639 31.4112C65.0611 42.1403 62.5618 54.8563 62.4437 68.1758C62.4075 72.0225 63.5232 75.817 64.601 79.4866C64.9366 80.6382 65.2753 81.7845 65.5781 82.9314L65.6242 83.1034C66.6858 87.0653 67.6648 90.8199 69.4 94.5069C72.409 100.898 75.9812 107.408 81.7621 111.963C83.6901 113.479 85.5003 115.01 87.2394 116.46C92.1707 120.599 96.8346 124.514 103.096 127.469C108.639 130.077 113.724 130.168 119.602 130.266C120.733 130.287 121.866 130.312 123.058 130.343C126.597 130.461 129.503 131.36 132.59 132.314C133.426 132.576 134.28 132.842 135.172 133.098C138.787 134.071 142.452 134.849 146.151 135.428C152.427 136.522 158.909 137.659 164.838 140.834C166.941 141.962 169.034 143.174 171.056 144.35C174.335 146.256 177.726 148.226 181.239 149.858C183.435 150.953 185.532 152.238 187.503 153.699C188.43 154.35 189.36 155.001 190.313 155.6C193.521 157.66 196.317 159.726 199.027 161.726C206.453 167.212 212.876 171.96 223.839 173.444C235.875 175.082 249.379 173.663 263.931 169.269C266.392 168.524 268.876 167.697 271.273 166.897C273.67 166.097 276.146 165.276 278.603 164.532C284.707 162.681 287.414 159.023 290.278 155.161C292.265 152.496 294.285 149.755 297.51 147.442C303.736 142.99 309.227 140.228 314.807 138.791C316.907 138.228 319.021 137.716 321.158 137.175C329.888 134.975 338.917 132.7 347.306 129.413C349.693 128.468 352.169 127.764 354.697 127.311C355.763 127.187 356.842 127.24 357.89 127.467C358.577 127.601 359.274 127.678 359.973 127.696C362.023 127.705 364.067 127.923 366.072 128.347C367.72 128.592 369.393 128.625 371.05 128.444C371.691 128.398 372.336 128.356 372.997 128.336L373.189 128.329C382.341 128.041 392.712 127.718 401.136 123.653C401.968 123.25 402.793 122.867 403.615 122.489C406.582 121.114 409.385 119.814 412.082 117.814C414.115 116.373 415.976 114.703 417.627 112.837C419.4 110.902 420.975 108.795 422.33 106.548C423.292 104.878 423.407 103.309 423.542 101.491C423.572 101.033 423.606 100.574 423.654 100.112C423.748 99.1869 423.855 98.2586 423.962 97.3303C424.143 95.6892 424.333 93.9964 424.454 92.3449C424.968 85.2078 423.045 78.0985 421.188 71.2189L421.023 70.602C418.608 61.5912 417.265 52.109 423.931 43.769C425.337 42.0112 428.163 39.6032 430.28 38.784C430.912 38.5382 431.543 38.342 432.175 38.1457C433.221 37.8593 434.235 37.4699 435.204 36.9833C437.311 35.8428 439.482 34.9374 441.575 34.0301C445.157 32.5125 448.536 31.0763 451.641 28.6341C455.569 25.5528 459.623 22.1499 462.14 17.4136C464.557 12.8929 464.936 7.56895 463.262 1.58955C462.394 -1.51556 461.568 -4.63193 460.757 -7.757C460.365 -9.22172 459.97 -10.6948 459.579 -12.1554C459.391 -12.8563 459.203 -13.5571 459.016 -14.2538C458.756 -15.2275 458.495 -16.2012 458.229 -17.1917C457.367 -20.5594 458.642 -23.429 459.901 -25.8536C463.59 -32.9371 469.042 -38.6488 474.312 -44.1677C477.077 -47.0363 479.951 -50.0555 482.537 -53.2404C490.07 -62.51 493.426 -72.7342 493.696 -87.417C493.768 -90.6435 493.15 -93.6896 492.213 -97.2394C492.031 -97.9151 491.849 -98.595 491.701 -99.2839C491.165 -101.484 490.613 -103.765 489.604 -105.798C487.76 -109.505 484.888 -112.78 482.107 -115.934C480.805 -117.434 479.432 -118.978 478.207 -120.544C474.025 -125.901 467.771 -129.937 461.722 -133.845C459.838 -135.063 458.058 -136.214 456.34 -137.4C453.173 -139.593 449.649 -140.898 444.922 -141.637C443.357 -141.878 441.79 -142.125 440.221 -142.379C437.433 -142.824 434.638 -143.272 431.842 -143.679C429.409 -143.961 426.96 -144.087 424.51 -144.058C418.615 -144.116 411.934 -144.183 407.845 -147.446C406.809 -148.235 405.728 -148.962 404.606 -149.624C403.289 -150.39 402.034 -151.257 400.85 -152.216C391.904 -159.881 388.58 -172.319 385.652 -183.262L385.285 -184.634C384.893 -186.095 384.498 -187.572 384.144 -189.042C383.19 -192.804 382.201 -196.695 380.899 -200.381C378.375 -207.532 375.109 -213.706 371.196 -218.734C367.139 -223.945 359.459 -230.613 353.161 -232.745C337.539 -238.055 325.444 -238.017 311.418 -232.634C306.976 -230.932 303.026 -228.771 298.845 -226.481L296.578 -225.248C289.684 -221.521 282.695 -219.279 275.286 -216.939C273.764 -216.455 272.237 -215.969 270.701 -215.468C264.15 -213.321 257.248 -209.357 252.623 -206.575L252.077 -206.244C247.939 -203.741 244.032 -201.39 239.545 -199.535C235.701 -197.942 231.76 -196.596 227.745 -195.505Z" stroke="url(#paint2_linear_35_7087)" stroke-width="1.78286" stroke-miterlimit="10"/>
<defs>
<linearGradient id="paint0_linear_35_7087" x1="315.089" y1="132.762" x2="227.818" y2="-192.937" gradientUnits="userSpaceOnUse">
<stop stop-color="#FF9968"/>
<stop offset="1" stop-color="#FFF0E9" stop-opacity="0"/>
</linearGradient>
<linearGradient id="paint1_linear_35_7087" x1="318.66" y1="142.702" x2="226.031" y2="-202.993" gradientUnits="userSpaceOnUse">
<stop stop-color="#FF9968"/>
<stop offset="1" stop-color="#FFF0E9" stop-opacity="0"/>
</linearGradient>
<linearGradient id="paint2_linear_35_7087" x1="322.269" y1="154.813" x2="222.829" y2="-216.302" gradientUnits="userSpaceOnUse">
<stop stop-color="#FF9968"/>
<stop offset="1" stop-color="#FFF0E9" stop-opacity="0"/>
</linearGradient>
</defs>
</svg>
