<svg width="162" height="111" viewBox="0 0 162 111" fill="none" xmlns="http://www.w3.org/2000/svg">
<path d="M14.3464 76.9192C14.0361 77.2269 13.7898 77.593 13.6217 77.9964C13.4536 78.3998 13.3671 78.8325 13.3671 79.2695C13.3671 79.7065 13.4536 80.1392 13.6217 80.5426C13.7898 80.946 14.0361 81.3121 14.3464 81.6199C14.9674 82.2329 15.8048 82.5767 16.6774 82.5767C17.5499 82.5767 18.3874 82.2329 19.0083 81.6199L21.3392 79.2889L19.0083 76.958C18.3925 76.3398 17.5579 75.989 16.6854 75.9817C15.8128 75.9745 14.9725 76.3113 14.3464 76.9192ZM17.7263 78.2245C17.934 78.432 18.0754 78.6964 18.1328 78.9843C18.1902 79.2722 18.1608 79.5707 18.0486 79.8419C17.9363 80.1131 17.7461 80.345 17.502 80.5081C17.2579 80.6712 16.9709 80.7583 16.6774 80.7583C16.3838 80.7583 16.0968 80.6712 15.8528 80.5081C15.6087 80.345 15.4185 80.1131 15.3062 79.8419C15.1939 79.5707 15.1646 79.2722 15.222 78.9843C15.2793 78.6964 15.4208 78.432 15.6285 78.2245C15.9067 77.9464 16.284 77.7903 16.6774 77.7903C17.0707 77.7903 17.448 77.9464 17.7263 78.2245Z" fill="#DFA857"/>
<path d="M125.415 22.8577C125.415 23.5876 125.632 24.3012 126.037 24.9081C126.443 25.515 127.019 25.9881 127.693 26.2674C128.368 26.5467 129.11 26.6198 129.826 26.4774C130.542 26.335 131.199 25.9835 131.715 25.4674C132.232 24.9512 132.583 24.2936 132.725 23.5777C132.868 22.8618 132.795 22.1197 132.515 21.4453C132.236 20.771 131.763 20.1946 131.156 19.789C130.549 19.3835 129.836 19.167 129.106 19.167C128.127 19.167 127.188 19.5559 126.496 20.248C125.804 20.9402 125.415 21.8789 125.415 22.8577ZM131.507 22.8577C131.507 23.3325 131.366 23.7967 131.102 24.1916C130.838 24.5864 130.463 24.8941 130.025 25.0758C129.586 25.2575 129.103 25.3051 128.637 25.2124C128.172 25.1198 127.744 24.8911 127.408 24.5554C127.072 24.2196 126.844 23.7918 126.751 23.3261C126.658 22.8604 126.706 22.3776 126.888 21.9389C127.069 21.5002 127.377 21.1253 127.772 20.8614C128.167 20.5976 128.631 20.4568 129.106 20.4568C129.742 20.4568 130.353 20.7098 130.803 21.16C131.254 21.6103 131.507 22.2209 131.507 22.8577Z" fill="#DFA857"/>
<path d="M129.106 21.3964C129.395 21.3964 129.677 21.4821 129.917 21.6426C130.158 21.8031 130.345 22.0313 130.455 22.2982C130.566 22.5651 130.595 22.8588 130.538 23.1421C130.482 23.4255 130.343 23.6858 130.139 23.89C129.934 24.0943 129.674 24.2334 129.391 24.2898C129.107 24.3462 128.814 24.3172 128.547 24.2067C128.28 24.0961 128.052 23.9089 127.891 23.6687C127.731 23.4285 127.645 23.1461 127.645 22.8572C127.645 22.4697 127.799 22.0982 128.073 21.8243C128.347 21.5503 128.718 21.3964 129.106 21.3964Z" fill="#DFA857"/>
<path opacity="0.2" d="M33.8485 0.363699L26.3273 0.3637L48.3235 23.3855L39.9322 47.7049L-3.57904e-06 28.4433L-3.31108e-06 34.5737L23.165 45.0942L6.70839 98.9185L6.70839 104.94L10.7487 104.94L19.4356 80.501L45.6974 94.8906L53.9255 61.131L61.6021 65.1402L50.3176 106.968L55.9429 106.968L66.5514 67.7353L85.4863 77.6107L80.9488 93.2046L90.9438 110.322L97.4704 110.322L86.8771 92.3266L90.4046 80.1825L125.027 98.2472L136.775 98.2472L114.133 86.4294L118.857 70.3537L139.525 70.3537L161.675 38.5848L161.675 25.9123L136.106 64.9149L120.45 64.9149L139.408 0.363695L133.737 0.363695L128.057 19.6249L95.6181 13.7355L99.13 0.32484L93.5125 0.32484L84.0256 36.5086L53.0864 20.4563L33.8485 0.363699ZM42.0844 86.7168L20.8885 75.0622L28.1299 47.6505L48.9607 58.5281L42.0844 86.7168ZM94.2351 19.05L126.542 24.8773L109.215 83.8653L77.5534 67.3468L84.5462 61.0222L88.4311 41.155L94.2351 19.05ZM82.7358 42.0019L79.558 58.1707L72.3787 64.6429L44.8038 50.2533L52.9776 26.5711L82.7358 42.0019Z" fill="#DFA857"/>
<path opacity="0.4" d="M23.6857 35.491L38.7046 43.2607L44.8039 23.3779L33.4445 12.407C30.6606 20.2916 27.4017 28.0004 23.6857 35.491Z" fill="#C07650"/>
<path opacity="0.4" d="M48.1215 49.3057L54.3451 30.8448L73.6607 40.0753L67.6392 58.8159L48.1215 49.3057Z" fill="#C07650"/>
<path opacity="0.4" d="M81.3761 30.8291C80.8555 30.6737 62.4101 21.7618 62.4101 21.7618L66.5203 8.55318L87.3821 6.22225L81.3761 30.8291Z" fill="#C07650"/>
<path opacity="0.4" d="M109.984 57.8682C109.751 57.5885 90.8553 51.4581 90.8553 51.4581L95.8901 22.8576L121.119 27.6205L109.984 57.8682Z" fill="#C07650"/>
<path opacity="0.4" d="M99.1844 73.2601L102.028 64.6357L109.984 68.9479C109.984 68.9479 107.902 78.0308 107.288 78.0308C106.674 78.0308 99.1844 73.2601 99.1844 73.2601Z" fill="#C07650"/>
<path opacity="0.4" d="M123.115 72.7857C123.628 72.9955 138.391 75.9868 148.235 77.9681L148.235 97.6489L120.357 85.5359L123.115 72.7857Z" fill="#C07650"/>
<path opacity="0.4" d="M141.53 0.363925L148.258 0.363925L148.258 16.6183L140.683 39.5391C137.575 38.8087 134.56 37.9851 131.561 37.0061L141.53 0.363925Z" fill="#C07650"/>
<path opacity="0.4" d="M130.737 39.9352L126.262 56.3605L134.335 58.6914L139.712 42.4293C136.681 41.7067 133.682 40.9297 130.737 39.9352Z" fill="#C07650"/>
<path opacity="0.4" d="M109.207 0.363898L126.41 0.363897L123.115 15.4761L106.83 12.3993L109.207 0.363898Z" fill="#C07650"/>
<path opacity="0.4" d="M76.2403 90.8042L65.2849 86.0102L69.2164 72.6618L80.6613 78.0307L76.2403 90.8042Z" fill="#C07650"/>
<path opacity="0.4" d="M38.1296 78.644L26.2031 72.0631L31.3855 54.2081L44.1201 60.1986L38.1296 78.644Z" fill="#C07650"/>
<path opacity="0.4" d="M10.7335 42.9653C14.0822 44.6203 18.3323 46.757 18.6042 47.0988C18.8762 47.4407 13.2819 69.5146 10.7335 79.2734L10.7335 42.9653Z" fill="#C07650"/>
<path opacity="0.4" d="M22.7066 86.0175L48.2613 98.2471L19.5287 98.2471L22.7066 86.0175Z" fill="#C07650"/>
<path d="M124.669 21.3887L124.669 21.5286C124.633 21.73 124.519 21.9091 124.352 22.0269C124.185 22.1448 123.977 22.1918 123.776 22.1579L93.0929 16.8434C91.943 20.604 86.1001 40.0828 82.9145 58.9167C82.8878 59.086 82.8058 59.2417 82.6814 59.3596L72.9614 68.3181C72.8452 68.4259 72.6989 68.4956 72.5419 68.5178C72.385 68.54 72.225 68.5137 72.0835 68.4424L52.0685 58.0465L44.6251 90.9436C44.5981 91.061 44.5442 91.1705 44.4676 91.2634C44.3911 91.3564 44.2939 91.4302 44.1839 91.4792C44.0739 91.5282 43.954 91.5509 43.8337 91.5456C43.7134 91.5403 43.596 91.5071 43.4907 91.4487L23.2893 80.3845C23.1995 80.3335 23.1207 80.2653 23.0572 80.1838C22.9938 80.1023 22.9471 80.0091 22.9196 79.9096C22.8922 79.81 22.8847 79.706 22.8975 79.6035C22.9102 79.5011 22.9431 79.4021 22.9941 79.3123C23.0451 79.2225 23.1133 79.1437 23.1948 79.0802C23.2763 79.0168 23.3695 78.97 23.469 78.9426C23.5686 78.9152 23.6726 78.9077 23.7751 78.9204C23.8776 78.9332 23.9765 78.966 24.0663 79.0171L43.3664 89.6228L50.8098 56.7489C50.8356 56.6324 50.8879 56.5234 50.9626 56.4303C51.0373 56.3373 51.1325 56.2627 51.2407 56.2123C51.3489 56.162 51.4673 56.1372 51.5866 56.14C51.7059 56.1428 51.8229 56.173 51.9287 56.2283L72.3398 66.8418L81.4383 58.4272C84.9813 37.5421 91.7565 15.9732 91.8264 15.7556C91.8836 15.5776 92.0031 15.4262 92.1629 15.3291C92.3228 15.2321 92.5123 15.1959 92.6966 15.2273L124.017 20.6273C124.198 20.6566 124.363 20.7492 124.482 20.8886C124.602 21.028 124.668 21.2052 124.669 21.3887Z" fill="#DFA857"/>
<path d="M140.955 10.8929C137.797 7.77394 133.515 6.02197 129.051 6.02197C124.587 6.02197 120.305 7.77394 117.147 10.8929C114.052 14.0065 112.317 18.1973 112.317 22.5628C112.317 26.9284 114.052 31.1192 117.147 34.2328L128.953 45.9028L140.758 34.2328C143.88 31.1448 145.65 26.9682 145.686 22.6026C145.723 18.2371 144.024 14.0319 140.955 10.8929ZM134.344 27.8921C133.297 28.9241 131.965 29.6264 130.515 29.9103C129.065 30.1941 127.563 30.0468 126.198 29.4869C124.832 28.927 123.666 27.9797 122.845 26.7646C122.024 25.5495 121.586 24.1212 121.586 22.6601C121.586 21.199 122.024 19.7707 122.845 18.5556C123.666 17.3405 124.832 16.3932 126.198 15.8333C127.563 15.2734 129.065 15.1261 130.515 15.4099C131.965 15.6938 133.297 16.3961 134.344 17.4281C135.059 18.1199 135.627 18.946 136.015 19.8578C136.403 20.7696 136.602 21.7488 136.602 22.7379C136.602 23.727 136.403 24.7062 136.015 25.618C135.627 26.5298 135.059 27.3559 134.344 28.0477V27.8921Z" fill="#DFA857"/>
</svg>
