<svg width="110" height="213" viewBox="0 0 110 213" fill="none" xmlns="http://www.w3.org/2000/svg">
<path d="M0.180908 55.2871C0.180908 25.1415 24.6187 0.703613 54.7644 0.703613C84.91 0.703613 109.348 25.1415 109.348 55.2871V212.52H0.180908V55.2871Z" fill="url(#paint0_linear_32_3648)"/>
<path d="M84.8058 100.451V66.5491C84.7997 66.1757 84.719 65.8072 84.5684 65.4654C84.4178 65.1236 84.2003 64.8154 83.9287 64.5589L56.9425 40.0352C56.445 39.58 55.7952 39.3276 55.1209 39.3276C54.4467 39.3276 53.7968 39.58 53.2993 40.0352L26.3131 64.5589C26.0352 64.8103 25.8134 65.1175 25.6623 65.4605C25.5112 65.8034 25.4341 66.1744 25.4361 66.5491V100.451" stroke="#FFBB50" stroke-width="2.44404" stroke-linecap="round" stroke-linejoin="round"/>
<path d="M17.2893 100.451H92.8507" stroke="#FFBB50" stroke-width="2.44404" stroke-linecap="round" stroke-linejoin="round"/>
<path d="M62.8093 100.451V81.5604C62.8093 80.8447 62.525 80.1583 62.0189 79.6522C61.5128 79.1461 60.8264 78.8618 60.1107 78.8618H49.3162C48.6005 78.8618 47.9141 79.1461 47.408 79.6522C46.9019 80.1583 46.6176 80.8447 46.6176 81.5604V100.451" stroke="#FFBB50" stroke-width="2.44404" stroke-linecap="round" stroke-linejoin="round"/>
<circle cx="54.7644" cy="43.0664" r="21.1816" fill="white"/>
<path d="M50.8102 43.5441C51.7231 45.4293 53.2475 46.9498 55.135 47.8578C55.2743 47.9237 55.4283 47.9523 55.5819 47.9406C55.7355 47.9289 55.8834 47.8775 56.0111 47.7913L58.7834 45.9394C58.9059 45.8563 59.0474 45.8056 59.1948 45.792C59.3422 45.7785 59.4906 45.8025 59.6262 45.8618L64.8159 48.0907C64.9933 48.1645 65.1415 48.2946 65.2377 48.4609C65.3339 48.6272 65.3727 48.8205 65.3482 49.0111C65.1837 50.2949 64.5571 51.4749 63.5855 52.3301C62.614 53.1853 61.3641 53.6572 60.0697 53.6575C56.0699 53.6575 52.2339 52.0686 49.4056 49.2403C46.5773 46.412 44.9884 42.576 44.9884 38.5761C44.9887 37.2818 45.4606 36.0319 46.3158 35.0604C47.171 34.0888 48.3509 33.4622 49.6348 33.2977C49.8253 33.2732 50.0187 33.312 50.185 33.4082C50.3513 33.5044 50.4814 33.6526 50.5552 33.83L52.7841 39.0308C52.8421 39.1643 52.8663 39.3099 52.8547 39.455C52.8431 39.6 52.796 39.7399 52.7176 39.8625L50.8657 42.6792C50.7832 42.8065 50.7349 42.953 50.7251 43.1044C50.7154 43.2558 50.7447 43.4072 50.8102 43.5441V43.5441Z" stroke="#3B3A5D" stroke-width="1.62936" stroke-linecap="round" stroke-linejoin="round"/>
<defs>
<linearGradient id="paint0_linear_32_3648" x1="54.7644" y1="0.703613" x2="54.7644" y2="212.52" gradientUnits="userSpaceOnUse">
<stop stop-color="#FFE5BB"/>
<stop offset="1" stop-color="white" stop-opacity="0"/>
</linearGradient>
</defs>
</svg>
