<svg width="133" height="112" viewBox="0 0 133 112" fill="none" xmlns="http://www.w3.org/2000/svg">
<path d="M100.848 17.764C100.848 17.764 113.619 10.5617 115.48 11.2578C117.341 11.954 113.851 26.122 113.387 27.0502C112.923 27.9784 100.848 17.764 100.848 17.764Z" fill="#DFA857" stroke="#B97756" stroke-width="0.813894" stroke-linecap="round" stroke-linejoin="round"/>
<path d="M114.78 13.1182C114.78 13.1182 114.226 13.9794 113.521 15.2199C112.29 17.3887 110.603 20.7176 110.603 22.6409C110.603 25.6574 112.459 25.4254 112.923 23.0871L114.547 16.3489" stroke="#B97756" stroke-width="0.813894" stroke-linecap="round" stroke-linejoin="round"/>
<path d="M7.43253 55.5513C10.9346 55.5513 13.7736 51.8553 13.7736 47.2959C13.7736 42.7366 10.9346 39.0405 7.43253 39.0405C3.93047 39.0405 1.09149 42.7366 1.09149 47.2959C1.09149 51.8553 3.93047 55.5513 7.43253 55.5513Z" fill="#DFA857" stroke="#B97756" stroke-width="0.813894" stroke-linecap="round" stroke-linejoin="round"/>
<path d="M64.908 106.534C98.2774 106.534 125.329 83.6323 125.329 55.3817C125.329 27.1311 98.2774 4.22949 64.908 4.22949C31.5386 4.22949 4.48737 27.1311 4.48737 55.3817C4.48737 83.6323 31.5386 106.534 64.908 106.534Z" fill="#DFA857" stroke="#B97756" stroke-width="0.813894" stroke-linecap="round" stroke-linejoin="round"/>
<path d="M104.15 90.6431C93.8866 98.8182 80.0979 103.829 64.9079 103.829C37.799 103.829 15.09 87.8675 9.18176 66.4392" fill="#DFA857"/>
<path d="M104.15 90.6431C93.8866 98.8182 80.0979 103.829 64.9079 103.829C37.799 103.829 15.09 87.8675 9.18176 66.4392" stroke="#B97756" stroke-width="1.62779" stroke-linecap="round" stroke-linejoin="round"/>
<path d="M7.71813 56.9878C7.69582 56.4568 7.68689 55.9213 7.68689 55.3814C7.68837 49.5399 8.91357 43.7634 11.2836 38.4243" fill="#DFA857"/>
<path d="M7.71813 56.9878C7.69582 56.4568 7.68689 55.9213 7.68689 55.3814C7.68837 49.5399 8.91357 43.7634 11.2836 38.4243" stroke="#B97756" stroke-width="1.62779" stroke-linecap="round" stroke-linejoin="round"/>
<path d="M46.7639 9.86104C58.6537 6.49944 71.2425 6.49944 83.1323 9.86104" stroke="#B97756" stroke-width="4.06947" stroke-linecap="round" stroke-linejoin="round"/>
<path d="M121.982 39.5941C121.982 39.5941 129.648 37.0372 130.808 38.4339C131.969 39.8306 131.969 56.0826 131.04 59.1037C130.112 62.1247 123.838 61.4241 119.438 58.1755C118.177 57.2897 117.156 56.1039 116.467 54.7251C115.778 53.3462 115.444 51.8176 115.493 50.2771" fill="#DFA857"/>
<path d="M121.982 39.5941C121.982 39.5941 129.648 37.0372 130.808 38.4339C131.969 39.8306 131.969 56.0826 131.04 59.1037C130.112 62.1247 123.838 61.4241 119.438 58.1755C118.177 57.2897 117.156 56.1039 116.467 54.7251C115.778 53.3462 115.444 51.8176 115.493 50.2771" stroke="#B97756" stroke-width="0.813894" stroke-linecap="round" stroke-linejoin="round"/>
<path d="M117.336 49.5803L112.691 50.2765" stroke="#B97756" stroke-width="0.813894" stroke-linecap="round" stroke-linejoin="round"/>
<path d="M116.176 54.6899C116.176 54.6899 115.016 62.8204 116.408 63.0524C117.801 63.2845 120.125 59.1032 120.125 59.1032C120.125 59.1032 116.872 55.3861 116.176 54.6899Z" fill="#263238" stroke="#B97756" stroke-width="0.813894" stroke-linecap="round" stroke-linejoin="round"/>
<path d="M111.95 35.6491C112.397 37.3225 112.124 38.8397 111.379 39.0316C110.634 39.2235 109.683 38.0186 109.251 36.3542C108.818 34.6897 109.077 33.1636 109.822 32.9717C110.567 32.7798 111.522 33.9713 111.95 35.6491Z" fill="#263238"/>
<path d="M87.5456 13.1408C87.5456 13.1408 102.16 -1.47351 105.011 1.37795C107.863 4.22941 106.796 16.7062 106.796 18.4912V23.4801" fill="#DFA857"/>
<path d="M87.5456 13.1408C87.5456 13.1408 102.16 -1.47351 105.011 1.37795C107.863 4.22941 106.796 16.7062 106.796 18.4912V23.4801" stroke="#B97756" stroke-width="0.813894" stroke-linecap="round" stroke-linejoin="round"/>
<path d="M105.493 4.52377C105.493 4.52377 105.725 0.806606 104.097 3.13151C102.468 5.4564 97.827 21.4763 99.2193 23.3372C100.612 25.198 104.574 24.2653 105.493 20.7802C106.413 17.2951 105.725 7.30829 105.725 7.30829" stroke="#B97756" stroke-width="0.813894" stroke-linecap="round" stroke-linejoin="round"/>
<path d="M25.4962 89.2871L33.4928 110.898H42.3194L46.2641 99.7469" fill="#DFA857"/>
<path d="M25.4962 89.2871L33.4928 110.898H42.3194L46.2641 99.7469" stroke="#B97756" stroke-width="0.813894" stroke-linecap="round" stroke-linejoin="round"/>
<path d="M99.2193 92.085L91.5574 110.898H82.7308L78.7816 99.7469" fill="#DFA857"/>
<path d="M99.2193 92.085L91.5574 110.898H82.7308L78.7816 99.7469" stroke="#B97756" stroke-width="0.813894" stroke-linecap="round" stroke-linejoin="round"/>
<path d="M61.9583 80.7189V76.2074C58.6294 76.0765 56.1409 75.01 54.4928 73.0079C52.8447 71.0057 51.9522 68.016 51.8154 64.0385L58.6562 62.8738C58.6855 64.2369 58.856 65.5933 59.1649 66.9212C59.345 67.8276 59.7728 68.6664 60.401 69.3443C60.6846 69.6142 61.0195 69.8244 61.3859 69.9624C61.7524 70.1003 62.1428 70.1633 62.534 70.1475C63.5336 70.1475 64.2208 69.8262 64.5956 69.1747C64.9767 68.4938 65.1692 67.7236 65.1534 66.9435C65.2039 65.4775 64.8053 64.0311 64.011 62.7979C63.1228 61.5422 62.0725 60.4094 60.8874 59.4289L56.7641 55.8857C55.8646 55.0508 55.0223 54.1563 54.2429 53.2083C53.4781 52.2737 52.8748 51.218 52.4579 50.0846C51.9943 48.7605 51.7721 47.364 51.802 45.9614C51.802 42.927 52.6677 40.5604 54.3991 38.8618C56.1305 37.1631 58.4494 36.2007 61.3559 35.9746V31.7041H63.721V36.0192C65.2273 36.0496 66.7018 36.4577 68.0093 37.2062C69.0692 37.8464 69.9467 38.7485 70.5573 39.8256C71.1478 40.9041 71.5721 42.0655 71.8157 43.2706C72.0622 44.4591 72.2203 45.6643 72.2887 46.8762L65.3542 47.8936C65.3344 46.8289 65.2375 45.7671 65.0642 44.7164C64.9545 43.9338 64.6473 43.1921 64.1717 42.5611C63.9316 42.2925 63.63 42.086 63.2927 41.9594C62.9555 41.8327 62.5926 41.7896 62.235 41.8337C61.8301 41.828 61.4301 41.9223 61.0704 42.1084C60.7108 42.2944 60.4026 42.5664 60.1734 42.9002C59.7069 43.5685 59.4605 44.3656 59.4683 45.1805C59.4098 46.4575 59.7875 47.7165 60.5393 48.7504C61.2772 49.6856 62.0874 50.5614 62.9624 51.3698L66.9785 54.8594C68.0589 55.8348 69.0587 56.8958 69.9683 58.0321C70.8775 59.1714 71.6129 60.4391 72.1504 61.7939C72.7224 63.2993 72.9997 64.9006 72.967 66.5106C72.9881 68.1296 72.6306 69.731 71.9228 71.1872C71.2466 72.5766 70.2093 73.7587 68.9196 74.6099C67.5307 75.508 65.9375 76.0406 64.2877 76.1583V80.7189H61.9583Z" fill="#BD714C"/>
<path opacity="0.35" d="M90.3838 74.7538C98.4082 74.7538 104.913 68.4545 104.913 60.6839C104.913 52.9133 98.4082 46.614 90.3838 46.614C82.3593 46.614 75.8542 52.9133 75.8542 60.6839C75.8542 68.4545 82.3593 74.7538 90.3838 74.7538Z" fill="white"/>
</svg>
