<svg width="394" height="277" viewBox="0 0 394 277" fill="none" xmlns="http://www.w3.org/2000/svg">
<path opacity="0.7" d="M193.672 35.3462C193.672 35.3462 146.717 21.5179 100.338 49.4878C53.9582 77.4577 30.3434 129.606 10.0592 171.456C-10.225 213.305 1.01348 254.292 36.1544 271.508C71.2953 288.725 95.4599 259.617 144.94 255.82C194.42 252.022 207.678 258.198 248.905 229.224C290.132 200.25 297.976 136.23 265.903 90.7235C233.831 45.2172 193.672 35.3462 193.672 35.3462Z" fill="#FFF1EA"/>
<path d="M51.4681 31.2481C50.4994 30.4209 49.3325 29.8595 48.0817 29.6188C46.8308 29.3781 45.5389 29.4664 44.3324 29.8751C43.1259 30.2837 42.0462 30.9987 41.1991 31.95C40.352 32.9012 39.7664 34.0562 39.4998 35.3018C38.8941 34.7053 38.1404 34.2808 37.3164 34.072C36.4923 33.8632 35.6275 33.8777 34.8108 34.1138C33.9941 34.3499 33.2551 34.7993 32.6696 35.4156C32.0841 36.032 31.6733 36.7932 31.4794 37.6209C31.2147 37.2635 30.8697 36.9732 30.4723 36.7734C30.0749 36.5736 29.6362 36.4699 29.1914 36.4707C28.6995 36.4719 28.216 36.5982 27.7863 36.8375C27.6475 35.5209 27.0465 34.2962 26.0899 33.381C25.1334 32.4658 23.8833 31.9194 22.5619 31.8388C21.2405 31.7583 19.9334 32.1489 18.8728 32.9411C17.8122 33.7334 17.0668 34.8761 16.7692 36.166C16.2581 35.6639 15.6101 35.3238 14.9065 35.1886C14.2029 35.0534 13.475 35.129 12.8142 35.4059C12.1534 35.6829 11.5891 36.1488 11.1922 36.7453C10.7952 37.3417 10.5833 38.0422 10.5829 38.7586C10.5799 38.8021 10.5799 38.8457 10.5829 38.8892H62.9329C62.7561 38.6042 62.5212 38.3596 62.2436 38.1714C61.966 37.9832 61.6518 37.8556 61.3215 37.7969C60.9913 37.7383 60.6524 37.7498 60.3269 37.8309C60.0014 37.912 59.6967 38.0607 59.4325 38.2675C59.1816 37.5245 58.7029 36.8795 58.0645 36.4242C57.4261 35.9688 56.6604 35.7262 55.8762 35.7308C55.2232 35.73 54.5809 35.897 54.011 36.2158C53.9625 35.6662 53.852 35.1239 53.6815 34.5992" stroke="#C17D5B" stroke-width="0.813894" stroke-miterlimit="10"/>
<path d="M182.53 75.9924H75.7554V233.651H182.53V75.9924Z" fill="#C17D5B" stroke="#C17D5B" stroke-width="0.813894" stroke-linecap="round" stroke-linejoin="round"/>
<path d="M175.661 83.636H82.6244V226.18H175.661V83.636Z" fill="#DFA857" stroke="#C17D5B" stroke-width="0.813894" stroke-linecap="round" stroke-linejoin="round"/>
<path d="M110.82 71.1184H147.466C148.841 71.1184 150.16 71.6649 151.133 72.6376C152.106 73.6104 152.652 74.9297 152.652 76.3054V87.3443H105.633V76.3445C105.628 75.66 105.759 74.9813 106.017 74.3475C106.275 73.7137 106.656 73.1372 107.139 72.6514C107.621 72.1656 108.194 71.7801 108.826 71.5169C109.458 71.2538 110.136 71.1184 110.82 71.1184Z" fill="#C17D5B" stroke="#C17D5B" stroke-width="0.813894" stroke-linecap="round" stroke-linejoin="round"/>
<path d="M125.974 64.484H132.233C132.973 64.4757 133.706 64.6147 134.391 64.8928C135.077 65.171 135.699 65.5828 136.224 66.1042C136.748 66.6256 137.163 67.2462 137.445 67.9298C137.727 68.6133 137.87 69.3462 137.866 70.0856V71.1027H120.428V70.0856C120.423 69.3535 120.564 68.6277 120.84 67.9497C121.117 67.2718 121.525 66.6551 122.04 66.1349C122.555 65.6146 123.168 65.201 123.843 64.9177C124.518 64.6345 125.242 64.4871 125.974 64.484Z" fill="#C17D5B" stroke="#C17D5B" stroke-width="0.813894" stroke-linecap="round" stroke-linejoin="round"/>
<path d="M164.406 101.812L164.358 101.053L163.603 100.919C158.325 99.9774 156.121 99.2971 151.196 97.0862L150.794 96.9043L150.391 97.0862C145.466 99.2971 143.262 99.9774 137.984 100.919L137.229 101.053L137.181 101.812C136.946 105.518 137.447 108.971 138.672 112.075C139.675 114.607 141.159 116.923 143.044 118.897C146.307 122.337 149.771 123.831 150.432 124.096L150.798 124.242L151.164 124.096C151.825 123.831 155.289 122.337 158.552 118.897C160.433 116.922 161.915 114.606 162.915 112.075C164.14 108.971 164.641 105.518 164.406 101.812ZM148.973 114.91L144.531 110.583L145.898 109.197L148.855 112.076L155.576 104.363L157.053 105.633L148.973 114.91Z" fill="#BD6C43"/>
<path d="M90.667 105.769H126.968" stroke="#C17D5B" stroke-width="0.813894" stroke-linecap="round" stroke-linejoin="round"/>
<path d="M90.667 113.295H126.968" stroke="#C17D5B" stroke-width="0.813894" stroke-linecap="round" stroke-linejoin="round"/>
<path d="M90.667 138.087H167.251" stroke="#C17D5B" stroke-width="0.813894" stroke-linecap="round" stroke-linejoin="round"/>
<path d="M99.9691 145.168H91.1129V154.462H99.9691V145.168Z" stroke="#C17D5B" stroke-width="0.813894" stroke-linecap="round" stroke-linejoin="round"/>
<path d="M141.136 145.168H132.28V154.462H141.136V145.168Z" stroke="#C17D5B" stroke-width="0.813894" stroke-linecap="round" stroke-linejoin="round"/>
<path d="M103.505 154.462H125.2" stroke="#C17D5B" stroke-width="0.813894" stroke-linecap="round" stroke-linejoin="round"/>
<path d="M144.672 154.462H166.367" stroke="#C17D5B" stroke-width="0.813894" stroke-linecap="round" stroke-linejoin="round"/>
<path d="M99.9691 163.318H91.1129V172.613H99.9691V163.318Z" stroke="#C17D5B" stroke-width="0.813894" stroke-linecap="round" stroke-linejoin="round"/>
<path d="M141.136 163.318H132.28V172.613H141.136V163.318Z" stroke="#C17D5B" stroke-width="0.813894" stroke-linecap="round" stroke-linejoin="round"/>
<path d="M103.505 172.612H125.2" stroke="#C17D5B" stroke-width="0.813894" stroke-linecap="round" stroke-linejoin="round"/>
<path d="M144.672 172.612H166.367" stroke="#C17D5B" stroke-width="0.813894" stroke-linecap="round" stroke-linejoin="round"/>
<path d="M99.9691 181.469H91.1129V190.763H99.9691V181.469Z" stroke="#C17D5B" stroke-width="0.813894" stroke-linecap="round" stroke-linejoin="round"/>
<path d="M141.136 181.469H132.28V190.763H141.136V181.469Z" stroke="#C17D5B" stroke-width="0.813894" stroke-linecap="round" stroke-linejoin="round"/>
<path d="M103.505 190.763H125.2" stroke="#C17D5B" stroke-width="0.813894" stroke-linecap="round" stroke-linejoin="round"/>
<path d="M144.672 190.763H166.367" stroke="#C17D5B" stroke-width="0.813894" stroke-linecap="round" stroke-linejoin="round"/>
<path d="M99.9691 199.619H91.1129V208.913H99.9691V199.619Z" stroke="#C17D5B" stroke-width="0.813894" stroke-linecap="round" stroke-linejoin="round"/>
<path d="M141.136 199.619H132.28V208.913H141.136V199.619Z" stroke="#C17D5B" stroke-width="0.813894" stroke-linecap="round" stroke-linejoin="round"/>
<path d="M103.505 208.914H125.2" stroke="#C17D5B" stroke-width="0.813894" stroke-linecap="round" stroke-linejoin="round"/>
<path d="M144.672 208.914H166.367" stroke="#C17D5B" stroke-width="0.813894" stroke-linecap="round" stroke-linejoin="round"/>
<path d="M95.856 261.388H46.0857V207.345L69.4699 183.152L95.856 207.345V261.388Z" fill="#DFA857" stroke="#C17D5B" stroke-width="0.813894" stroke-linecap="round" stroke-linejoin="round"/>
<path d="M259.084 261.388H139.817V145.85L208.651 117.11L259.084 145.85V261.388Z" fill="#DFA857" stroke="#C17D5B" stroke-width="0.813894" stroke-linecap="round" stroke-linejoin="round"/>
<path d="M155.733 197.158H93.647V261.461H155.733V197.158Z" fill="#DFA857" stroke="#C17D5B" stroke-width="0.813894" stroke-linecap="round" stroke-linejoin="round"/>
<path d="M227.398 207.345H193.293V261.46H227.398V207.345Z" fill="#DFA857" stroke="#C17D5B" stroke-width="0.813894" stroke-linecap="round" stroke-linejoin="round"/>
<path d="M216.58 214.983H200.931V261.461H216.58V214.983Z" fill="#DFA857" stroke="#C17D5B" stroke-width="0.813894" stroke-linecap="round" stroke-linejoin="round"/>
<path d="M214.112 214.983H203.399V261.461H214.112V214.983Z" fill="#C17D5B" stroke="#C17D5B" stroke-width="0.813894" stroke-linecap="round" stroke-linejoin="round"/>
<path d="M214.112 256.525H184.789V259.51H214.112V256.525Z" fill="#DFA857" stroke="#C17D5B" stroke-width="0.813894" stroke-linecap="round" stroke-linejoin="round"/>
<path d="M216.58 214.983H200.931V218.803H216.58V214.983Z" fill="#DFA857" stroke="#C17D5B" stroke-width="0.813894" stroke-linecap="round" stroke-linejoin="round"/>
<path d="M84.0992 214.983H58.9996V261.461H84.0992V214.983Z" fill="#DFA857" stroke="#C17D5B" stroke-width="0.813894" stroke-linecap="round" stroke-linejoin="round"/>
<path d="M80.1344 214.983H62.9482V261.461H80.1344V214.983Z" fill="#C17D5B" stroke="#C17D5B" stroke-width="0.813894" stroke-linecap="round" stroke-linejoin="round"/>
<path d="M84.0992 214.983H58.9996V218.803H84.0992V214.983Z" fill="#DFA857" stroke="#C17D5B" stroke-width="0.813894" stroke-linecap="round" stroke-linejoin="round"/>
<path d="M173.129 206.253H153.184V242.357H173.129V206.253Z" fill="#DFA857" stroke="#C17D5B" stroke-width="0.813894" stroke-linecap="round" stroke-linejoin="round"/>
<path d="M321.89 261.388H236.161V145.85L278.52 117.11L321.89 145.85V261.388Z" fill="#DFA857" stroke="#C17D5B" stroke-width="0.813894" stroke-linecap="round" stroke-linejoin="round"/>
<path d="M322.966 146.231L278.439 117.344L235.805 146.481V149.297L278.746 120.16L322.966 149.046V146.231Z" fill="#DFA857" stroke="#C17D5B" stroke-width="0.813894" stroke-linecap="round" stroke-linejoin="round"/>
<path d="M267.572 124.538L231.185 182.723L236.161 183.362L274.037 121.277L321.89 191.874L324.439 191.769L276.699 118.348L267.572 124.538Z" fill="#C17D5B" stroke="#C17D5B" stroke-width="0.813894" stroke-linecap="round" stroke-linejoin="round"/>
<path d="M236.161 145.85H134.719L174.82 117.11L278.439 117.692L236.161 145.85Z" fill="#C17D5B" stroke="#C17D5B" stroke-width="0.813894" stroke-linecap="round" stroke-linejoin="round"/>
<path d="M299.258 195.701H251.163V261.388H299.258V195.701Z" fill="#FCE7DD" stroke="#C17D5B" stroke-width="0.813894" stroke-linecap="round" stroke-linejoin="round"/>
<path d="M303.077 195.701H254.982V261.388H303.077V195.701Z" fill="#DFA857" stroke="#C17D5B" stroke-width="0.813894" stroke-linecap="round" stroke-linejoin="round"/>
<path d="M295.771 205.67H262.28V240.269H295.771V205.67Z" fill="#DFA857" stroke="#C17D5B" stroke-width="1.62779" stroke-linecap="round" stroke-linejoin="round"/>
<path d="M286.069 205.67H271.99V240.269H286.069V205.67Z" fill="#DFA857" stroke="#C17D5B" stroke-width="1.62779" stroke-linecap="round" stroke-linejoin="round"/>
<path d="M304.534 192.764H245.887V198.63H304.534V192.764Z" fill="#FCE7DD" stroke="#C17D5B" stroke-width="0.813894" stroke-linecap="round" stroke-linejoin="round"/>
<path d="M308.353 192.764H249.706V198.63H308.353V192.764Z" fill="#DFA857" stroke="#C17D5B" stroke-width="0.813894" stroke-linecap="round" stroke-linejoin="round"/>
<path d="M218.126 206.253H215.148V237.923H218.126V206.253Z" fill="#DFA857" stroke="#C17D5B" stroke-width="0.813894" stroke-linecap="round" stroke-linejoin="round"/>
<path d="M226.419 206.253H223.442V237.923H226.419V206.253Z" fill="#DFA857" stroke="#C17D5B" stroke-width="0.813894" stroke-linecap="round" stroke-linejoin="round"/>
<path d="M219.04 237.485H214.112V241.037H219.04V237.485Z" fill="#DFA857" stroke="#C17D5B" stroke-width="0.813894" stroke-linecap="round" stroke-linejoin="round"/>
<path d="M227.39 237.485H222.463V241.037H227.39V237.485Z" fill="#DFA857" stroke="#C17D5B" stroke-width="0.813894" stroke-linecap="round" stroke-linejoin="round"/>
<path d="M219.04 209.417H214.112V211.415H219.04V209.417Z" fill="#DFA857" stroke="#C17D5B" stroke-width="0.813894" stroke-linecap="round" stroke-linejoin="round"/>
<path d="M227.39 209.417H222.463V211.415H227.39V209.417Z" fill="#DFA857" stroke="#C17D5B" stroke-width="0.813894" stroke-linecap="round" stroke-linejoin="round"/>
<path d="M229.17 240.739H211.75V261.388H229.17V240.739Z" fill="#DFA857" stroke="#C17D5B" stroke-width="0.813894" stroke-linecap="round" stroke-linejoin="round"/>
<path d="M176.107 206.253H173.129V237.923H176.107V206.253Z" fill="#DFA857" stroke="#C17D5B" stroke-width="0.813894" stroke-linecap="round" stroke-linejoin="round"/>
<path d="M184.4 206.253H181.423V237.923H184.4V206.253Z" fill="#DFA857" stroke="#C17D5B" stroke-width="0.813894" stroke-linecap="round" stroke-linejoin="round"/>
<path d="M177.021 237.485H172.093V241.037H177.021V237.485Z" fill="#DFA857" stroke="#C17D5B" stroke-width="0.813894" stroke-linecap="round" stroke-linejoin="round"/>
<path d="M185.371 237.485H180.444V241.037H185.371V237.485Z" fill="#DFA857" stroke="#C17D5B" stroke-width="0.813894" stroke-linecap="round" stroke-linejoin="round"/>
<path d="M177.021 209.417H172.093V211.415H177.021V209.417Z" fill="#DFA857" stroke="#C17D5B" stroke-width="0.813894" stroke-linecap="round" stroke-linejoin="round"/>
<path d="M185.371 209.417H180.444V211.415H185.371V209.417Z" fill="#DFA857" stroke="#C17D5B" stroke-width="0.813894" stroke-linecap="round" stroke-linejoin="round"/>
<path d="M187.16 240.739H169.739V261.388H187.16V240.739Z" fill="#DFA857" stroke="#C17D5B" stroke-width="0.813894" stroke-linecap="round" stroke-linejoin="round"/>
<path d="M170.168 240.739H148.928V261.388H170.168V240.739Z" fill="#DFA857" stroke="#C17D5B" stroke-width="0.813894" stroke-linecap="round" stroke-linejoin="round"/>
<path d="M229.178 209.19H163.492L174.634 203.323H229.178V209.19Z" fill="#DFA857" stroke="#C17D5B" stroke-width="0.813894" stroke-linecap="round" stroke-linejoin="round"/>
<path d="M262.604 214.466H295.447" stroke="#C17D5B" stroke-width="0.813894" stroke-linecap="round" stroke-linejoin="round"/>
<path d="M262.604 222.678H295.447" stroke="#C17D5B" stroke-width="0.813894" stroke-linecap="round" stroke-linejoin="round"/>
<path d="M262.604 230.891H295.447" stroke="#C17D5B" stroke-width="0.813894" stroke-linecap="round" stroke-linejoin="round"/>
<path d="M66.5651 182.035L42.7601 207.855H44.7506L68.1267 183.152L66.5651 182.035Z" fill="#C17D5B" stroke="#C17D5B" stroke-width="0.813894" stroke-linecap="round" stroke-linejoin="round"/>
<path d="M91.7375 206.706H157.003L205.899 182.035H66.5651L91.7375 206.706Z" fill="#C17D5B" stroke="#C17D5B" stroke-width="0.813894" stroke-linecap="round" stroke-linejoin="round"/>
<path d="M239.875 182.035H202.08L134.719 206.706H168.46L239.875 182.035Z" fill="#C17D5B" stroke="#C17D5B" stroke-width="0.813894" stroke-linecap="round" stroke-linejoin="round"/>
<path d="M324.439 184.778L280.041 116.656C279.867 116.383 279.625 116.158 279.339 116.005C279.054 115.851 278.734 115.772 278.409 115.777C278.085 115.782 277.767 115.87 277.486 116.032C277.205 116.195 276.971 116.426 276.804 116.705L236.857 182.682L159.552 207.555V211.544L238.67 186.129C239.115 185.999 239.497 185.712 239.746 185.32L278.496 121.301L324.439 191.793V184.778Z" fill="#DFA857" stroke="#C17D5B" stroke-width="0.813894" stroke-linecap="round" stroke-linejoin="round"/>
<path d="M224.291 150.147H210.803V172.431H224.291V150.147Z" stroke="#C17D5B" stroke-width="1.62779" stroke-linecap="round" stroke-linejoin="round"/>
<path d="M217.543 150.737V171.848" stroke="#C17D5B" stroke-width="0.813894" stroke-linecap="round" stroke-linejoin="round"/>
<path d="M223.992 161.289H211.094" stroke="#C17D5B" stroke-width="0.813894" stroke-linecap="round" stroke-linejoin="round"/>
<path d="M129.371 215.299H115.882V237.583H129.371V215.299Z" stroke="#C17D5B" stroke-width="1.62779" stroke-linecap="round" stroke-linejoin="round"/>
<path d="M122.622 215.882V237" stroke="#C17D5B" stroke-width="0.813894" stroke-linecap="round" stroke-linejoin="round"/>
<path d="M129.079 226.441H116.174" stroke="#C17D5B" stroke-width="0.813894" stroke-linecap="round" stroke-linejoin="round"/>
<path d="M284.71 149.726H271.222V172.01H284.71V149.726Z" stroke="#C17D5B" stroke-width="1.62779" stroke-linecap="round" stroke-linejoin="round"/>
<path d="M277.962 150.308V171.427" stroke="#C17D5B" stroke-width="0.813894" stroke-linecap="round" stroke-linejoin="round"/>
<path d="M284.411 160.868H271.513" stroke="#C17D5B" stroke-width="0.813894" stroke-linecap="round" stroke-linejoin="round"/>
<path d="M195.453 150.147H181.965V172.431H195.453V150.147Z" stroke="#C17D5B" stroke-width="1.62779" stroke-linecap="round" stroke-linejoin="round"/>
<path d="M188.705 150.737V171.848" stroke="#C17D5B" stroke-width="0.813894" stroke-linecap="round" stroke-linejoin="round"/>
<path d="M195.162 161.289H182.256" stroke="#C17D5B" stroke-width="0.813894" stroke-linecap="round" stroke-linejoin="round"/>
<path d="M166.616 150.147H153.127V172.431H166.616V150.147Z" stroke="#C17D5B" stroke-width="1.62779" stroke-linecap="round" stroke-linejoin="round"/>
<path d="M159.875 150.737V171.848" stroke="#C17D5B" stroke-width="0.813894" stroke-linecap="round" stroke-linejoin="round"/>
<path d="M166.324 161.289H153.418" stroke="#C17D5B" stroke-width="0.813894" stroke-linecap="round" stroke-linejoin="round"/>
<path d="M106.707 197.797H99.0683L90.1597 188.88H97.798L106.707 197.797Z" fill="#DFA857"/>
<path d="M130.261 197.797H122.622L113.714 188.88H121.352L130.261 197.797Z" fill="#DFA857"/>
<path d="M66.5894 221.982H63.8221V230.899H66.5894V221.982Z" fill="#AC7055" stroke="#C17D5B" stroke-width="0.813894" stroke-linecap="round" stroke-linejoin="round"/>
<path d="M69.6641 221.982H66.8968V230.899H69.6641V221.982Z" fill="#AC7055" stroke="#C17D5B" stroke-width="0.813894" stroke-linecap="round" stroke-linejoin="round"/>
<path d="M72.7469 221.982H69.9716V230.899H72.7469V221.982Z" fill="#AC7055" stroke="#C17D5B" stroke-width="0.813894" stroke-linecap="round" stroke-linejoin="round"/>
<path d="M75.8297 221.982H73.0544V230.899H75.8297V221.982Z" fill="#AC7055" stroke="#C17D5B" stroke-width="0.813894" stroke-linecap="round" stroke-linejoin="round"/>
<path d="M78.8964 221.982H76.1292V230.899H78.8964V221.982Z" fill="#AC7055" stroke="#C17D5B" stroke-width="0.813894" stroke-linecap="round" stroke-linejoin="round"/>
<path d="M159.552 207.054H91.0983V211.545H159.552V207.054Z" fill="#DFA857" stroke="#C17D5B" stroke-width="0.813894" stroke-linecap="round" stroke-linejoin="round"/>
<path d="M159.552 207.054H133.861V211.545H159.552V207.054Z" fill="#FCE7DD" stroke="#C17D5B" stroke-width="0.813894" stroke-linecap="round" stroke-linejoin="round"/>
<path d="M91.0983 207.054L66.5651 182.035L42.7601 207.855H46.0857L66.6541 185.927L91.0983 211.545V207.054Z" fill="#FCE7DD" stroke="#C17D5B" stroke-width="0.813894" stroke-linecap="round" stroke-linejoin="round"/>
<path d="M214.112 258.669H184.789V261.46H214.112V258.669Z" fill="#DFA857" stroke="#C17D5B" stroke-width="0.813894" stroke-linecap="round" stroke-linejoin="round"/>
<path d="M235.805 146.481H134.331V149.289H235.805V146.481Z" fill="#FCE7DD" stroke="#C17D5B" stroke-width="0.813894" stroke-linecap="round" stroke-linejoin="round"/>
<path d="M329.455 261.298C329.455 261.298 322.481 254.324 324.439 249.016C326.397 243.708 331.721 251.532 331.721 251.532C331.721 251.532 332.279 239.249 336.188 239.249C340.096 239.249 339.262 249.574 339.262 249.574C339.262 249.574 341.487 246.782 344.004 248.457C346.52 250.132 344.279 258.782 344.279 258.782C344.279 258.782 345.954 251.249 349.587 251.249C353.22 251.249 349.862 261.015 349.862 261.015" fill="#EAB196"/>
<path d="M327.789 261.015C327.789 261.015 323.322 254.882 324.714 253.733C326.106 252.584 328.064 255.966 328.064 255.966C328.064 255.966 326.672 247.875 331.13 247.592C335.589 247.308 333.922 257.358 333.922 257.358C333.922 257.358 336.155 251.217 338.388 252.891C340.622 254.566 339.788 259.591 339.788 259.591C339.788 259.591 340.063 255.408 342.855 255.408C345.646 255.408 347.321 258.75 347.321 258.75C347.321 258.75 349.83 254.566 351.788 255.966C353.746 257.366 351.788 261.266 351.788 261.266" stroke="#263238" stroke-width="0.813894" stroke-linecap="round" stroke-linejoin="round"/>
<path d="M241.048 261.299C241.048 261.299 236.105 256.355 237.488 252.6C238.872 248.846 242.626 254.38 242.626 254.38C242.626 254.38 243.023 245.674 245.79 245.674C248.557 245.674 247.967 252.997 247.967 252.997C247.967 252.997 249.585 251.014 251.333 252.188C253.08 253.361 251.527 259.47 251.527 259.47C251.527 259.47 252.716 254.13 255.281 254.13C257.846 254.13 255.484 261.048 255.484 261.048" fill="#EAB196"/>
<path d="M239.859 261.096C239.859 261.096 236.695 256.751 237.691 255.958C238.686 255.165 240.061 257.577 240.061 257.577C240.061 257.577 239.074 251.84 242.238 251.646C245.402 251.451 244.212 258.564 244.212 258.564C244.212 258.564 245.79 254.21 247.376 255.4C248.962 256.589 248.363 260.142 248.363 260.142C248.363 260.142 248.565 257.18 250.54 257.18C252.514 257.18 253.703 259.551 253.703 259.551C253.703 259.551 255.484 256.581 256.867 257.577C258.251 258.572 256.867 261.331 256.867 261.331" stroke="#263238" stroke-width="0.813894" stroke-linecap="round" stroke-linejoin="round"/>
<path d="M27.5887 261.299C27.5887 261.299 22.4102 256.12 23.8585 252.18C25.3069 248.239 29.2474 254.041 29.2474 254.041C29.2474 254.041 29.6682 244.93 32.5649 244.93C35.4616 244.93 34.8467 252.592 34.8467 252.592C34.8467 252.592 36.465 250.521 38.3665 251.783C40.268 253.045 38.5768 259.446 38.5768 259.446C38.5768 259.446 39.8148 253.855 42.5093 253.855C45.2037 253.855 42.7197 261.137 42.7197 261.137" fill="#EAB196"/>
<path d="M26.3508 261.088C26.3508 261.088 23.0333 256.533 24.069 255.699C25.1047 254.866 26.553 257.358 26.553 257.358C26.553 257.358 25.5173 251.354 28.8348 251.144C32.1523 250.933 30.9062 258.426 30.9062 258.426C30.9062 258.426 32.5245 253.871 34.2237 255.109C35.9229 256.347 35.2594 260.085 35.2594 260.085C35.2594 260.085 35.4698 256.978 37.5412 256.978C39.6126 256.978 40.8587 259.462 40.8587 259.462C40.8587 259.462 42.7197 256.355 44.1681 257.39C45.6164 258.426 44.1681 261.331 44.1681 261.331" stroke="#263238" stroke-width="0.813894" stroke-linecap="round" stroke-linejoin="round"/>
<path d="M38.3859 261.42H370.943" stroke="#263238" stroke-width="0.813894" stroke-linecap="round" stroke-linejoin="round"/>
<path opacity="0.3" d="M368.669 25.8476C368.669 25.8476 363.233 -0.72607 345.107 1.08891C336.871 1.90281 331.36 6.03739 326.583 12.4834C320.454 20.7119 318.257 15.9262 309.491 18.6283C301.645 21.07 302.85 27.687 298.015 28.8915C293.181 30.0961 289.567 24.6674 282.917 25.872C276.268 27.0765 272.654 33.726 272.654 33.726H393.428C393.113 31.4669 392.145 29.3489 390.643 27.6325C389.14 25.9162 387.169 24.6762 384.972 24.0651C377.126 21.6235 373.496 27.6625 368.669 25.8476Z" stroke="#B05529" stroke-width="0.813894" stroke-miterlimit="10"/>
</svg>
