<svg width="110" height="213" viewBox="0 0 110 213" fill="none" xmlns="http://www.w3.org/2000/svg">
<path d="M0.609497 55.0302C0.609497 24.8846 25.0473 0.446777 55.1929 0.446777C85.3386 0.446777 109.776 24.8846 109.776 55.0302V212.263H0.609497V55.0302Z" fill="url(#paint0_linear_32_3576)"/>
<path d="M85.2343 100.194V66.2923C85.2282 65.9188 85.1475 65.5503 84.9969 65.2085C84.8463 64.8667 84.6288 64.5585 84.3572 64.3021L57.371 39.7783C56.8735 39.3232 56.2237 39.0708 55.5494 39.0708C54.8752 39.0708 54.2253 39.3232 53.7279 39.7783L26.7417 64.3021C26.4637 64.5535 26.242 64.8607 26.0908 65.2036C25.9397 65.5466 25.8626 65.9175 25.8646 66.2923V100.194" stroke="#FFBB50" stroke-width="2.44404" stroke-linecap="round" stroke-linejoin="round"/>
<path d="M17.7178 100.194H93.2792" stroke="#FFBB50" stroke-width="2.44404" stroke-linecap="round" stroke-linejoin="round"/>
<path d="M63.2379 100.194V81.3036C63.2379 80.5879 62.9536 79.9015 62.4475 79.3954C61.9414 78.8893 61.255 78.605 60.5393 78.605H49.7448C49.0291 78.605 48.3427 78.8893 47.8366 79.3954C47.3305 79.9015 47.0462 80.5879 47.0462 81.3036V100.194" stroke="#FFBB50" stroke-width="2.44404" stroke-linecap="round" stroke-linejoin="round"/>
<circle cx="55.1931" cy="41.1807" r="21.1816" fill="white"/>
<path d="M56.0078 29.7754V33.0341" stroke="#3B3A5D" stroke-width="1.62936" stroke-linecap="round" stroke-linejoin="round"/>
<path d="M56.0078 49.3271V52.5859" stroke="#3B3A5D" stroke-width="1.62936" stroke-linecap="round" stroke-linejoin="round"/>
<path d="M61.6597 37.1076C61.6597 36.5726 61.5478 36.043 61.3303 35.5488C61.1128 35.0545 60.794 34.6055 60.3921 34.2272C59.9902 33.849 59.5131 33.549 58.988 33.3442C58.4629 33.1395 57.9001 33.0342 57.3317 33.0342H53.4366C52.2887 33.0342 51.1879 33.4633 50.3762 34.2272C49.5646 34.9912 49.1086 36.0272 49.1086 37.1076C49.1086 38.1879 49.5646 39.224 50.3762 39.9879C51.1879 40.7518 52.2887 41.181 53.4366 41.181H58.1973C59.3452 41.181 60.446 41.6101 61.2577 42.374C62.0693 43.1379 62.5253 44.174 62.5253 45.2544C62.5253 46.3347 62.0693 47.3708 61.2577 48.1347C60.446 48.8986 59.3452 49.3277 58.1973 49.3277H53.0038C51.8559 49.3277 50.7551 48.8986 49.9434 48.1347C49.1318 47.3708 48.6758 46.3347 48.6758 45.2544" stroke="#3B3A5D" stroke-width="1.62936" stroke-linecap="round" stroke-linejoin="round"/>
<defs>
<linearGradient id="paint0_linear_32_3576" x1="55.1929" y1="0.446777" x2="55.1929" y2="212.263" gradientUnits="userSpaceOnUse">
<stop stop-color="#FFE5BB"/>
<stop offset="1" stop-color="white" stop-opacity="0"/>
</linearGradient>
</defs>
</svg>
