<svg width="110" height="213" viewBox="0 0 110 213" fill="none" xmlns="http://www.w3.org/2000/svg">
<path d="M0.323669 55.0302C0.323669 24.8846 24.7615 0.446777 54.9071 0.446777C85.0527 0.446777 109.491 24.8846 109.491 55.0302V212.263H0.323669V55.0302Z" fill="url(#paint0_linear_32_3594)"/>
<path d="M84.9485 100.194V66.2923C84.9424 65.9188 84.8617 65.5503 84.7111 65.2085C84.5605 64.8667 84.343 64.5585 84.0714 64.3021L57.0852 39.7783C56.5877 39.3232 55.9379 39.0708 55.2636 39.0708C54.5894 39.0708 53.9395 39.3232 53.442 39.7783L26.4558 64.3021C26.1779 64.5535 25.9561 64.8607 25.805 65.2036C25.6539 65.5466 25.5768 65.9175 25.5788 66.2923V100.194" stroke="#FFBB50" stroke-width="2.44404" stroke-linecap="round" stroke-linejoin="round"/>
<path d="M17.4319 100.194H92.9934" stroke="#FFBB50" stroke-width="2.44404" stroke-linecap="round" stroke-linejoin="round"/>
<path d="M62.9521 100.194V81.3036C62.9521 80.5879 62.6678 79.9015 62.1617 79.3954C61.6556 78.8893 60.9692 78.605 60.2535 78.605H49.459C48.7433 78.605 48.0569 78.8893 47.5508 79.3954C47.0447 79.9015 46.7604 80.5879 46.7604 81.3036V100.194" stroke="#FFBB50" stroke-width="2.44404" stroke-linecap="round" stroke-linejoin="round"/>
<circle cx="56.5365" cy="41.9956" r="21.1816" fill="white"/>
<path d="M69.8551 42.1462L66.8924 43.6245L63.0542 36.269L66.0528 34.7666C66.2757 34.6528 66.5344 34.6319 66.7726 34.7085C67.0107 34.785 67.2091 34.9528 67.3243 35.1753L70.2749 40.8362C70.3347 40.9495 70.3714 41.0737 70.3826 41.2014C70.3938 41.3291 70.3795 41.4577 70.3404 41.5798C70.3012 41.7019 70.2382 41.8149 70.1548 41.9121C70.0715 42.0094 69.9696 42.089 69.8551 42.1462V42.1462Z" stroke="#3B3A5D" stroke-width="1.22202" stroke-linecap="round" stroke-linejoin="round"/>
<path d="M44.5513 43.6245L41.5884 42.1351C41.4743 42.0791 41.3726 42.0008 41.2894 41.9046C41.2062 41.8085 41.1431 41.6966 41.104 41.5756C41.0648 41.4546 41.0503 41.3269 41.0614 41.2002C41.0725 41.0734 41.109 40.9502 41.1686 40.8379L44.1195 35.1805C44.2349 34.9583 44.4324 34.7901 44.6699 34.7115C44.9074 34.633 45.1661 34.6504 45.391 34.7601L48.3899 36.2615L44.5513 43.6245Z" stroke="#3B3A5D" stroke-width="1.22202" stroke-linecap="round" stroke-linejoin="round"/>
<path d="M66.3128 43.7495L64.3872 46.0901L59.9583 50.6718C59.8376 50.7886 59.6913 50.8733 59.5321 50.9189C59.3728 50.9644 59.2052 50.9693 59.0436 50.9333L52.0633 49.128C51.9358 49.0912 51.817 49.0276 51.7143 48.9412L45.1312 43.625" stroke="#3B3A5D" stroke-width="1.22202" stroke-linecap="round" stroke-linejoin="round"/>
<path d="M64.6834 45.2539L59.5033 41.6694L57.9963 42.7447C57.3435 43.2084 56.5506 43.4589 55.7359 43.4589C54.9212 43.4589 54.1284 43.2084 53.4755 42.7447L52.8397 42.2855C52.7322 42.2077 52.6433 42.1091 52.5789 41.9962C52.5144 41.8833 52.4759 41.7586 52.4659 41.6305C52.4559 41.5023 52.4746 41.3736 52.5208 41.2529C52.5669 41.1321 52.6395 41.0221 52.7338 40.93L57.3488 36.5501C57.4355 36.468 57.5384 36.403 57.6515 36.3588C57.7646 36.3146 57.8858 36.2921 58.0081 36.2925H62.7997" stroke="#3B3A5D" stroke-width="1.22202" stroke-linecap="round" stroke-linejoin="round"/>
<path d="M48.3899 36.1832L54.3342 34.6939C54.5454 34.642 54.7713 34.656 54.9715 34.7336L58.9807 36.2924" stroke="#3B3A5D" stroke-width="1.22202" stroke-linecap="round" stroke-linejoin="round"/>
<defs>
<linearGradient id="paint0_linear_32_3594" x1="54.9071" y1="0.446777" x2="54.9071" y2="212.263" gradientUnits="userSpaceOnUse">
<stop stop-color="#FFE5BB"/>
<stop offset="1" stop-color="white" stop-opacity="0"/>
</linearGradient>
</defs>
</svg>
