<svg width="328" height="867" viewBox="0 0 328 867" fill="none" xmlns="http://www.w3.org/2000/svg">
<path d="M651.792 677.866C636.783 680.255 622.146 680.795 608.914 679.271C601.729 678.488 594.695 676.676 588.027 673.891C582.135 671.544 575.952 669.709 569.98 667.924C564.879 666.405 559.608 664.83 554.507 662.94C541.787 658.21 529.304 657.47 512.585 660.106L511.241 660.32C506.436 661.085 502.924 661.644 498.713 664.493C482.321 675.423 464.783 684.532 446.412 691.656C409.391 706.128 373.888 703.53 346.45 684.341C312.708 660.743 297.694 631.783 294.894 612.547C294.287 608.363 293.84 603.959 293.365 599.281C291.112 577.054 288.563 551.859 266.922 542.057C261.148 539.446 254.962 537.645 248.972 535.905C239.04 533.028 228.77 530.044 220.04 523.252C197.654 505.851 189.795 470.973 202.509 445.51L202.945 444.639C210.359 429.788 218.758 412.949 233.051 403.826C233.816 403.325 234.666 402.826 235.474 402.326C237.512 401.139 239.474 399.826 241.347 398.394C247.486 393.473 256.62 382.369 257.793 374.287C258.731 367.864 257.536 360.937 256.386 354.247C254.285 342.001 252.109 329.344 262.264 318.44C268.545 311.707 276.598 306.811 284.387 302.067C295.404 295.357 305.806 289.024 311.983 277.875C314.963 272.486 316.353 266.304 317.701 260.331C319.24 253.483 320.841 246.398 324.817 240.26C337.087 221.301 355.279 206.196 374.717 198.813C388.058 193.75 405.937 195.312 421.668 197.51C437.754 199.754 455.486 196.416 477.463 186.99L477.867 187.931L477.463 186.99C486.047 183.31 494.483 179.071 502.404 175.049C528.603 161.718 562.616 156.176 593.405 160.318C627.942 164.91 655.641 180.807 671.533 205.144C672.87 207.321 674.022 209.606 674.978 211.975C676.006 214.597 677.328 217.094 678.919 219.419C690.527 235.159 709.827 242.734 725.344 247.567C752.626 256.066 771.204 266.804 779.576 294.069C782.816 304.102 784.825 314.49 785.558 325.008C786.327 335.946 782.679 347.216 779.483 354.75C778.586 356.868 777.613 358.931 776.615 360.939C774.805 364.435 773.273 368.067 772.03 371.801C770.014 378.404 766.933 385.329 763.664 392.671C756.53 408.693 749.145 425.269 751.923 440.599C754.232 453.293 761.884 464.251 769.286 474.859C773.311 480.61 777.463 486.569 780.698 492.716C782.398 495.709 784.368 498.541 786.583 501.176C787.21 501.98 787.846 502.791 788.475 503.611C795.9 513.405 797.646 527.878 798.383 540.789C799.129 554.027 796.743 567.224 791.614 577.903C789.485 582.37 786.85 586.733 784.294 590.956C782.28 594.232 780.282 597.607 778.511 600.979L777.885 602.193C774.905 607.894 772.039 613.256 767.382 618.084C760.578 625.035 753.886 631.732 746.777 637.297C744.683 638.875 742.511 640.348 740.27 641.71C738.538 642.83 736.741 643.96 735.06 645.19C726.385 651.536 717.448 655.973 709.05 659.97C690.908 668.612 671.629 674.638 651.792 677.866V677.866ZM512.733 658.014C529.548 655.337 542.284 656.239 555.225 661.027C560.263 662.893 565.507 664.456 570.573 665.963C576.588 667.758 582.809 669.622 588.791 671.996C595.291 674.715 602.151 676.481 609.157 677.24C638.928 680.674 675.959 673.537 708.214 658.169C716.524 654.203 725.359 649.816 733.891 643.578C735.624 642.306 737.451 641.145 739.241 640.024C741.366 638.665 743.569 637.267 745.576 635.698C752.564 630.22 759.203 623.565 765.956 616.664C770.448 612.074 773.196 606.823 776.113 601.259L776.765 600.041C778.568 596.613 780.629 593.203 782.614 589.907C785.144 585.73 787.751 581.405 789.86 577.025C794.815 566.636 797.151 553.81 796.407 540.909C795.686 528.308 794.002 514.172 786.915 504.855C786.294 504.034 785.669 503.238 785.044 502.443C782.755 499.694 780.72 496.742 778.966 493.625C775.792 487.595 771.674 481.69 767.709 475.997C760.179 465.223 752.387 454.077 750.016 440.936C747.123 424.991 754.629 408.117 761.897 391.813C765.134 384.543 768.197 377.663 770.174 371.185C771.438 367.347 772.994 363.61 774.827 360.008C775.788 358.031 776.772 355.983 777.659 353.909C780.72 346.591 784.31 335.642 783.57 325.104C782.85 314.74 780.871 304.502 777.677 294.616C769.569 268.213 751.435 257.767 724.792 249.462C708.972 244.533 689.284 236.801 677.328 220.576C675.662 218.144 674.274 215.533 673.19 212.791C672.278 210.529 671.181 208.345 669.911 206.263C654.366 182.462 627.137 166.862 593.238 162.345C562.852 158.292 529.276 163.721 503.429 176.87C495.486 180.913 487.002 185.168 478.37 188.864C456.02 198.442 437.941 201.835 421.467 199.535C405.994 197.371 388.438 195.818 375.528 200.727C356.492 207.979 338.657 222.774 326.616 241.366C322.837 247.203 321.282 254.104 319.775 260.777C318.402 266.907 316.973 273.222 313.856 278.86C307.38 290.47 296.243 297.225 285.483 303.801C277.816 308.467 269.888 313.292 263.802 319.816C254.331 329.979 256.354 341.57 258.444 353.903C259.62 360.757 260.846 367.874 259.861 374.591C258.602 383.193 249.071 394.884 242.659 400C240.712 401.489 238.67 402.852 236.548 404.08C235.78 404.566 234.954 405.06 234.164 405.566C220.356 414.384 212.074 430.951 204.782 445.562L204.346 446.434C192.041 471.071 199.653 504.815 221.307 521.658C229.727 528.203 239.811 531.132 249.559 533.963C255.61 535.718 261.876 537.541 267.777 540.207C290.484 550.498 293.098 576.315 295.412 599.133C295.881 603.778 296.326 608.165 296.934 612.299C299.667 631.114 314.427 659.49 347.642 682.75C374.508 701.532 409.348 704.049 445.692 689.837C463.911 682.766 481.304 673.729 497.561 662.886C502.138 659.785 506.038 659.172 510.916 658.387L512.722 658.1L512.733 658.014Z" stroke="url(#paint0_linear_32_3559)" stroke-width="1.62936" stroke-miterlimit="10"/>
<path d="M694.81 681.239C689.442 682.093 684.086 682.811 678.755 683.533L671.268 684.547C655.575 686.733 638.672 688.739 621.435 688.595C604.198 688.45 585.83 686.61 563.752 682.834C561.274 682.384 558.772 681.938 556.253 681.494C534.602 677.592 512.196 673.565 492.163 683.909C490.345 684.848 488.585 685.99 486.886 687.088C484.928 688.412 482.893 689.616 480.791 690.694C478.949 691.587 477.042 692.389 475.198 693.164C472.591 694.204 470.043 695.386 467.564 696.702C461.362 700.173 454.945 703.239 448.755 706.201C445.735 707.645 442.699 709.099 439.663 710.605C431.579 714.696 422.927 717.554 413.997 719.083C412.252 719.361 410.498 719.64 408.736 719.92C397.481 721.771 385.837 723.667 374.424 721.075L373.758 720.919C369.304 719.938 364.693 718.865 360.554 716.677C359.53 716.131 358.537 715.571 357.563 715.016C355.045 713.487 352.382 712.213 349.612 711.214C340.353 708.126 331.708 703.435 324.071 697.355C299.656 677.835 293.918 656.431 287.32 631.634C284.748 622 282.081 612.034 278.127 601.463C270.569 581.245 260.854 567.206 247.455 557.285C245.017 555.614 242.389 554.237 239.627 553.185C238.024 552.502 236.365 551.786 234.753 550.945C232.653 549.843 230.629 548.636 228.67 547.47C225.737 545.644 222.695 543.998 219.562 542.542C217.701 541.724 215.803 540.936 213.904 540.149C205.897 536.837 197.634 533.405 191.249 527.072C184.6 520.29 179.142 512.435 175.106 503.837C166.306 485.311 167.122 460.524 177.246 439.163C186.863 418.863 204.422 408.355 221.436 398.188C231.04 392.436 232.879 384.794 227.794 371.784C225.342 365.502 223.966 360.678 224.217 354.615C225.296 325.647 243.216 316.721 260.55 308.091C273.622 301.584 287.147 294.852 294.416 279.631C298.461 271.157 300.187 261.953 301.859 253.046C303.852 242.44 305.905 231.47 311.871 221.431C321.192 205.739 337.912 190.754 357.732 180.292C376.939 170.164 404.371 175.646 426.406 180.053C429.433 180.661 432.345 181.245 435.12 181.758C453.983 185.276 468.202 176.111 483.247 166.41C487.075 163.942 491.049 161.383 495.078 159.061C506.756 152.37 519.311 147.343 532.38 144.127C545.432 140.818 558.904 139.474 572.352 140.137C595.149 141.373 628.568 148.927 648.064 162.573C656.703 168.632 662.84 177.115 668.776 185.344C675.29 194.443 682.109 203.815 692.23 209.688C704.713 216.934 718.898 220.022 732.62 223.016C752.738 227.416 773.471 231.912 789.021 249.566C793.227 254.353 795.287 259.921 797.083 266.798C798.574 272.509 799.777 278.292 800.685 284.124V284.124C805.52 315.715 798.64 339.795 785.972 368.403L785.358 369.852C773.347 396.97 760.927 425.014 770.924 454.187C773.758 462.496 778.35 470.186 781.989 475.968C785.851 482.034 791.531 488.175 797.472 494.688C808.583 506.781 820.08 519.285 821.983 533.258C825.98 562.558 809.411 598.215 794.02 619.848C785.843 631.278 776.189 641.574 765.311 650.469C753.522 660.151 741.214 667.584 728.725 672.554C717.858 676.945 706.338 679.404 694.81 681.239ZM509.404 676.231C524.834 673.775 540.922 676.67 556.618 679.493C559.129 679.938 561.623 680.386 564.101 680.836C586.067 684.595 604.297 686.415 621.458 686.564C638.62 686.712 655.373 684.721 670.99 682.539L678.486 681.523C695.092 679.293 712.268 676.99 728.012 670.725C741.073 665.356 753.229 658.008 764.054 648.938C774.794 640.157 784.324 629.991 792.394 618.705C807.572 597.376 823.935 562.275 820 533.582C818.18 520.238 806.907 507.977 796.011 496.112C789.975 489.538 784.266 483.326 780.322 477.111C776.584 471.236 771.91 463.406 769.011 454.897C758.782 424.959 771.364 396.55 783.528 369.07L784.142 367.621C796.658 339.333 803.46 315.553 798.705 284.465C797.807 278.701 796.616 272.987 795.135 267.345C793.417 260.742 791.465 255.427 787.518 250.945C772.411 233.795 752.874 229.54 732.217 225.04C718.338 222.021 703.994 218.889 691.224 211.487C680.723 205.396 673.814 195.827 667.136 186.602C661.3 178.526 655.234 170.175 646.906 164.312C627.741 150.891 594.781 143.459 572.265 142.237C559.014 141.586 545.742 142.913 532.883 146.175C519.998 149.347 507.62 154.303 496.105 160.899C492.127 163.222 488.179 165.734 484.366 168.191C469.643 177.689 454.422 187.504 434.758 183.834C431.974 183.314 429.052 182.724 426.043 182.121C404.321 177.774 377.289 172.364 358.722 182.161C339.252 192.441 322.795 207.165 313.65 222.533C307.863 232.265 305.84 243.053 303.881 253.493C302.186 262.522 300.44 271.864 296.272 280.577C288.665 296.435 274.861 303.321 261.477 309.988C243.902 318.698 227.309 326.999 226.273 354.752C226.056 360.438 227.379 365.042 229.72 371.098C233.568 380.951 235.723 392.104 222.501 399.995C205.757 410.001 188.452 420.358 179.076 440.105C169.212 460.926 168.39 485.038 176.935 503.022C180.872 511.408 186.193 519.071 192.675 525.688C198.762 531.739 206.834 535.083 214.669 538.321C216.585 539.114 218.492 539.908 220.371 540.733C223.582 542.221 226.697 543.906 229.701 545.777C231.632 546.931 233.637 548.124 235.683 549.2C237.221 550.003 238.843 550.699 240.418 551.369C243.326 552.485 246.091 553.942 248.656 555.709C262.332 565.881 272.287 580.211 279.99 600.812C283.984 611.478 286.659 621.493 289.239 631.176C295.765 655.622 301.404 676.729 325.297 695.825C332.755 701.76 341.199 706.335 350.243 709.339C353.136 710.39 355.919 711.723 358.551 713.322C359.482 713.866 360.489 714.415 361.494 714.948C365.394 717.013 369.869 718.024 374.196 719.008L374.863 719.163C385.885 721.632 397.321 719.812 408.393 717.982L413.671 717.141C422.402 715.684 430.855 712.888 438.734 708.852C441.786 707.344 444.822 705.889 447.851 704.444C454.017 701.494 460.403 698.442 466.549 694.997C469.1 693.637 471.725 692.421 474.412 691.355C476.232 690.592 478.108 689.804 479.936 688.93C481.961 687.888 483.925 686.729 485.816 685.46C487.576 684.278 489.394 683.185 491.264 682.185C496.952 679.24 503.077 677.229 509.404 676.231V676.231Z" stroke="url(#paint1_linear_32_3559)" stroke-width="1.62936" stroke-miterlimit="10"/>
<path d="M705.781 699.935C692.054 702.12 678.025 702.454 664.408 702.781L657.554 702.952C648.309 703.216 640.615 703.2 632.446 700.626C624.125 697.999 616.435 697.425 607.957 696.993C561.519 694.593 516.495 693.968 476.164 712.376C470.269 715.071 464.432 718.237 458.847 721.288C450.174 726.045 441.196 730.902 431.632 734.206C421.332 737.762 410.437 739.648 399.913 741.476C393.267 742.635 386.398 743.822 379.779 745.416C337.375 755.627 300.015 720.308 281.748 680.767C278.477 673.689 277.444 665.926 276.443 658.42L276.17 656.386C274.521 644.221 271.497 627.033 266.35 614.268C263.564 607.375 259.42 601.019 255.723 595.774C247.04 583.395 232.572 578.538 218.584 573.826C208.53 570.445 198.13 566.951 189.819 560.675C187.91 559.291 186.083 557.893 184.248 556.497C163.022 540.737 146.264 528.284 145.023 498.215C144.222 478.807 145.943 451.753 158.666 433.079C167.065 420.767 176.848 408.605 191.446 403.141C193.121 402.561 194.842 402.124 196.59 401.832C198.419 401.54 200.213 401.056 201.941 400.39C215.028 394.718 210.776 384.344 206.274 373.351C204.167 368.232 202.156 363.394 201.93 358.947C201.118 344.724 204.117 335.137 211.935 326.759C219.098 319.092 229.558 311.821 243.03 305.168C250.239 301.606 256.962 298.282 262.89 292.931C268.782 287.719 273.993 281.784 278.399 275.266C285.236 264.705 286.296 252.902 287.428 240.497C287.871 234.334 288.692 228.204 289.884 222.141C293.242 206.587 301.808 192.458 315.34 180.139C341.956 155.927 371.564 161.438 402.923 167.336L407.649 168.222C409.701 168.596 411.732 168.999 413.744 169.388C429.534 172.471 444.443 175.383 459.636 168.144C466.696 164.757 472.975 159.655 479.011 154.717C485.047 149.78 491.428 144.568 498.721 141.06C517.905 131.843 539.167 127.775 559.733 123.842L565.705 122.697C606.798 114.746 634.965 122.554 659.86 148.841C669.946 159.653 679.302 171.123 687.869 183.175C693.297 190.754 701.79 194.146 709.4 196.447C718.717 199.286 727.88 201.154 736.712 202.964C752.912 206.295 768.216 209.406 783.97 217.941C786.003 219.044 788.061 220.092 790.128 221.139C794.362 223.202 798.479 225.498 802.46 228.016C817.53 237.824 825.545 256.827 825.769 282.947C826.033 311.55 817.277 337.005 814.62 344.182C813.196 347.963 811.514 351.878 809.16 356.871C807.016 361.433 804.616 366.037 802.122 371.001C793.701 387.42 784.152 406.036 783.156 423.536C782.407 436.758 788.708 448.976 794.134 456.909C801.001 466.951 810.409 476.944 821.343 485.799C825.034 488.782 829.225 492.463 832.427 497.086C844.367 514.544 848.094 543.052 845.549 561.009C842.041 585.697 835.438 604.73 824.771 620.882L822.819 623.844C815.545 634.955 808.022 646.461 797.285 654.004C794.43 656.012 791.404 657.794 788.487 659.516C785.253 661.424 781.919 663.39 778.849 665.643C765.594 675.387 751.42 683.816 736.529 690.81C728.247 694.682 719.498 697.466 710.501 699.091C708.898 699.413 707.337 699.687 705.781 699.935ZM521.33 697.031C549.121 692.607 578.302 693.415 608.062 694.95C616.362 695.377 624.522 695.986 633.064 698.678C640.931 701.157 648.463 701.166 657.5 700.917C659.786 700.849 662.074 700.797 664.362 700.745C679.442 700.379 695.03 700.025 710.059 697.109C718.884 695.518 727.465 692.792 735.591 689.001C750.365 682.055 764.429 673.692 777.588 664.029C780.749 661.784 784.021 659.699 787.392 657.783C790.279 656.082 793.265 654.315 796.052 652.36C806.469 645.028 813.885 633.7 821.057 622.748L823.008 619.778C833.502 603.865 840.003 585.092 843.468 560.716C845.963 543.138 842.335 515.307 830.676 498.235C827.66 493.818 823.608 490.267 820.03 487.367C808.951 478.392 799.401 468.253 792.415 458.044C784.382 446.304 780.466 434.323 781.092 423.408C782.119 405.516 791.764 386.656 800.284 370.061C802.802 365.143 805.18 360.51 807.33 355.98C809.666 351.032 811.329 347.163 812.727 343.428C818.193 328.915 823.965 305.404 823.769 282.953C823.618 265.247 819.612 241.621 801.388 229.714C797.451 227.244 793.383 224.988 789.202 222.959C787.126 221.904 785.042 220.852 782.988 219.726C767.511 211.342 752.353 208.242 736.303 204.955C727.41 203.137 718.212 201.258 708.801 198.357C700.895 195.952 692.03 192.399 686.236 184.322C677.713 172.359 668.404 160.978 658.371 150.251C634.013 124.529 606.397 116.895 566.084 124.705L560.111 125.85C539.678 129.762 518.546 133.801 499.597 142.905C492.539 146.299 486.308 151.386 480.294 156.303C474.168 161.314 467.833 166.493 460.519 169.979C444.722 177.559 429.483 174.54 413.354 171.392C411.342 171.003 409.312 170.608 407.26 170.234L402.526 169.35C371.742 163.562 342.574 158.117 316.745 181.646C303.529 193.67 295.176 207.444 291.901 222.563C290.736 228.565 289.937 234.633 289.508 240.732C288.403 252.879 287.262 265.446 280.153 276.422C275.655 283.098 270.331 289.179 264.308 294.521C258.166 300.066 251.324 303.443 244.077 307.028C230.731 313.619 220.467 320.74 213.477 328.227C206.07 336.16 203.241 345.332 204.009 358.912C204.24 363.012 206.159 367.696 208.198 372.656C212.658 383.538 217.72 395.877 202.792 402.339C200.928 403.07 198.991 403.596 197.014 403.909C195.379 404.185 193.77 404.594 192.202 405.131C178.139 410.401 168.597 422.27 160.39 434.307C147.982 452.518 146.313 479.107 147.1 498.214C148.296 527.31 164.715 539.496 185.502 554.93C187.337 556.326 189.205 557.717 191.081 559.107C199.128 565.162 209.359 568.599 219.293 571.915C233.567 576.725 248.381 581.636 257.453 594.603C261.23 599.979 265.464 606.422 268.306 613.509C273.511 626.476 276.588 643.842 278.256 656.122L278.529 658.155C279.506 665.513 280.522 673.119 283.682 679.919C301.599 718.696 338.16 753.349 379.372 743.446C386.056 741.833 392.965 740.632 399.637 739.477C410.087 737.661 420.898 735.78 431.047 732.281C440.443 729.038 449.338 724.186 457.946 719.498C463.595 716.429 469.429 713.246 475.387 710.524C490.018 703.961 505.474 699.422 521.33 697.031Z" stroke="url(#paint2_linear_32_3559)" stroke-width="1.62936" stroke-miterlimit="10"/>
<path d="M712.17 725.492C711.066 725.668 709.953 725.845 708.798 725.911C705.62 726.172 702.412 726.455 699.197 726.747C679.204 728.537 658.62 730.379 638.813 727.135C631.004 725.846 623.238 723.925 615.716 722.059C602.866 718.88 589.583 715.584 576.018 715.507C559.013 715.42 542.117 719.148 525.769 722.763C521.141 723.787 516.521 724.809 511.88 725.751C492.506 729.679 475.42 737.944 458.898 745.934C446.109 752.114 432.883 758.516 418.519 762.972C409.535 765.769 399.909 767.184 390.596 768.556C388.569 768.879 386.551 769.15 384.547 769.46C361.104 773.091 329.696 771.22 311.836 755.098C310.139 753.562 308.4 752.032 306.669 750.502C299.93 744.578 292.922 738.451 287.381 731.247C278.066 719.226 271.651 707.696 268.302 696.902C264.437 684.46 262.766 671.044 261.148 658.067C260.513 652.961 259.858 647.68 259.076 642.605C256.343 624.75 250.506 610.748 241.746 600.993C233.829 592.184 226.197 590.521 217.355 588.586C212.475 587.638 207.688 586.265 203.048 584.483C200.348 583.315 197.732 581.96 195.221 580.428C193.355 579.324 191.358 578.19 189.386 577.264C186.439 575.979 183.393 574.934 180.278 574.139C177.681 573.446 175.123 572.613 172.615 571.645C133.247 555.646 113.952 503.762 118.661 464.871C119.627 456.876 122.393 449.835 125.32 442.372L125.571 441.724C133.303 421.984 150.438 414.977 168.575 407.523L172.595 405.871C190.339 398.497 187.794 381.557 185.329 365.17C184.791 361.786 184.347 358.574 184.035 355.45C181.677 331.348 190.449 315.113 210.846 305.781C213.54 304.55 216.212 303.289 218.876 302.03C225.256 299.013 231.859 295.903 238.604 293.268C251.564 288.217 260.056 283.497 267.782 273.008C278.239 258.818 279.543 247.689 278.413 229.553C278.146 225.172 277.503 220.548 276.826 215.659C274.63 199.846 272.141 181.926 282.935 169.109C308.779 138.315 352.019 138.825 386.797 142.708L387.803 142.818C426.426 147.127 451.931 149.971 483.798 124.472C496.538 114.274 511.938 108.472 527.933 102.954C572.141 87.6791 615.807 89.8095 647.695 108.704C660.756 116.449 669.998 128.432 678.949 140.022C688.697 152.642 698.767 165.691 713.675 172.931C724.782 178.321 740.351 182.333 756.406 183.938C760.075 184.196 763.762 184.062 767.402 183.538C769.562 183.304 771.796 183.058 774.131 182.973C792.39 182.337 811.575 189.268 825.453 201.509C839.951 214.292 850.948 232.9 854.88 251.332L855.774 255.41C857.293 262.351 858.609 269.13 858.037 275.568C856.206 295.914 850.594 325.412 833.982 350.457C831.175 354.694 828.214 358.972 825.336 363.076C814.966 377.97 804.237 393.377 798.603 411.002C797.146 415.547 795.165 422.37 794.725 429.108C794.344 435.415 796.388 439.554 799.274 444.733C800.191 446.351 800.977 447.998 801.736 449.583C803.414 453.063 805.003 456.355 807.673 459.222C809.947 461.67 812.547 463.299 815.354 465.013C817.76 466.407 820.028 468.024 822.13 469.842C826.637 473.953 832.329 477.064 838.346 480.361C849.051 486.202 860.12 492.256 864.074 504.405C877.558 545.802 861.423 586.369 843.863 620.588C842.939 622.424 842.056 624.252 841.162 626.015C837.944 632.604 834.609 639.415 829.578 645.229C821.717 654.339 812.796 662.309 804.123 670.028C796.124 677.21 787.847 684.554 780.519 692.768C779.4 694.018 778.314 695.314 777.227 696.609C774.157 700.255 770.982 704.035 767.048 706.974C763.114 709.913 758.467 711.876 753.991 713.745C752.351 714.428 750.719 715.11 749.127 715.836C743.357 718.443 738.282 719.521 732.407 720.726L729.316 721.37C726.865 721.895 724.501 722.542 722.192 723.163C718.896 724.12 715.55 724.897 712.17 725.492V725.492ZM551.323 715.572C559.489 714.2 567.752 713.497 576.032 713.47C589.833 713.544 603.247 716.869 616.213 720.081C623.698 721.936 631.43 723.853 639.143 725.116C658.698 728.324 679.191 726.489 699.016 724.708L708.633 723.869C713.052 723.385 717.415 722.49 721.667 721.195C724 720.562 726.422 719.907 728.898 719.377L732.005 718.731C737.732 717.549 742.731 716.525 748.282 713.979C749.856 713.247 751.554 712.555 753.217 711.86C757.567 710.045 762.075 708.162 765.826 705.345C769.577 702.528 772.642 698.858 775.648 695.341C776.749 694.027 777.85 692.72 778.972 691.436C786.372 683.143 794.686 675.717 802.736 668.536C811.341 660.861 820.233 652.921 828.061 643.876C832.913 638.259 836.044 631.869 839.351 625.096C840.243 623.266 841.134 621.436 842.065 619.642C859.439 585.791 875.406 545.706 862.154 505.031C858.45 493.653 847.743 487.803 837.387 482.142C831.521 478.94 825.455 475.601 820.764 471.343C818.76 469.615 816.595 468.083 814.298 466.768C811.323 465.106 808.591 463.042 806.182 460.632C803.298 457.538 801.569 453.947 799.894 450.484C799.146 448.915 798.373 447.35 797.493 445.751C794.512 440.452 792.266 435.847 792.681 429.003C793.096 422.16 795.132 415.049 796.622 410.398C802.355 392.486 813.173 376.956 823.633 361.929C826.493 357.819 829.458 353.566 832.252 349.357C848.599 324.666 854.182 295.511 855.966 275.408C856.516 269.252 855.229 262.654 853.743 255.868L853.451 254.514L852.86 251.806C849.014 233.807 838.249 215.593 824.074 203.087C810.774 191.354 791.653 184.447 774.176 185.06C771.916 185.141 769.715 185.381 767.597 185.609C763.816 186.15 759.988 186.284 756.178 186.009C739.866 184.385 724.068 180.308 712.749 174.809C697.419 167.358 687.192 154.122 677.304 141.314C668.47 129.874 659.338 118.051 646.63 110.511C615.249 91.8735 572.218 89.8613 528.568 104.93C512.759 110.392 497.532 116.116 485.054 126.104C452.547 152.093 426.695 149.186 387.577 144.846L386.571 144.736C321.326 137.465 297.736 154.607 284.493 170.355C274.245 182.511 276.588 199.247 278.822 215.35C279.517 220.304 280.154 224.937 280.433 229.4C281.592 248.038 280.239 259.495 269.408 274.201C261.383 285.092 252.645 289.969 239.327 295.153C232.62 297.765 226.059 300.869 219.709 303.864C217.038 305.133 214.359 306.403 211.656 307.627C192.149 316.556 183.77 332.129 186.03 355.242C186.326 358.318 186.805 361.491 187.307 364.855C189.768 381.217 192.552 399.765 173.333 407.745L169.304 409.399C151.583 416.652 134.851 423.535 127.426 442.442L127.174 443.09C124.295 450.427 121.578 457.35 120.639 465.088C114.71 514.091 143.377 557.553 173.341 569.731C175.779 570.67 178.266 571.477 180.79 572.15C184.02 572.979 187.176 574.075 190.225 575.425C192.271 576.391 194.281 577.548 196.22 578.691C198.646 580.175 201.173 581.487 203.782 582.619C208.346 584.356 213.054 585.691 217.851 586.608C226.658 588.532 234.973 590.348 243.331 599.644C252.355 609.677 258.35 624.034 261.155 642.291C261.967 647.395 262.6 652.696 263.237 657.811C264.84 670.697 266.498 684.031 270.31 696.296C273.588 706.856 279.897 718.2 289.057 729.993C294.521 737.032 301.41 743.101 308.073 748.97C309.821 750.506 311.56 752.036 313.268 753.579C330.594 769.22 361.32 770.997 384.293 767.441C386.296 767.122 388.314 766.801 390.359 766.535C399.597 765.174 409.141 763.773 417.973 761.025C432.173 756.603 445.33 750.246 458.049 744.103C474.689 736.06 491.894 727.742 511.515 723.775C516.131 722.837 520.743 721.816 525.354 720.795C533.887 718.88 542.564 716.967 551.348 715.568L551.323 715.572Z" stroke="url(#paint3_linear_32_3559)" stroke-width="1.62936" stroke-miterlimit="10"/>
<path d="M730.659 742.31C722.846 743.554 714.439 743.296 706.294 743.039C704.946 743.001 703.613 742.951 702.3 742.924C680.678 742.372 657.536 741.133 634.72 735.891C623.636 733.349 613.619 731.296 603.233 731.97C595.454 732.474 587.649 732.441 580.107 732.418C564.664 732.343 550.078 732.301 535.073 736.353L529.096 737.946C524.495 739.16 519.739 740.415 515.131 741.799C501.214 745.956 487.529 752.897 474.305 759.604C468.408 762.595 462.307 765.685 456.298 768.449C453.059 770.031 449.913 771.795 446.874 773.732C442.928 776.15 438.844 778.649 434.416 780.317L434.024 780.455C426.177 783.393 418.09 786.42 409.339 786.437C403.391 786.59 397.458 787.117 391.576 788.015C381.174 789.384 370.416 790.792 360.238 788.106C354.749 786.658 349.219 785.487 343.872 784.353C324.653 780.286 306.5 776.447 291.493 760.606C273.122 741.239 262.533 721.064 257.149 695.146C256.551 692.294 255.869 689.439 255.196 686.642C254.132 682.184 253.027 677.581 252.289 672.944C251.854 670.21 251.492 667.456 251.135 664.684C250.543 659.264 249.633 653.882 248.409 648.569C246.007 639.047 241.859 633.568 237.052 627.182C234.366 623.742 231.878 620.152 229.6 616.429C226.998 612.064 225.749 610.532 220.911 609.199C198.154 602.901 179.825 596.944 163.232 590.441C149.664 585.179 136.17 573.59 128.079 564.551C125.445 561.491 122.989 558.282 120.724 554.939C119.104 552.664 117.445 550.251 115.647 548.021C114.589 546.678 113.536 545.368 112.486 544.075C106.734 537.053 101.297 530.421 98.2045 521.178C89.4711 495.058 93.3451 461.646 108.087 436.054C111.725 429.742 117.261 425.913 122.616 422.536C127.346 419.707 132.26 417.199 137.325 415.027C146.612 410.796 156.215 406.422 162.612 398.142C170.101 388.447 168.469 377.502 166.768 365.918C166.312 363.052 165.891 360.088 165.605 357.178C164.285 343.583 162.595 326.66 171.161 314.658C178.966 303.553 195.069 299.081 209.24 295.137C214.011 293.82 218.514 292.571 222.441 291.152C224.037 290.569 225.793 290.095 227.468 289.643C230.446 288.831 233.512 287.997 236.004 286.519C261.061 271.689 258.119 242.604 254.981 211.701C252.75 189.681 250.443 166.912 259.32 149.819C262.375 143.98 268.484 138.025 273.204 134.741C276.47 132.456 280.332 131.208 284.066 130.006L285.373 129.578C306.231 122.728 332.092 119.836 364.366 120.752C369.13 120.997 373.871 121.565 378.557 122.453C380.534 122.78 382.503 123.108 384.463 123.387C425.224 129.142 466.936 119.825 496.037 98.4738C497.898 97.1138 499.72 95.6247 501.482 94.1789C504.549 91.5486 507.811 89.155 511.241 87.0189C524.205 79.3737 543.444 76.8852 558.896 74.8899L563.245 74.3158C571.189 73.2621 579.179 73.1301 586.908 72.9975C591.613 72.9154 596.48 72.8331 601.287 72.5407L602.55 72.4663C607.874 72.1338 612.906 71.8224 618.39 73.0182C635.002 76.6219 650.054 83.2521 662.625 89.2555C677.874 96.5383 685.113 107.866 693.489 120.971C694.604 122.676 695.727 124.423 696.853 126.194C714.263 152.891 745.906 159.118 776.496 165.149C791.311 168.068 806.648 171.081 819.89 176.42C841.395 185.088 859.571 206.31 873.915 239.515C874.479 240.827 875.007 242.15 875.501 243.484C884.716 268.438 883.927 302.355 873.596 325.962C871.352 330.843 868.827 335.589 866.033 340.177C864.442 342.905 862.787 345.718 861.302 348.53C860.056 350.881 858.88 353.306 857.751 355.656C855.661 360.249 853.267 364.697 850.585 368.972C848.718 371.808 846.842 374.64 844.957 377.468C836.918 389.598 828.624 402.14 821.019 414.867C816.634 422.219 813.453 428.484 815.544 436.527C819.831 452.851 834.263 460.787 848.25 468.473C855.63 472.567 863.299 476.784 869.378 482.2C888.587 499.407 893.588 525.782 884.654 562.829C884.09 565.173 883.552 567.521 883.01 569.845C881.334 577.188 879.597 584.785 877.012 592.036C875.951 594.78 874.593 597.4 872.963 599.849C872.192 601.103 871.406 602.368 870.678 603.734C869.98 605.082 869.355 606.467 868.805 607.882C868.034 609.914 867.077 611.87 865.945 613.725C860.07 622.69 854.796 632.243 849.7 641.49C842.991 653.644 836.051 666.207 827.665 677.641C812.405 698.444 790.184 717.197 765.158 730.418C755.047 735.678 744.258 739.516 733.097 741.821C732.28 742.044 731.466 742.182 730.659 742.31ZM545.019 732.177C556.833 730.297 568.625 730.345 580.121 730.389C587.639 730.417 595.408 730.489 603.105 729.947C613.758 729.256 624.362 731.435 635.182 733.918C657.824 739.12 680.853 740.343 702.357 740.897L706.369 741.018C715.251 741.293 724.463 741.566 732.68 739.894C743.65 737.62 754.255 733.846 764.197 728.68C788.983 715.589 810.945 697.063 826.04 676.498C834.366 665.167 841.248 652.664 847.932 640.564C853.051 631.305 858.342 621.698 864.244 612.636C865.311 610.893 866.21 609.054 866.932 607.142C867.508 605.66 868.165 604.211 868.9 602.801C869.656 601.397 870.468 600.086 871.245 598.814C872.81 596.488 874.112 593.995 875.127 591.382C877.659 584.224 879.385 576.713 881.052 569.422C881.588 567.065 882.125 564.709 882.696 562.355C891.437 526.108 886.641 500.383 868.052 483.728C862.147 478.453 854.569 474.281 847.226 470.257C832.867 462.411 818.007 454.23 813.534 437.05C811.236 428.238 814.594 421.598 819.224 413.828C826.832 401.065 835.163 388.492 843.216 376.343L848.836 367.849C851.479 363.649 853.837 359.276 855.895 354.761C857.031 352.402 858.211 349.951 859.478 347.571C860.991 344.721 862.649 341.881 864.256 339.143C867.023 334.615 869.528 329.931 871.756 325.115C881.896 301.952 882.66 268.672 873.619 244.172C873.141 242.872 872.624 241.587 872.074 240.306C857.949 207.623 840.149 186.755 819.152 178.302C806.09 173.036 790.824 170.045 776.129 167.141C745.105 161.035 713.026 154.718 695.155 127.3C694.027 125.521 692.905 123.774 691.788 122.061C683.581 109.216 676.496 98.1171 661.777 91.0877C649.307 85.1358 634.358 78.5653 617.979 75.0003C612.734 73.8679 607.877 74.1682 602.704 74.4936L601.441 74.568C596.591 74.8588 591.708 74.9436 586.977 75.0214C579.307 75.1531 571.376 75.2842 563.548 76.3277L559.19 76.8949C543.912 78.8709 524.914 81.3297 512.303 88.7581C508.966 90.848 505.791 93.1852 502.804 95.7501C501.019 97.208 499.174 98.7175 497.277 100.109C467.721 121.786 425.455 131.233 384.181 125.433C382.204 125.157 380.218 124.823 378.223 124.49C373.629 123.623 368.983 123.062 364.314 122.812C332.265 121.877 306.669 124.736 286.011 131.512L284.693 131.983C281.104 133.145 277.395 134.344 274.371 136.455C270.01 139.496 264.009 145.282 261.14 150.805C252.55 167.371 254.822 189.807 257.023 211.537C260.074 241.676 263.239 272.853 237.055 288.353C234.333 289.968 231.12 290.843 228.013 291.684C226.306 292.15 224.68 292.594 223.18 293.145C219.195 294.624 214.637 295.848 209.826 297.18C195.985 301.013 180.282 305.353 172.78 315.869C164.671 327.293 166.294 343.744 167.602 356.995C167.881 359.864 168.322 362.791 168.749 365.636C170.461 377.134 172.245 389.026 164.223 399.405C157.507 408.074 147.679 412.568 138.164 416.903C133.184 419.033 128.353 421.494 123.703 424.272C118.5 427.489 113.219 431.167 109.808 437.055C95.3507 462.155 91.5335 494.916 100.09 520.506C103.068 529.404 108.39 535.895 114.018 542.775C115.069 544.077 116.123 545.396 117.24 546.738C119.05 548.983 120.747 551.423 122.391 553.745C124.609 557.032 127.017 560.187 129.602 563.194C137.539 572.063 150.742 583.412 164.037 588.607C180.567 595.087 198.826 601.021 221.524 607.32C227.007 608.837 228.673 610.868 231.415 615.473C233.658 619.133 236.108 622.661 238.753 626.041C243.483 632.314 247.946 638.24 250.454 648.159C251.697 653.551 252.623 659.011 253.226 664.512C253.578 667.251 253.929 669.99 254.37 672.706C255.096 677.268 256.186 681.832 257.244 686.248C257.933 689.094 258.614 691.941 259.207 694.818C264.505 720.302 274.936 740.173 293.034 759.254C307.6 774.608 325.448 778.387 344.352 782.386C349.725 783.523 355.281 784.699 360.814 786.157C370.605 788.744 381.156 787.36 391.368 786.021C397.335 785.101 403.354 784.566 409.389 784.419C417.747 784.423 425.33 781.577 433.369 778.567L433.752 778.43C438.022 776.83 442.023 774.386 445.891 772.014C448.997 770.034 452.214 768.233 455.526 766.621C461.454 763.879 467.539 760.791 473.421 757.811C486.697 751.062 500.493 744.078 514.587 739.867C519.22 738.48 523.992 737.222 528.609 735.997L534.578 734.414C538.01 733.48 541.489 732.728 545 732.163L545.019 732.177Z" stroke="url(#paint4_linear_32_3559)" stroke-width="1.62936" stroke-miterlimit="10"/>
<path d="M718.204 770.868C714.803 771.409 711.418 771.687 707.926 771.981L703.478 772.368C691.502 773.524 677.122 771.577 664.443 769.857L658.572 769.104C653.178 768.295 647.837 767.173 642.574 765.744C640.581 765.218 638.597 764.74 636.605 764.273C592.346 753.936 558.848 753.8 524.6 763.86C515.823 766.438 507.966 770.136 499.663 774.048L498.547 774.572C489.081 779.032 474.985 785.284 461.855 788.109C458.826 788.768 455.81 789.392 452.809 790.013C438.305 793.014 424.61 795.844 410.903 801.511L406.341 803.41C397.846 806.973 389.817 810.327 380.877 812.737C352.904 820.253 328.673 817.799 299.843 804.542C287.915 799.057 274.203 784.431 267.351 773.43C260.764 762.876 255.679 750.244 252.237 735.89C250.463 728.51 249.343 720.841 248.266 713.435C247.808 710.563 247.423 707.663 246.971 704.823L246.541 702.124C243.167 680.933 239.343 656.91 224.264 640.966C222.268 638.978 220.125 637.145 217.851 635.481C215.776 633.947 213.795 632.29 211.918 630.519C205.262 623.984 192.919 622.574 181.984 621.311C177.213 620.864 172.476 620.113 167.802 619.062C162.522 617.726 157.289 616.314 152.048 614.904L143.229 612.553C134.058 610.165 127.349 606.854 121.482 601.83C118.47 599.247 115.313 596.712 111.977 594.062C101.109 585.261 89.8281 576.197 82.7371 564.862C80.7452 561.686 78.4779 558.478 76.2796 555.385C71.5317 548.69 66.6158 541.734 63.7494 534.073C62.1551 529.787 61.5364 525.211 60.9343 520.792C60.7247 519.476 60.581 518.148 60.3713 516.832C59.2381 509.713 58.6866 503.649 59.4897 497.235C63.0173 468.785 71.5918 449.599 88.1648 433.071C93.7866 427.485 99.91 422.291 105.819 417.233C116.87 407.879 128.283 398.139 136.564 385.597C139.963 380.424 141.951 376.15 141.165 370.841C140.864 368.948 140.561 367.047 140.26 365.154C140.04 363.771 139.82 362.389 139.605 361.039C139.146 358.159 138.688 355.279 138.231 352.406C137.26 346.308 136.288 340.202 135.317 334.104C133.229 321.838 135.118 311.26 140.926 302.656C146.922 293.795 155.529 287.969 163.82 282.76C170.461 278.589 177.636 276.392 184.584 274.256C188.715 272.991 192.99 271.678 197.143 269.962C199.211 269.172 201.354 268.591 203.538 268.227C204.733 267.986 205.928 267.753 207.135 267.426C210.881 266.399 216.501 262.602 219.326 259.714C233.06 245.773 232.4 227.997 229.648 210.867L229.449 209.616C227.274 195.955 224.967 181.834 227.433 167.991C227.994 164.83 228.698 161.613 229.377 158.501C229.763 156.752 230.14 155.004 230.51 153.258C230.683 152.386 230.832 151.519 230.951 150.723C231.587 147.188 232.188 143.852 234.631 140.476C237.74 136.345 241.256 132.537 245.126 129.11C248.764 125.778 252.774 122.874 257.075 120.457C262.794 117.074 268.496 115.12 274.535 113.053C276.136 112.503 277.81 111.933 279.473 111.339C296.748 105.112 316.835 106.573 334.547 107.862L334.914 107.888C336.153 107.978 337.367 108.021 338.573 108.065C341.926 108.06 345.265 108.481 348.51 109.319C352.131 110.492 355.863 111.289 359.648 111.697C361.09 111.884 362.515 112.191 363.906 112.614C365.637 113.189 367.449 113.485 369.273 113.49C374.04 113.134 378.76 112.307 383.363 111.019C400.14 106.382 417.883 103.836 435.029 101.359C439.157 100.761 443.335 100.164 447.458 99.5412C458.069 97.9196 468.932 93.8528 481.469 86.7182C487.804 83.1192 492.128 78.3974 496.308 73.8336C502.784 66.7693 508.892 60.1012 521.601 57.6561C526.41 56.7218 531.289 55.6497 535.996 54.6052C540.702 53.5606 545.664 52.4754 550.531 51.5402C579.394 46.0088 605.75 45.9986 628.691 51.5948C649.821 56.7452 661.31 67.2191 674.583 79.3498C679.322 83.6582 684.226 88.1514 689.887 92.6761C691.615 94.0886 693.269 95.5129 694.923 96.9373C698.305 100.05 701.956 102.858 705.835 105.326C712.285 109.185 718.4 113.646 724.315 117.969C727.927 120.601 731.654 123.324 735.412 125.873C745.824 132.924 757.81 136.332 769.415 139.632C776.428 141.493 783.336 143.732 790.109 146.337C791.769 147.009 793.356 147.693 794.914 148.356C800.454 150.74 805.693 152.986 812.149 153.865C814.378 154.177 816.556 154.438 818.692 154.697C829.663 156.03 840.031 157.291 850.453 163.606C862.042 170.621 870.241 179.104 878.925 188.084C881.956 191.213 885.074 194.455 888.428 197.701C898.885 207.85 904.717 221.882 909.043 234.256C911.681 241.81 912.839 249.245 914.062 257.084L914.114 257.413C914.471 259.651 914.878 261.89 915.285 264.129C916.637 271.508 918.039 279.099 917.193 286.727C914.285 312.386 906.902 336.403 895.855 356.186C880.088 384.458 864.358 402.674 844.925 415.243C837.93 419.732 834.476 424.721 834.655 429.983C835.161 444.618 862.509 459.757 880.606 469.778C887.533 473.612 892.997 476.64 895.622 478.855C901.666 483.935 906.078 490.692 910.37 497.232L911.374 498.759C924.226 518.383 916.513 549.558 910.316 574.61C908.877 580.425 907.514 585.916 906.547 590.77C905.645 594.784 904.453 598.728 902.978 602.569C901.553 606.256 900.391 610.039 899.502 613.89C898.189 620.394 897.063 625.096 893.687 630.941C891.448 634.991 889.469 639.178 887.761 643.478C885.949 648.023 883.831 652.439 881.42 656.698C879.67 659.651 878.046 662.77 876.468 665.798C874.046 670.717 871.295 675.468 868.234 680.019C866.157 682.881 864.412 685.977 862.681 688.953C860.951 691.929 859.194 694.951 857.171 697.838C842.074 719.345 827.597 727.337 805.682 739.433L801.903 741.528C780.555 753.365 758.823 759.609 735.819 766.241C732.322 767.245 728.818 768.258 725.284 769.294C722.961 769.972 720.596 770.498 718.204 770.868ZM547.326 756.588C574.349 752.286 602.449 754.167 637.061 762.251C639.07 762.724 641.066 763.225 643.071 763.724C648.246 765.138 653.498 766.249 658.802 767.051C660.708 767.296 662.676 767.565 664.681 767.803C677.258 769.513 691.509 771.447 703.261 770.31C704.766 770.163 706.258 770.044 707.725 769.92C713.559 769.43 718.992 768.97 724.689 767.304C728.228 766.268 731.743 765.25 735.232 764.25C758.131 757.651 779.748 751.426 800.896 739.714L804.675 737.619C826.341 725.655 840.656 717.757 855.482 696.622C857.453 693.776 859.208 690.797 860.898 687.887C862.589 684.976 864.458 681.759 866.546 678.802C869.557 674.339 872.266 669.679 874.654 664.854C876.238 661.809 877.89 658.66 879.645 655.622C881.995 651.444 884.059 647.113 885.823 642.656C887.561 638.273 889.578 634.006 891.863 629.881C895.096 624.303 896.164 619.763 897.447 613.449C898.347 609.526 899.525 605.673 900.974 601.918C902.417 598.167 903.582 594.315 904.46 590.393C905.445 585.494 906.805 579.979 908.248 574.137C914.354 549.471 921.952 518.795 909.58 499.906L908.585 498.376C904.397 491.963 900.072 485.328 894.256 480.406C891.787 478.318 886.12 475.187 879.563 471.556C861.042 461.315 833.109 445.84 832.57 430.045C832.363 424.019 836.131 418.458 843.764 413.521C862.906 401.141 878.403 383.156 894.024 355.186C904.939 335.636 912.237 311.877 915.112 286.492C915.947 279.162 914.573 271.702 913.247 264.487C912.836 262.224 912.418 259.97 912.069 257.722L912.015 257.384C910.779 249.616 909.658 242.259 907.082 234.88C902.613 222.091 897.095 208.962 886.974 199.122C883.598 195.846 880.449 192.567 877.42 189.454C868.837 180.576 860.719 172.182 849.363 165.298C839.308 159.22 829.627 158.036 818.433 156.679C816.28 156.414 814.125 156.141 811.856 155.844C805.13 154.915 799.765 152.621 794.066 150.187C792.524 149.521 790.947 148.844 789.296 148.179C782.594 145.602 775.757 143.389 768.817 141.549C757.062 138.214 744.925 134.754 734.247 127.518C730.46 124.948 726.707 122.221 723.085 119.574C717.208 115.287 711.132 110.854 704.757 107.042C700.784 104.517 697.041 101.648 693.571 98.4689C691.933 97.0419 690.287 95.6163 688.589 94.2834C682.879 89.716 677.957 85.2172 673.185 80.8633C660.111 68.9203 648.805 58.5861 628.186 53.5737C605.553 48.055 579.512 48.0743 550.878 53.5607C546.036 54.492 541.133 55.5763 536.402 56.6248C531.67 57.6733 526.783 58.7467 521.948 59.6766C509.937 61.9938 504.045 68.4334 497.814 75.2308C493.493 79.9184 489.093 84.7451 482.481 88.5147C469.719 95.7697 458.695 99.9462 447.765 101.577C443.647 102.232 439.513 102.789 435.328 103.396C418.238 105.855 400.563 108.399 383.907 113C379.164 114.327 374.3 115.177 369.388 115.539C367.331 115.563 365.283 115.247 363.328 114.605C362.045 114.213 360.731 113.928 359.401 113.753C355.492 113.328 351.637 112.506 347.896 111.298C344.801 110.503 341.616 110.108 338.42 110.123C337.189 110.083 335.948 110.036 334.683 109.942L334.316 109.916C316.802 108.645 296.953 107.198 280.077 113.277C278.408 113.88 276.758 114.446 275.115 115.003C269.181 117.036 263.576 118.958 258.034 122.237C253.869 124.581 249.987 127.396 246.466 130.626C242.699 133.965 239.275 137.671 236.243 141.688C234.076 144.682 233.544 147.653 232.926 151.092C232.777 151.96 232.62 152.829 232.438 153.702C232.074 155.447 231.686 157.197 231.297 158.946C230.624 162.04 229.925 165.232 229.367 168.358C226.966 181.87 229.219 195.814 231.393 209.307L231.585 210.517C234.398 228.186 235.074 246.541 220.699 261.124C217.667 264.197 211.797 268.228 207.596 269.369C206.342 269.713 205.098 269.961 203.854 270.21C201.802 270.548 199.789 271.089 197.844 271.825C193.597 273.581 189.277 274.876 185.103 276.19C177.968 278.372 171.237 280.44 164.829 284.481C156.722 289.577 148.312 295.261 142.569 303.795C137.058 311.938 135.276 322.018 137.28 333.757C138.318 339.853 139.274 345.962 140.198 352.085C140.655 354.957 141.115 357.846 141.571 360.709C141.79 362.084 142.008 363.458 142.226 364.824C142.53 366.734 142.834 368.643 143.143 370.585C144.117 377.181 141.114 382.401 138.23 386.775C129.783 399.554 118.247 409.364 107.097 418.843C101.251 423.765 95.1687 428.952 89.602 434.513C73.388 450.697 64.9518 469.532 61.5143 497.487C60.7352 503.627 61.3082 509.561 62.3905 516.519C62.6015 517.844 62.8137 519.177 62.9601 520.521C63.5438 524.824 64.1442 529.285 65.6633 533.364C68.4435 540.802 73.27 547.62 77.9475 554.191C80.1332 557.311 82.4443 560.529 84.4702 563.759C91.3809 574.81 102.508 583.755 113.269 592.413C116.62 595.111 119.788 597.662 122.829 600.266C128.434 605.078 134.896 608.268 143.766 610.62C146.703 611.39 149.643 612.173 152.585 612.971C157.816 614.374 163.057 615.784 168.311 617.117C172.896 618.138 177.543 618.867 182.221 619.298C193.455 620.582 206.185 622.04 213.336 629.078C215.155 630.789 217.074 632.391 219.082 633.876C221.441 635.6 223.664 637.503 225.731 639.568C241.271 655.971 245.137 680.358 248.544 701.814L248.972 704.505C249.428 707.369 249.889 710.265 250.271 713.141C251.342 720.506 252.454 728.126 254.205 735.416C257.597 749.559 262.598 761.985 269.063 772.356C275.765 783.102 289.088 797.352 300.677 802.671C329.42 815.908 352.5 818.242 380.327 810.766C389.139 808.401 397.103 805.066 405.535 801.53L410.105 799.629C423.995 793.891 437.774 791.005 452.373 788.015C455.373 787.394 458.382 786.771 461.411 786.12C474.336 783.329 488.29 777.141 497.666 772.755L498.774 772.232C507.164 768.281 515.087 764.572 524.014 761.928C531.663 759.654 539.449 757.87 547.326 756.588Z" stroke="url(#paint5_linear_32_3559)" stroke-width="1.62936" stroke-miterlimit="10"/>
<defs>
<linearGradient id="paint0_linear_32_3559" x1="455.309" y1="175.597" x2="538.146" y2="695.957" gradientUnits="userSpaceOnUse">
<stop stop-color="#F7E9E2"/>
<stop offset="1" stop-color="#FFF0E9" stop-opacity="0"/>
</linearGradient>
<linearGradient id="paint1_linear_32_3559" x1="448.917" y1="156.853" x2="536.41" y2="706.455" gradientUnits="userSpaceOnUse">
<stop stop-color="#F7E9E2"/>
<stop offset="1" stop-color="#FFF0E9" stop-opacity="0"/>
</linearGradient>
<linearGradient id="paint2_linear_32_3559" x1="446.152" y1="141.621" x2="539.251" y2="726.445" gradientUnits="userSpaceOnUse">
<stop stop-color="#F7E9E2"/>
<stop offset="1" stop-color="#FFF0E9" stop-opacity="0"/>
</linearGradient>
<linearGradient id="paint3_linear_32_3559" x1="446.028" y1="113.021" x2="547.697" y2="751.675" gradientUnits="userSpaceOnUse">
<stop stop-color="#F7E9E2"/>
<stop offset="1" stop-color="#FFF0E9" stop-opacity="0"/>
</linearGradient>
<linearGradient id="paint4_linear_32_3559" x1="441.193" y1="93.3482" x2="549.104" y2="771.212" gradientUnits="userSpaceOnUse">
<stop stop-color="#F7E9E2"/>
<stop offset="1" stop-color="#FFF0E9" stop-opacity="0"/>
</linearGradient>
<linearGradient id="paint5_linear_32_3559" x1="436.72" y1="69.5295" x2="552.565" y2="797.237" gradientUnits="userSpaceOnUse">
<stop stop-color="#F7E9E2"/>
<stop offset="1" stop-color="#FFF0E9" stop-opacity="0"/>
</linearGradient>
</defs>
</svg>
