<svg width="236" height="304" viewBox="0 0 236 304" fill="none" xmlns="http://www.w3.org/2000/svg">
<g opacity="0.05">
<path d="M243.163 175.015C240.284 177.925 237.149 180.333 233.947 182.026C232.216 182.955 230.331 183.615 228.349 183.982C226.618 184.335 224.916 184.856 223.271 185.356C221.866 185.785 220.414 186.227 218.941 186.566C215.266 187.409 212.373 189.173 209.162 192.409L208.904 192.67C207.982 193.602 207.309 194.282 206.899 195.623C205.276 200.802 203.067 205.721 200.311 210.293C194.778 219.534 186.459 224.435 176.889 224.091C165.121 223.669 156.509 219.043 152.374 214.854C151.475 213.942 150.571 212.953 149.611 211.902C145.049 206.909 139.88 201.248 133.307 202.259C131.554 202.53 129.858 203.06 128.216 203.574C125.496 204.428 122.682 205.308 119.512 205.034C111.385 204.334 103.272 197.172 101.425 189.071L101.362 188.794C100.285 184.07 99.0622 178.714 100.552 174.296C100.629 174.056 100.726 173.804 100.813 173.558C101.046 172.956 101.24 172.335 101.392 171.699C101.848 169.56 101.836 165.469 100.618 163.343C99.6507 161.653 98.12 160.174 96.643 158.744C93.9398 156.127 91.1453 153.423 91.3952 149.22C91.5519 146.624 92.4358 144.194 93.2893 141.841C94.4965 138.513 95.6365 135.372 94.9629 131.73C94.636 129.971 93.8129 128.268 93.0187 126.622C92.1067 124.736 91.1651 122.783 90.9212 120.689C90.166 114.221 91.4234 107.758 94.3677 102.958C96.3897 99.6647 100.625 97.2578 104.502 95.3381C108.466 93.3742 111.773 89.8121 114.905 84.1255L115.166 84.2889L114.905 84.1255C116.129 81.9049 117.218 79.5728 118.232 77.3731C121.583 70.0906 128.084 63.4648 135.643 59.669C144.113 55.3981 153.138 54.9094 161.099 58.2874C161.792 58.6028 162.464 58.9728 163.109 59.3936C163.815 59.8641 164.564 60.2588 165.34 60.5703C170.782 62.548 176.431 61.3655 180.743 60.1127C188.324 57.9103 194.391 57.6006 201.226 62.853C203.776 64.7608 206.119 66.946 208.203 69.3605C210.373 71.8706 211.628 75.1481 212.299 77.4567C212.488 78.1056 212.65 78.753 212.797 79.3913C213.036 80.5133 213.362 81.625 213.77 82.7162C214.532 84.6175 215.117 86.7618 215.737 89.0358C217.09 93.9982 218.489 99.1328 221.906 102.386C224.737 105.079 228.43 106.523 232.005 107.921C233.946 108.677 235.952 109.464 237.791 110.438C238.714 110.893 239.667 111.268 240.638 111.557C240.923 111.652 241.212 111.748 241.501 111.847C244.932 113.047 247.964 116.255 250.487 119.244C253.072 122.311 254.958 125.855 255.777 129.221C256.123 130.626 256.339 132.085 256.546 133.498C256.7 134.599 256.876 135.722 257.101 136.808L257.185 137.197C257.568 139.032 257.916 140.767 257.77 142.652C257.537 145.383 257.283 148.034 256.73 150.478C256.556 151.184 256.345 151.876 256.099 152.552C255.921 153.091 255.731 153.642 255.585 154.2C254.828 157.075 253.665 159.533 252.54 161.801C250.112 166.702 246.955 171.151 243.163 175.015V175.015ZM208.812 191.883C212.037 188.623 215.016 186.858 218.75 185.995C220.204 185.659 221.649 185.219 223.043 184.793C224.7 184.288 226.416 183.768 228.171 183.408C230.104 183.05 231.942 182.407 233.629 181.499C240.834 177.692 247.71 170.213 252.027 161.498C253.137 159.251 254.287 156.822 255.032 153.994C255.182 153.419 255.373 152.855 255.564 152.307C255.785 151.649 256.016 150.971 256.172 150.281C256.715 147.877 256.965 145.243 257.195 142.533C257.348 140.73 256.995 139.04 256.623 137.249L256.544 136.854C256.315 135.749 256.147 134.609 255.983 133.507C255.778 132.109 255.564 130.664 255.229 129.283C254.424 126.014 252.595 122.566 250.072 119.58C247.609 116.663 244.653 113.526 241.384 112.389C241.097 112.289 240.813 112.195 240.529 112.101C239.521 111.796 238.532 111.403 237.575 110.926C235.771 109.971 233.782 109.192 231.865 108.44C228.231 107.022 224.472 105.554 221.546 102.764C217.992 99.3807 216.565 94.1555 215.19 89.1045C214.576 86.8528 213.995 84.7221 213.247 82.8568C212.825 81.7373 212.485 80.5969 212.232 79.4456C212.083 78.8207 211.926 78.1752 211.742 77.5384C211.081 75.3026 209.872 72.1116 207.782 69.6931C205.728 67.3133 203.419 65.1598 200.906 63.28C194.288 58.1937 188.372 58.5046 180.967 60.6541C176.571 61.9311 170.808 63.1362 165.2 61.0959C164.388 60.7705 163.604 60.3587 162.863 59.8683C162.248 59.4663 161.606 59.112 160.945 58.809C153.159 55.5058 144.292 55.9927 135.977 60.1826C128.523 63.9369 122.098 70.4675 118.792 77.6514C117.776 79.8595 116.68 82.2028 115.448 84.4349C112.262 90.2161 108.888 93.8454 104.828 95.8563C101.014 97.744 96.8516 100.103 94.897 103.292C92.0173 107.998 90.782 114.331 91.521 120.675C91.7533 122.666 92.6714 124.568 93.5586 126.407C94.3756 128.094 95.2145 129.835 95.5568 131.675C96.2487 135.475 95.0231 138.832 93.8484 142.088C93.0076 144.402 92.1382 146.796 91.9865 149.312C91.7522 153.229 94.3183 155.701 97.0346 158.341C98.5476 159.806 100.12 161.327 101.13 163.095C102.425 165.359 102.456 169.653 101.975 171.881C101.817 172.542 101.615 173.187 101.371 173.813C101.29 174.049 101.198 174.296 101.116 174.541C99.6774 178.81 100.877 184.082 101.937 188.73L102 189.007C103.786 196.846 111.637 203.774 119.5 204.453C122.557 204.717 125.32 203.852 127.991 203.015C129.649 202.495 131.366 201.959 133.157 201.681C140.055 200.622 145.353 206.422 150.036 211.548C150.989 212.592 151.889 213.577 152.779 214.476C156.823 218.575 165.271 223.1 176.862 223.523C186.231 223.858 194.388 219.041 199.819 209.968C202.551 205.432 204.742 200.553 206.351 195.416C206.795 193.958 207.545 193.204 208.479 192.256L208.825 191.906L208.812 191.883Z" stroke="url(#paint0_linear_57_11047)" stroke-width="2" stroke-miterlimit="10"/>
<path d="M253.283 169.131C252.253 170.172 251.201 171.178 250.155 172.181L248.687 173.59C245.62 176.558 242.252 179.671 238.418 182.319C234.583 184.966 230.189 187.382 224.621 189.911C223.991 190.188 223.357 190.47 222.719 190.756C217.222 193.187 211.536 195.706 209.002 201.31C208.772 201.819 208.592 202.367 208.417 202.896C208.227 203.519 207.997 204.125 207.73 204.712C207.486 205.213 207.211 205.702 206.946 206.176C206.56 206.832 206.213 207.512 205.906 208.215C205.171 210.014 204.313 211.75 203.487 213.425C203.084 214.243 202.679 215.065 202.284 215.899C201.246 218.141 199.857 220.174 198.164 221.932C197.829 222.27 197.492 222.61 197.155 222.952C195.006 225.149 192.781 227.417 189.785 228.569L189.61 228.636C188.446 229.093 187.231 229.553 185.917 229.671C185.591 229.699 185.269 229.718 184.953 229.737C184.117 229.761 183.296 229.869 182.501 230.06C179.891 230.759 177.123 230.976 174.325 230.703C165.362 229.809 160.181 225.556 154.19 220.621C151.86 218.705 149.449 216.724 146.643 214.798C141.277 211.113 136.564 209.25 131.79 208.95C130.946 208.928 130.114 209.006 129.311 209.182C128.832 209.268 128.335 209.354 127.825 209.402C127.159 209.464 126.492 209.489 125.846 209.514C124.864 209.531 123.891 209.609 122.933 209.746C122.372 209.839 121.808 209.945 121.245 210.051C118.871 210.501 116.418 210.962 113.849 210.433C111.141 209.837 108.499 208.798 106.035 207.359C100.704 204.275 96.3524 198.188 94.6838 191.477C93.0971 185.099 95.0553 179.84 96.9552 174.748C98.0252 171.871 97.0345 169.747 93.5326 167.41C91.8422 166.282 90.6563 165.336 89.6033 163.839C84.5456 156.707 86.8727 151.772 89.1245 146.999C90.8226 143.4 92.58 139.677 91.403 134.886C90.7474 132.219 89.4462 129.738 88.187 127.336C86.6882 124.476 85.1361 121.519 84.6189 118.177C83.8093 112.954 84.7633 106.749 87.2294 101.149C89.621 95.7245 96.6837 92.7734 102.358 90.4036C103.137 90.0788 103.887 89.7659 104.594 89.4573C109.405 87.3676 110.87 82.9513 112.42 78.2774C112.815 77.0883 113.225 75.8546 113.691 74.6693C115.048 71.2432 116.902 68.0807 119.201 65.2735C121.48 62.4469 124.21 60.027 127.303 58.0934C132.565 54.8428 141.329 51.458 148.131 51.7049C151.147 51.8171 154.054 52.9016 156.87 53.9561C159.973 55.1301 163.192 56.3221 166.502 56.1592C170.584 55.9584 174.283 54.4935 177.862 53.0776C183.111 51.0045 188.513 48.8589 195.176 50.6834C196.981 51.1797 198.454 52.1978 200.108 53.5719C201.481 54.7128 202.804 55.916 204.071 57.1768V57.1768C210.915 64.0197 213.797 70.8798 216.229 79.7294L216.358 80.1733C218.662 88.5624 221.046 97.238 228.588 102.696C230.733 104.253 233.153 105.387 235.014 106.211C236.977 107.068 239.354 107.661 241.857 108.302C246.523 109.48 251.349 110.697 254.324 113.761C260.564 120.183 263.422 131.335 263.977 138.931C264.26 142.952 264.01 146.93 263.233 150.761C262.398 154.924 261.038 158.626 259.188 161.765C257.59 164.511 255.494 166.896 253.283 169.131ZM211.407 196.781C214.367 193.789 218.45 191.982 222.434 190.218C223.07 189.934 223.703 189.653 224.333 189.376C229.873 186.861 234.233 184.462 238.051 181.827C241.87 179.192 245.207 176.105 248.258 173.15L249.729 171.74C252.99 168.619 256.363 165.392 258.696 161.436C260.6 158.112 261.942 154.454 262.675 150.588C263.442 146.806 263.689 142.879 263.409 138.909C262.863 131.419 260.06 120.433 253.945 114.147C251.103 111.222 246.371 110.029 241.795 108.872C239.259 108.231 236.863 107.625 234.855 106.745C232.955 105.914 230.491 104.759 228.295 103.165C220.562 97.5585 218.148 88.7702 215.811 80.2702L215.681 79.8263C213.275 71.0772 210.43 64.3014 203.696 57.5669C202.444 56.3208 201.136 55.1324 199.777 54.0064C198.191 52.6863 196.788 51.7123 195.096 51.2489C188.623 49.4766 183.529 51.4941 178.143 53.627C174.525 55.061 170.783 56.5405 166.609 56.7481C163.175 56.9179 159.899 55.6926 156.737 54.5138C153.972 53.4805 151.105 52.4165 148.193 52.3032C141.505 52.0591 132.865 55.4017 127.667 58.6121C124.621 60.5176 121.931 62.9023 119.687 65.6877C117.42 68.4554 115.592 71.5735 114.254 74.9514C113.8 76.129 113.387 77.3474 112.993 78.5315C111.477 83.1064 109.909 87.8348 104.894 90.0128C104.184 90.3212 103.43 90.634 102.655 90.9574C97.0618 93.2927 90.1005 96.1989 87.7899 101.444C85.3679 106.945 84.4242 113.047 85.2135 118.165C85.7141 121.405 87.2396 124.314 88.7153 127.129C89.9917 129.563 91.3137 132.081 91.986 134.825C93.2048 139.821 91.4139 143.625 89.676 147.311C87.3858 152.14 85.2376 156.718 90.0827 163.552C91.0741 164.953 92.2083 165.854 93.8324 166.946C96.484 168.716 98.9992 171.062 97.5208 175.017C95.651 180.028 93.7216 185.212 95.2603 191.419C96.8877 197.96 101.114 203.885 106.29 206.879C108.693 208.282 111.269 209.296 113.911 209.879C116.362 210.386 118.757 209.934 121.08 209.493C121.648 209.385 122.215 209.279 122.781 209.185C123.762 209.043 124.758 208.964 125.764 208.946C126.402 208.923 127.063 208.898 127.711 208.838C128.198 208.792 128.683 208.707 129.154 208.623C130 208.438 130.878 208.358 131.767 208.384C136.648 208.702 141.467 210.597 146.936 214.352C149.768 216.294 152.19 218.286 154.53 220.213C160.441 225.074 165.546 229.271 174.316 230.144C177.048 230.411 179.75 230.196 182.298 229.511C183.129 229.313 183.987 229.201 184.861 229.176C185.166 229.162 185.489 229.137 185.809 229.109C187.048 228.998 188.221 228.545 189.357 228.108L189.533 228.042C192.419 226.92 194.613 224.702 196.724 222.539L197.737 221.516C199.399 219.807 200.755 217.819 201.758 215.622C202.157 214.785 202.562 213.963 202.966 213.144C203.789 211.475 204.642 209.747 205.37 207.962C205.685 207.238 206.043 206.537 206.441 205.863C206.704 205.396 206.974 204.915 207.218 204.42C207.475 203.855 207.697 203.27 207.883 202.671C208.056 202.113 208.258 201.567 208.488 201.036C209.206 199.442 210.192 198.006 211.407 196.781V196.781Z" stroke="url(#paint1_linear_57_11047)" stroke-width="2" stroke-miterlimit="10"/>
<path d="M259.125 171.919C256.492 174.58 253.453 176.844 250.505 179.042L249.022 180.149C247.028 181.652 245.325 182.845 243.05 183.498C240.731 184.161 238.927 185.22 236.975 186.435C226.277 193.085 216.216 199.942 210.672 210.645C209.862 212.21 209.151 213.879 208.475 215.482C207.429 217.976 206.333 220.541 204.825 222.823C203.199 225.281 201.137 227.43 199.146 229.508C197.89 230.821 196.589 232.175 195.418 233.588C187.917 242.643 173.206 239.965 161.942 233.301C159.925 232.109 158.278 230.403 156.684 228.754L156.252 228.308C153.664 225.64 149.853 221.977 146.382 219.71C144.507 218.486 142.429 217.603 140.653 216.917C136.472 215.292 132.388 216.376 128.436 217.42C125.597 218.172 122.66 218.95 119.677 218.735C119.002 218.699 118.343 218.647 117.682 218.597C110.111 218.111 104.133 217.725 98.3612 210.689C94.6357 206.148 90.07 199.375 89.4667 192.906C89.0713 188.638 89.0092 184.192 91.2351 180.606C91.4992 180.206 91.7994 179.833 92.1324 179.491C92.483 179.136 92.7908 178.74 93.0508 178.311C94.9051 174.911 92.0691 173.078 89.0646 171.136C87.6634 170.233 86.3346 169.383 85.4715 168.349C82.6918 165.056 81.6017 162.284 81.7971 159.053C81.9781 156.095 82.9596 152.719 84.7194 149.023C85.6608 147.045 86.5383 145.199 86.8697 142.99C87.2186 140.82 87.2846 138.582 87.0663 136.329C86.6461 132.726 84.7223 129.724 82.7045 126.565C81.6758 125.014 80.7362 123.413 79.8911 121.769C77.7893 117.507 77.0987 112.777 77.836 107.709C79.2896 97.7459 86.8382 94.4629 94.8445 91.0008L96.0504 90.4783C96.5722 90.2488 97.0945 90.0295 97.6102 89.8099C101.662 88.094 105.488 86.4737 107.521 82.3687C108.462 80.4559 108.916 78.2518 109.347 76.1254C109.778 73.9989 110.235 71.7529 111.205 69.7744C113.758 64.5728 117.711 60.2857 121.536 56.1397L122.646 54.9349C130.27 46.628 137.921 44.1217 148.226 46.5673C152.431 47.5974 156.595 48.8989 160.691 50.4634C163.276 51.4407 165.773 50.9346 167.874 50.3033C170.452 49.536 172.818 48.5591 175.1 47.6199C179.288 45.8994 183.238 44.2655 188.278 43.8658C188.929 43.8147 189.576 43.7464 190.224 43.6766C191.536 43.5136 192.865 43.4248 194.205 43.4106C199.328 43.4236 204.573 46.7451 209.397 52.99C214.685 59.8259 217.405 67.3086 218.13 69.4476C218.506 70.5783 218.85 71.7813 219.243 73.3481C219.604 74.7788 219.915 76.2589 220.272 77.8407C221.413 83.0988 222.707 89.0606 225.686 93.4231C227.938 96.7186 231.564 98.6754 234.213 99.7385C237.566 101.084 241.471 102.022 245.506 102.45C246.867 102.593 248.466 102.825 250.018 103.439C255.848 105.778 261.883 112.052 264.604 116.765C268.342 123.247 270.363 128.851 270.96 134.394L271.07 135.41C271.494 139.213 271.936 143.15 270.943 146.635C270.679 147.562 270.337 148.461 270.007 149.329C269.641 150.291 269.264 151.283 268.998 152.302C267.851 156.708 266.261 160.94 264.25 164.939C263.128 167.159 261.704 169.19 260.013 170.981C259.718 171.308 259.423 171.617 259.125 171.919ZM217.844 199.926C223.175 194.537 229.77 190.19 236.625 185.928C238.537 184.739 240.451 183.615 242.83 182.933C245.021 182.305 246.687 181.135 248.638 179.669C249.13 179.296 249.627 178.928 250.123 178.559C253.387 176.124 256.766 173.613 259.553 170.573C261.212 168.817 262.61 166.827 263.712 164.65C265.705 160.681 267.284 156.482 268.424 152.111C268.712 151.079 269.054 150.068 269.448 149.083C269.775 148.225 270.112 147.335 270.37 146.431C271.331 143.048 270.898 139.17 270.48 135.42L270.368 134.403C269.777 128.944 267.782 123.419 264.09 117.019C261.428 112.404 255.538 106.277 249.841 103.987C248.367 103.395 246.823 103.172 245.503 103.031C241.414 102.597 237.451 101.646 234.041 100.279C230.12 98.7063 227.064 96.4353 225.207 93.7136C222.163 89.2519 220.846 83.2165 219.694 77.9007C219.351 76.3265 219.029 74.8424 218.676 73.4188C218.288 71.8657 217.948 70.6764 217.574 69.5609C216.128 65.221 213.105 58.6699 208.957 53.3027C205.686 49.0693 200.482 44.0125 194.279 43.9859C192.957 44.0045 191.646 44.0954 190.351 44.2581C189.7 44.3277 189.047 44.399 188.388 44.448C183.436 44.8407 179.52 46.4545 175.373 48.162C173.076 49.1089 170.701 50.0886 168.091 50.8559C165.905 51.5079 163.297 52.0333 160.54 50.9931C156.47 49.4434 152.333 48.1556 148.155 47.1382C138.071 44.7447 130.575 47.2071 123.097 55.3587L121.986 56.5635C118.187 60.6841 114.257 64.9438 111.735 70.0815C110.797 71.9961 110.35 74.1889 109.92 76.307C109.483 78.465 109.03 80.6961 108.052 82.6725C105.948 86.9535 102.029 88.5991 97.8903 90.3524C97.3747 90.572 96.8541 90.7931 96.3324 91.0226L95.1249 91.5467C87.2659 94.946 79.8265 98.176 78.4219 107.853C77.7005 112.801 78.3735 117.412 80.4139 121.557C81.254 123.181 82.1867 124.764 83.207 126.297C85.1836 129.39 87.2292 132.589 87.6652 136.334C87.8921 138.639 87.8277 140.93 87.4736 143.152C87.1305 145.441 86.2364 147.317 85.2908 149.307C83.5473 152.969 82.5817 156.278 82.4063 159.166C82.2201 162.226 83.2719 164.872 85.9244 168.017C86.725 168.967 88.0053 169.794 89.3627 170.67C92.3373 172.592 95.7117 174.771 93.5952 178.648C93.3171 179.113 92.9853 179.541 92.6057 179.924C92.2949 180.245 92.0141 180.594 91.766 180.967C89.6225 184.423 89.6845 188.761 90.072 192.933C90.6601 199.242 95.1526 205.894 98.8197 210.366C104.403 217.175 110.259 217.55 117.673 218.025C118.333 218.075 119 218.119 119.669 218.161C122.554 218.365 125.442 217.599 128.243 216.85C132.276 215.785 136.447 214.66 140.822 216.366C142.639 217.071 144.752 217.961 146.676 219.223C150.196 221.53 154.051 225.227 156.664 227.919L157.097 228.366C158.658 229.983 160.273 231.653 162.214 232.796C173.262 239.331 187.674 241.973 194.968 233.178C196.15 231.75 197.457 230.386 198.72 229.07C200.696 227.007 202.741 224.872 204.343 222.452C205.826 220.21 206.904 217.659 207.949 215.192C208.636 213.575 209.343 211.902 210.162 210.32C212.194 206.465 214.779 202.968 217.844 199.926Z" stroke="url(#paint2_linear_57_11047)" stroke-width="2" stroke-miterlimit="10"/>
<path d="M265.209 177.069C264.997 177.283 264.784 177.499 264.54 177.694C263.886 178.252 263.229 178.819 262.572 179.39C258.483 182.931 254.272 186.578 249.303 188.88C247.342 189.786 245.275 190.533 243.272 191.254C239.852 192.49 236.315 193.765 233.304 195.857C229.532 198.483 226.48 202.009 223.53 205.422C222.694 206.388 221.861 207.353 221.008 208.302C217.446 212.261 215.182 216.908 212.992 221.4C211.297 224.876 209.545 228.473 207.187 231.78C205.713 233.851 203.845 235.689 202.039 237.468C201.65 237.862 201.254 238.241 200.868 238.627C196.352 243.149 189.072 247.587 182.179 246.49C181.523 246.385 180.859 246.288 180.197 246.189C177.625 245.814 174.956 245.431 172.415 244.562C168.16 243.121 164.635 241.347 161.921 239.273C158.793 236.883 155.971 233.918 153.241 231.05C152.167 229.921 151.057 228.753 149.956 227.655C146.088 223.787 142.239 221.329 138.52 220.347C135.16 219.461 133.17 220.249 130.863 221.16C129.612 221.691 128.303 222.106 126.952 222.4C126.142 222.539 125.317 222.621 124.482 222.643C123.868 222.668 123.219 222.706 122.614 222.791C121.728 222.94 120.864 223.163 120.031 223.457C119.33 223.694 118.613 223.892 117.882 224.05C106.259 226.33 92.5112 216.858 86.441 206.775C85.1928 204.703 84.5167 202.579 83.7988 200.33L83.736 200.135C81.8351 194.185 84.3395 189.834 86.9837 185.219L87.5697 184.196C90.1416 179.662 86.4824 175.985 82.9419 172.429C82.2043 171.699 81.5189 170.996 80.879 170.293C75.9516 164.866 74.9214 159.597 77.7215 154.179C78.0916 153.464 78.4514 152.745 78.8095 152.028C79.6677 150.309 80.5577 148.534 81.5661 146.851C83.5057 143.619 84.519 141.163 84.3081 137.439C84.024 132.4 82.2774 129.521 78.7121 125.337C77.8524 124.325 76.8649 123.313 75.8216 122.243C72.4452 118.783 68.6192 114.862 68.6605 110.101C68.7402 98.6747 78.3862 92.0681 86.7794 87.5892L87.0218 87.459C96.3423 82.4843 102.497 79.1988 104.875 68.1089C105.825 63.6742 108.167 59.8825 110.692 56.0667C117.665 45.5142 127.702 39.2306 138.201 38.8108C142.503 38.6402 146.735 40.0829 150.831 41.4765C155.292 42.9935 159.903 44.5637 164.52 43.9844C167.959 43.5516 172.132 42.0933 175.972 39.9806C176.83 39.4715 177.62 38.8655 178.329 38.1731C178.763 37.7807 179.212 37.374 179.712 36.9901C183.629 33.9956 189.135 32.6763 194.439 33.4593C199.979 34.2766 205.81 37.0388 210.049 40.8586L210.992 41.6999C212.596 43.1323 214.127 44.5574 215.177 46.1944C218.492 51.3709 222.646 59.3364 223.554 67.9433C223.709 69.3986 223.837 70.8879 223.951 72.3227C224.383 77.5175 224.83 82.8912 226.807 88.0059C227.317 89.3253 228.126 91.2739 229.261 92.9624C230.33 94.538 231.538 95.2151 233.123 96.011C233.621 96.2574 234.096 96.5312 234.553 96.7939C235.56 97.3695 236.513 97.9138 237.627 98.1875C238.577 98.4223 239.449 98.4093 240.383 98.3844C241.169 98.3452 241.966 98.3809 242.763 98.491C244.51 98.7778 246.336 98.6401 248.268 98.4963C251.701 98.2346 255.253 97.9674 258.348 100.273C268.895 108.128 272.747 120.392 275.124 131.352C275.255 131.937 275.394 132.514 275.519 133.077C276.013 135.162 276.522 137.319 276.473 139.5C276.402 142.913 275.888 146.218 275.383 149.423C274.929 152.395 274.443 155.449 274.326 158.564C274.307 159.039 274.304 159.519 274.301 160C274.289 161.354 274.279 162.757 273.947 164.076C273.615 165.395 272.948 166.59 272.3 167.736C272.063 168.156 271.827 168.574 271.608 168.996C270.81 170.52 269.886 171.569 268.808 172.773L268.243 173.409C267.798 173.917 267.394 174.441 266.997 174.949C266.444 175.692 265.847 176.4 265.209 177.069V177.069ZM227.861 199.716C229.413 198.115 231.111 196.66 232.935 195.365C235.997 193.235 239.569 191.947 243.02 190.701C245.013 189.983 247.072 189.24 249.007 188.343C253.913 186.072 258.105 182.441 262.16 178.927L264.131 177.229C265.018 176.425 265.819 175.531 266.521 174.558C266.921 174.043 267.336 173.508 267.786 172.995L268.355 172.356C269.404 171.181 270.321 170.157 271.082 168.681C271.296 168.26 271.544 167.829 271.785 167.403C272.414 166.29 273.066 165.136 273.379 163.875C273.693 162.614 273.699 161.254 273.72 159.941C273.723 159.454 273.728 158.968 273.741 158.485C273.859 155.339 274.338 152.26 274.804 149.28C275.302 146.096 275.815 142.803 275.89 139.41C275.935 137.305 275.459 135.281 274.951 133.138C274.814 132.559 274.676 131.981 274.554 131.404C272.203 120.562 268.402 108.44 258.038 100.723C255.14 98.5632 251.705 98.8231 248.382 99.0738C246.501 99.2169 244.55 99.3582 242.735 99.0644C241.977 98.9607 241.218 98.9293 240.47 98.9706C239.509 99.0343 238.528 98.9629 237.556 98.7586C236.353 98.4634 235.314 97.8693 234.311 97.2972C233.859 97.0364 233.402 96.7804 232.915 96.533C231.288 95.723 229.95 94.9652 228.79 93.2553C227.631 91.5454 226.781 89.519 226.259 88.1687C224.251 82.9701 223.802 77.5525 223.365 72.3121C223.246 70.8787 223.123 69.3948 222.971 67.9479C222.069 59.4674 217.971 51.5889 214.691 46.4781C213.687 44.9125 212.196 43.5264 210.627 42.1262L210.315 41.8459L209.689 41.2869C205.549 37.5579 199.841 34.8542 194.423 34.0535C189.339 33.3022 183.852 34.6174 180.103 37.4847C179.619 37.8559 179.177 38.2563 178.75 38.6406C178.014 39.3593 177.193 39.9873 176.301 40.5139C172.4 42.6621 168.165 44.1406 164.659 44.58C159.909 45.1742 155.23 43.5836 150.704 42.043C146.661 40.6674 142.482 39.2459 138.296 39.4109C127.956 39.8138 118.081 46.0268 111.193 56.4427C108.699 60.2164 106.382 63.9623 105.451 68.3056C103.021 79.613 96.778 82.9375 87.3425 87.9818L87.1001 88.112C71.3568 96.5178 69.2791 104.31 69.2326 110.157C69.191 114.675 72.7683 118.334 76.2059 121.858C77.2652 122.941 78.2529 123.956 79.1305 124.985C82.7939 129.286 84.5899 132.251 84.8855 137.473C85.1037 141.34 84.065 143.872 82.0704 147.192C81.0663 148.863 80.1843 150.631 79.3288 152.339C78.9708 153.06 78.6113 153.782 78.2378 154.497C75.5607 159.68 76.5568 164.728 81.2817 169.933C81.9093 170.626 82.5954 171.315 83.3212 172.045C86.8564 175.596 90.8623 179.622 88.0754 184.532L87.4878 185.557C84.8987 190.058 82.4607 194.317 84.277 200.019L84.3398 200.213C85.0451 202.426 85.7106 204.513 86.9176 206.52C94.5668 219.224 108.846 225.212 117.692 223.477C118.402 223.323 119.099 223.13 119.78 222.899C120.645 222.596 121.543 222.368 122.463 222.218C123.092 222.132 123.747 222.097 124.385 222.07C125.192 222.049 125.99 221.972 126.773 221.838C128.099 221.545 129.384 221.133 130.611 220.607C132.908 219.699 135.077 218.842 138.623 219.776C142.451 220.784 146.4 223.303 150.358 227.256C151.471 228.356 152.58 229.532 153.655 230.663C156.366 233.512 159.17 236.459 162.254 238.815C164.909 240.844 168.377 242.589 172.556 243.999C175.05 244.841 177.682 245.228 180.227 245.602C180.894 245.7 181.558 245.797 182.217 245.902C188.905 246.966 196.017 242.612 200.443 238.181C200.827 237.793 201.214 237.402 201.617 237.019C203.409 235.254 205.261 233.432 206.71 231.397C209.039 228.124 210.783 224.548 212.47 221.092C214.676 216.568 216.956 211.891 220.566 207.883C221.414 206.94 222.246 205.977 223.078 205.013C224.613 203.225 226.18 201.415 227.865 199.711L227.861 199.716Z" stroke="url(#paint3_linear_57_11047)" stroke-width="2" stroke-miterlimit="10"/>
<path d="M272.368 178.235C270.869 179.75 268.965 180.996 267.119 182.202C266.814 182.403 266.51 182.598 266.215 182.796C261.337 186.028 255.998 189.332 249.999 191.623C247.086 192.736 244.498 193.802 242.326 195.58C240.7 196.912 238.97 198.119 237.299 199.287C233.874 201.672 230.644 203.932 228.069 207.241L227.04 208.554C226.246 209.562 225.425 210.604 224.66 211.654C222.345 214.82 220.591 218.618 218.895 222.289C218.139 223.925 217.357 225.618 216.534 227.218C216.108 228.102 215.735 229.016 215.418 229.954C214.989 231.15 214.543 232.386 213.87 233.477L213.808 233.571C212.612 235.498 211.379 237.485 209.449 238.851C208.162 239.813 206.948 240.863 205.813 241.994C203.765 243.942 201.646 245.955 198.906 246.893C197.429 247.399 195.993 247.978 194.604 248.538C189.615 250.551 184.903 252.453 178.691 250.98C171.092 249.183 165.064 245.98 159.136 240.587C158.483 239.994 157.81 239.414 157.15 238.846C156.1 237.94 155.014 237.005 154.003 236.005C153.407 235.416 152.824 234.81 152.238 234.199C151.117 232.988 149.932 231.836 148.69 230.749C146.418 228.833 144.5 228.161 142.271 227.374C141.048 226.965 139.842 226.489 138.659 225.948C137.286 225.304 136.73 225.13 135.417 225.563C129.238 227.59 124.1 229.01 119.245 230.029C115.286 230.875 110.186 230.189 106.746 229.275C105.604 228.949 104.475 228.56 103.363 228.109C102.59 227.814 101.782 227.492 100.977 227.236C100.498 227.078 100.026 226.926 99.5572 226.779C97.0027 225.986 94.589 225.237 92.216 223.496C85.5113 218.576 80.2587 209.94 78.8367 201.492C78.4863 199.408 79.0095 197.627 79.575 195.981C80.1027 194.565 80.7296 193.197 81.4517 191.887C82.7299 189.424 84.0516 186.878 83.9512 183.892C83.8333 180.395 81.4716 178.018 78.978 175.497C78.3533 174.879 77.7183 174.232 77.1232 173.577C74.346 170.514 70.8789 166.708 70.5768 162.49C70.2709 158.605 73.0111 155.024 75.4204 151.87C76.2337 150.811 77.0002 149.81 77.6085 148.857C77.8543 148.469 78.1557 148.082 78.4431 147.712C78.9525 147.054 79.4774 146.376 79.7577 145.633C82.5821 138.168 76.6148 131.633 70.2718 124.691C65.753 119.744 61.0806 114.629 59.9168 109.138C59.5241 107.258 59.7852 104.876 60.2273 103.352C60.5312 102.294 61.1562 101.393 61.7613 100.523L61.972 100.217C65.3277 95.3238 70.512 90.6038 77.8098 85.8013C78.9068 85.1187 80.0582 84.5175 81.2559 84.0017C81.7524 83.7727 82.2473 83.5453 82.7314 83.3072C92.7884 78.3473 100.3 69.6157 102.826 59.9533C102.988 59.3368 103.119 58.6951 103.244 58.0733C103.44 56.9636 103.723 55.8805 104.09 54.8332C105.557 50.9774 109.352 47.385 112.401 44.5006L113.257 43.6857C114.819 42.196 116.56 40.9208 118.244 39.6862C119.268 38.9341 120.328 38.157 121.337 37.3385L121.602 37.1241C122.718 36.2156 123.772 35.3575 125.202 34.7917C129.531 33.0727 134.069 32.3243 137.944 31.8113C142.644 31.1892 146.314 32.7859 150.561 34.6333C151.119 34.8697 151.686 35.115 152.259 35.3656C160.986 39.0747 169.115 35.6472 176.975 32.3366C180.782 30.7327 184.721 29.0703 188.623 28.2931C194.959 27.0304 202.854 29.3039 212.094 35.055C212.458 35.2828 212.817 35.5186 213.17 35.7626C219.768 40.328 225.794 48.6053 227.828 55.8887C228.224 57.4114 228.534 58.9456 228.756 60.4836C228.903 61.387 229.052 62.3209 229.238 63.2281C229.392 63.9874 229.576 64.7534 229.756 65.4939C230.134 66.9236 230.418 68.3657 230.607 69.8108C230.713 70.7832 230.817 71.7561 230.917 72.7293C231.359 76.8967 231.82 81.2028 232.466 85.4466C232.842 87.8964 233.284 89.8978 235.217 91.5062C239.148 94.7636 243.787 94.4256 248.283 94.0968C250.662 93.9326 253.127 93.7529 255.46 94.1089C262.849 95.2565 268.776 100.82 273.576 111.117C273.88 111.768 274.19 112.417 274.495 113.06C275.467 115.086 276.473 117.183 277.227 119.328C277.494 120.153 277.673 120.995 277.761 121.837C277.82 122.259 277.878 122.685 277.966 123.127C278.059 123.56 278.174 123.99 278.311 124.416C278.512 125.024 278.658 125.643 278.747 126.265C279.089 129.335 279.67 132.453 280.235 135.469C280.975 139.435 281.738 143.536 281.976 147.59C282.408 154.966 280.927 162.933 277.816 170.007C276.544 172.845 274.862 175.447 272.817 177.738C272.678 177.919 272.523 178.079 272.368 178.235ZM229.503 204.69C231.77 202.399 234.384 200.575 236.931 198.797C238.597 197.633 240.327 196.442 241.928 195.114C244.155 193.289 246.896 192.163 249.741 191.076C255.694 188.803 261.005 185.513 265.857 182.3L266.766 181.704C268.778 180.388 270.863 179.02 272.373 177.34C274.381 175.085 276.034 172.528 277.285 169.738C280.368 162.734 281.833 154.862 281.408 147.568C281.176 143.548 280.41 139.471 279.675 135.522C279.113 132.499 278.526 129.366 278.173 126.268C278.09 125.683 277.952 125.101 277.762 124.529C277.618 124.083 277.499 123.633 277.403 123.179C277.313 122.724 277.253 122.282 277.192 121.856C277.113 121.053 276.945 120.251 276.691 119.465C275.942 117.349 274.95 115.275 273.985 113.263C273.673 112.613 273.361 111.963 273.056 111.308C268.361 101.233 262.598 95.7943 255.446 94.6829C253.177 94.3336 250.741 94.5098 248.383 94.6852C243.776 95.0333 238.997 95.379 234.868 91.9448C232.749 90.1836 232.277 88.0647 231.88 85.4759C231.227 81.2234 230.769 76.9039 230.327 72.7298L230.016 69.8129C229.832 68.3918 229.553 66.9736 229.182 65.5676C229.002 64.8237 228.814 64.0508 228.659 63.2813C228.473 62.3606 228.32 61.4199 228.174 60.5114C227.958 58.9921 227.654 57.4763 227.266 55.9714C225.272 48.8245 219.356 40.7043 212.88 36.221C212.536 35.9826 212.187 35.754 211.832 35.5318C202.736 29.8723 194.988 27.6251 188.804 28.8606C184.955 29.6271 181.036 31.2839 177.259 32.8726C169.288 36.2328 161.046 39.7064 152.086 35.8958C151.511 35.6434 150.944 35.3981 150.384 35.16C146.223 33.349 142.628 31.7832 138.091 32.3837C134.248 32.8934 129.744 33.6403 125.474 35.3321C124.108 35.8762 123.09 36.7042 122.007 37.5876L121.741 37.802C120.723 38.6267 119.66 39.407 118.629 40.1621C116.959 41.3873 115.23 42.6531 113.692 44.1223L112.833 44.9369C109.819 47.7895 106.071 51.3375 104.643 55.0861C104.288 56.1078 104.014 57.1638 103.823 58.2453C103.695 58.8737 103.564 59.5237 103.399 60.1535C100.832 69.9649 93.2219 78.814 83.0432 83.843C82.5559 84.0843 82.056 84.3131 81.5546 84.5436C80.381 85.0499 79.252 85.6382 78.1749 86.3046C70.9234 91.0676 65.7914 95.7383 62.4663 100.582L62.2613 100.901C61.6811 101.739 61.0807 102.604 60.7987 103.582C60.3912 104.992 60.1231 107.317 60.499 109.092C61.63 114.411 66.2337 119.452 70.6928 124.334C76.877 131.106 83.2761 138.109 80.3253 145.91C80.0192 146.722 79.4694 147.432 78.9366 148.118C78.6446 148.496 78.3667 148.856 78.1362 149.222C77.5261 150.197 76.7429 151.201 75.9236 152.27C73.5664 155.346 70.8908 158.833 71.1561 162.529C71.4531 166.537 74.8194 170.24 77.5309 173.222C78.1171 173.869 78.7496 174.504 79.3642 175.121C81.8446 177.619 84.4127 180.201 84.5381 183.945C84.6393 187.074 83.2897 189.684 81.98 192.207C81.2692 193.494 80.6519 194.838 80.1324 196.229C79.5712 197.813 79.0768 199.519 79.3999 201.465C80.7946 209.75 85.9409 218.22 92.5097 223.041C94.7945 224.717 97.1567 225.45 99.6581 226.228C100.128 226.377 100.602 226.53 101.094 226.679C101.905 226.937 102.726 227.26 103.513 227.562C104.604 228.007 105.713 228.391 106.834 228.712C110.209 229.609 115.201 230.283 119.088 229.463C123.924 228.448 129.043 227.033 135.209 225.015C136.698 224.527 137.437 224.756 138.885 225.436C140.049 225.967 141.236 226.434 142.438 226.835C144.63 227.607 146.699 228.337 149.067 230.332C150.327 231.435 151.53 232.603 152.669 233.832C153.247 234.436 153.826 235.04 154.42 235.624C155.414 236.608 156.489 237.536 157.53 238.433C158.203 239.01 158.874 239.588 159.531 240.188C165.36 245.49 171.298 248.644 178.784 250.415C184.81 251.84 189.443 249.971 194.351 247.99C195.746 247.428 197.188 246.846 198.677 246.335C201.313 245.433 203.391 243.459 205.402 241.547C206.552 240.398 207.784 239.332 209.091 238.358C210.938 237.058 212.093 235.193 213.318 233.219L213.378 233.126C214.029 232.077 214.466 230.867 214.887 229.694C215.211 228.735 215.593 227.801 216.03 226.898C216.838 225.316 217.618 223.627 218.372 221.995C220.071 218.306 221.842 214.48 224.186 211.274C224.956 210.22 225.78 209.175 226.576 208.162L227.606 206.852C228.193 206.093 228.824 205.371 229.497 204.689L229.503 204.69Z" stroke="url(#paint4_linear_57_11047)" stroke-width="2" stroke-miterlimit="10"/>
<path d="M274.838 187.039C274.185 187.699 273.488 188.292 272.77 188.906L271.859 189.692C269.424 191.834 265.891 193.603 262.776 195.163L261.341 195.896C260.001 196.541 258.616 197.102 257.192 197.578C256.656 197.761 256.13 197.955 255.605 198.153C243.937 202.555 236.512 207.736 230.785 215.484C229.317 217.47 228.257 219.582 227.138 221.815L226.987 222.115C225.712 224.66 223.74 228.357 221.356 231.08C220.808 231.709 220.255 232.329 219.706 232.945C217.05 235.924 214.542 238.735 212.55 242.231L211.889 243.398C210.664 245.577 209.503 247.632 207.969 249.603C203.163 255.764 197.361 258.945 188.568 260.244C184.93 260.782 179.227 259.399 175.702 257.821C172.317 256.308 168.884 254.062 165.5 251.147C163.759 249.649 162.109 247.979 160.517 246.366C159.891 245.747 159.276 245.11 158.657 244.497L158.068 243.915C153.449 239.345 148.212 234.165 141.966 232.678C141.161 232.511 140.352 232.404 139.546 232.358C138.807 232.312 138.066 232.222 137.328 232.088C134.663 231.553 131.678 233.135 129.031 234.533C127.896 235.168 126.712 235.724 125.487 236.199C124.076 236.7 122.662 237.175 121.247 237.651L118.868 238.458C116.406 239.312 114.318 239.56 112.104 239.265C110.966 239.112 109.805 238.994 108.584 238.876C104.574 238.452 100.424 238.028 96.7854 236.406C95.7646 235.953 94.6771 235.534 93.626 235.133C91.3531 234.262 88.9955 233.355 86.9616 231.959C85.8258 231.177 84.8524 230.173 83.9116 229.204C83.6246 228.92 83.3501 228.623 83.0631 228.339C81.5113 226.804 80.2809 225.432 79.2856 223.765C74.8636 216.376 73.2502 210.429 73.8899 203.876C74.1105 201.658 74.5138 199.456 74.8943 197.32C75.6258 193.351 76.3664 189.233 75.9031 184.929C75.7081 183.157 75.366 181.82 74.2217 180.665C73.8091 180.257 73.3946 179.847 72.982 179.439C72.6806 179.141 72.3792 178.843 72.085 178.552C71.4571 177.931 70.8292 177.309 70.2031 176.69C68.8738 175.375 67.5426 174.058 66.2132 172.743C63.5095 170.119 61.9927 167.282 61.7031 164.309C61.4076 161.246 62.2441 158.506 63.1233 155.963C63.8279 153.926 65.0114 152.282 66.1559 150.687C66.8373 149.74 67.5416 148.759 68.1452 147.7C68.4579 147.188 68.8249 146.715 69.2408 146.287C69.4607 146.044 69.6824 145.802 69.8891 145.535C70.5291 144.705 71.0764 142.918 71.1725 141.784C71.6578 136.295 68.2624 132.123 64.5225 128.433L64.2498 128.163C61.2718 125.217 58.1804 122.181 56.1944 118.469C55.7405 117.622 55.3078 116.739 54.8887 115.885C54.6542 115.405 54.4181 114.926 54.1804 114.448C54.0595 114.212 53.9338 113.98 53.8146 113.77C53.3088 112.821 52.8316 111.926 52.7542 110.734C52.6857 109.257 52.7663 107.794 52.9948 106.368C53.1893 105 53.5443 103.678 54.0526 102.428C54.6977 100.724 55.6001 99.3672 56.5563 97.9305C56.8095 97.549 57.0751 97.1513 57.3338 96.7499C60.0119 92.5644 64.7165 89.7894 68.8653 87.343L68.9512 87.2921C69.2412 87.1209 69.5174 86.9422 69.792 86.7651C70.5316 86.2422 71.3463 85.8238 72.2164 85.52C73.2307 85.2385 74.201 84.8493 75.1118 84.3586C75.4646 84.1789 75.8354 84.0309 76.2203 83.9162C76.7078 83.7851 77.1621 83.5742 77.566 83.2915C78.5541 82.4642 79.4455 81.5307 80.227 80.5046C83.0857 76.7789 86.5401 73.4054 89.8753 70.1416C90.6778 69.3555 91.4916 68.5616 92.2887 67.7702C94.3364 65.729 95.9928 63.0606 97.4581 59.3942C98.1997 57.543 98.2917 55.7348 98.3807 53.987C98.5199 51.2808 98.6503 48.7269 101.011 46.1612C101.903 45.1882 102.784 44.1711 103.633 43.1875C104.482 42.2039 105.38 41.1707 106.284 40.1884C111.649 34.3666 117.47 30.2625 123.561 28.0378C129.171 25.9876 133.624 26.7178 138.774 27.5687C140.609 27.867 142.514 28.1841 144.592 28.391C145.232 28.4617 145.858 28.5467 146.483 28.6317C147.8 28.8539 149.12 28.9605 150.428 28.9504C152.558 28.8744 154.725 28.9952 156.822 29.1141C158.101 29.1848 159.422 29.2594 160.719 29.2874C164.308 29.3622 167.579 28.3163 170.746 27.3035C172.636 26.6597 174.571 26.1227 176.543 25.6951C177.033 25.5982 177.509 25.5157 177.974 25.4327C179.634 25.1438 181.202 24.8684 182.789 24.0749C183.338 23.8031 183.867 23.5268 184.387 23.2568C187.054 21.8699 189.575 20.5594 193.032 20.4558C196.875 20.339 200.237 21.1024 203.797 21.91C205.039 22.1904 206.321 22.4848 207.655 22.7432C211.821 23.5558 215.675 26.022 218.893 28.3237C220.856 29.7294 222.472 31.3367 224.175 33.0311L224.247 33.1021C224.735 33.5848 225.234 34.0597 225.733 34.5346C227.381 36.0984 229.078 37.705 230.286 39.6707C234.335 46.2924 237.095 53.2159 238.271 59.6913C239.956 68.9425 239.811 75.7701 237.816 81.8164C237.092 83.9844 237.241 85.7212 238.242 86.9585C241.03 90.3986 249.839 89.7822 255.669 89.3752C257.901 89.2188 259.661 89.0965 260.646 89.2206C262.91 89.5011 265.12 90.4392 267.264 91.3435L267.765 91.5547C274.192 94.2724 278.188 102.968 281.399 109.956C282.144 111.578 282.847 113.11 283.52 114.428C284.055 115.533 284.513 116.667 284.889 117.82C285.249 118.928 285.684 120.018 286.191 121.083C287.09 122.851 287.701 124.156 288.024 126.087C288.27 127.409 288.598 128.724 289.007 130.024C289.437 131.398 289.777 132.79 290.023 134.189C290.176 135.171 290.388 136.174 290.592 137.147C290.957 138.707 291.218 140.278 291.373 141.848C291.438 142.859 291.618 143.875 291.78 144.86C291.942 145.845 292.106 146.845 292.187 147.854C292.784 155.374 291.046 159.549 288.416 165.868L287.964 166.959C285.412 173.128 281.753 178.011 277.883 183.186C277.294 183.971 276.705 184.76 276.114 185.559C275.725 186.084 275.298 186.578 274.838 187.039ZM234.476 210.2C239.659 204.96 246.211 201.039 255.336 197.596C255.866 197.397 256.399 197.207 256.933 197.015C258.335 196.549 259.698 195.999 261.016 195.366C261.482 195.129 261.966 194.887 262.453 194.632C265.544 193.086 269.046 191.333 271.434 189.231C271.74 188.961 272.048 188.7 272.349 188.442C273.548 187.417 274.665 186.461 275.619 185.173C276.211 184.373 276.801 183.582 277.389 182.798C281.242 177.648 284.879 172.787 287.41 166.68L287.862 165.588C290.462 159.34 292.18 155.213 291.591 147.824C291.507 146.833 291.35 145.844 291.191 144.881C291.032 143.918 290.857 142.854 290.778 141.818C290.627 140.276 290.374 138.735 290.019 137.203C289.812 136.224 289.602 135.21 289.434 134.206C289.189 132.836 288.853 131.474 288.428 130.128C288.011 128.803 287.676 127.463 287.427 126.116C287.122 124.272 286.527 123.014 285.656 121.296C285.138 120.213 284.694 119.103 284.327 117.975C283.96 116.849 283.514 115.741 282.991 114.662C282.313 113.331 281.605 111.793 280.856 110.164C277.695 103.283 273.765 94.7255 267.578 92.1094L267.079 91.8966C264.981 91.0065 262.813 90.0841 260.628 89.806C259.701 89.6883 257.876 89.8174 255.764 89.9649C249.8 90.385 240.8 91.0116 237.793 87.2978C236.645 85.8814 236.461 83.9579 237.245 81.583C239.211 75.6275 239.346 68.8918 237.684 59.736C236.521 53.3368 233.789 46.4888 229.784 39.9383C228.628 38.0459 226.96 36.466 225.348 34.9378C224.844 34.4576 224.339 33.9807 223.851 33.4946L223.778 33.4218C222.084 31.7465 220.492 30.152 218.573 28.7791C215.248 26.3995 211.629 24.1018 207.594 23.3113C206.249 23.0489 204.954 22.7505 203.716 22.4736C200.196 21.6749 196.868 20.92 193.101 21.0324C189.768 21.1358 187.413 22.3576 184.692 23.7736C184.168 24.045 183.642 24.3148 183.086 24.5963C181.43 25.4198 179.826 25.7033 178.122 26.005C177.659 26.0849 177.187 26.1675 176.701 26.2646C174.749 26.6881 172.834 27.2199 170.964 27.8578C167.758 28.8852 164.444 29.9423 160.762 29.8643C159.455 29.8358 158.128 29.7642 156.844 29.6915C154.761 29.5752 152.608 29.4551 150.503 29.5307C149.164 29.5418 147.813 29.4347 146.465 29.2104C145.842 29.1222 145.218 29.0356 144.599 28.9794C142.502 28.7699 140.593 28.4542 138.742 28.1501C133.67 27.3134 129.283 26.5883 123.812 28.592C117.803 30.7875 112.053 34.8449 106.73 40.6202C105.831 41.5978 104.946 42.6215 104.092 43.6099C103.239 44.5983 102.355 45.617 101.457 46.593C99.2271 49.0194 99.1028 51.4845 98.9689 54.0886C98.8714 55.888 98.7817 57.7333 98.0102 59.6686C96.517 63.3991 94.8453 66.1187 92.7287 68.2117C91.9387 69.0102 91.1273 69.7875 90.3137 70.5847C86.9877 73.8356 83.5478 77.1981 80.7092 80.8963C79.9041 81.9535 78.9851 82.9149 77.966 83.7662C77.5158 84.0923 77.0058 84.3351 76.4564 84.4848C76.1013 84.5903 75.759 84.7263 75.4331 84.8913C74.4919 85.3974 73.4899 85.7995 72.4426 86.0915C71.6134 86.3819 70.8376 86.7826 70.1343 87.2838C69.855 87.4657 69.5723 87.6474 69.2757 87.8217L69.1898 87.8726C65.0881 90.2929 60.4385 93.0338 57.8214 97.1218C57.563 97.5265 57.3021 97.9194 57.041 98.3089C56.1017 99.7213 55.2147 101.056 54.5898 102.706C54.0983 103.918 53.7554 105.199 53.5679 106.524C53.3464 107.913 53.2673 109.337 53.3318 110.774C53.4006 111.831 53.8261 112.628 54.3185 113.552C54.4442 113.783 54.5683 114.017 54.6877 114.255C54.9264 114.731 55.1604 115.212 55.3944 115.693C55.8114 116.542 56.2403 117.418 56.6887 118.257C58.6286 121.879 61.6758 124.881 64.6227 127.787L64.8864 128.047C68.7381 131.858 72.2431 136.166 71.7336 141.909C71.6255 143.12 71.0658 145.002 70.3463 145.931C70.132 146.208 69.9026 146.462 69.6732 146.715C69.2818 147.116 68.936 147.559 68.6409 148.039C68.0237 149.122 67.306 150.106 66.6242 151.071C65.4469 152.706 64.3378 154.251 63.6608 156.219C62.8016 158.706 61.9829 161.382 62.2742 164.328C62.5454 167.143 63.9948 169.844 66.5837 172.354C67.9275 173.658 69.2554 174.978 70.5789 176.307C71.205 176.926 71.8347 177.549 72.459 178.167C72.7586 178.463 73.0582 178.759 73.356 179.054C73.7722 179.466 74.1884 179.877 74.6118 180.296C76.0328 181.73 76.3238 183.453 76.4863 184.953C76.9566 189.34 76.2015 193.494 75.4712 197.509C75.0795 199.602 74.6842 201.795 74.471 203.999C73.8477 210.413 75.4275 216.254 79.7789 223.51C80.7294 225.108 81.9408 226.445 83.452 227.95C83.7408 228.236 84.0314 228.523 84.3094 228.823C85.2251 229.767 86.1734 230.746 87.2546 231.49C89.2288 232.846 91.5415 233.734 93.7763 234.586C94.8296 234.996 95.9285 235.41 96.9666 235.872C100.514 237.453 104.607 237.872 108.567 238.279C109.801 238.406 110.967 238.526 112.115 238.679C114.233 238.964 116.244 238.725 118.634 237.91C119.423 237.638 120.216 237.369 121.012 237.103C122.424 236.626 123.84 236.149 125.244 235.652C126.444 235.184 127.603 234.636 128.716 234.012C131.432 232.572 134.511 230.942 137.378 231.521C138.093 231.649 138.809 231.736 139.525 231.78C140.361 231.827 141.2 231.939 142.034 232.114C148.466 233.639 153.779 238.901 158.454 243.529L159.041 244.109C159.665 244.727 160.296 245.352 160.906 245.984C162.49 247.588 164.128 249.247 165.848 250.727C169.183 253.599 172.56 255.809 175.884 257.296C179.329 258.837 184.878 260.189 188.41 259.664C197.18 258.374 202.706 255.343 207.487 249.215C209.001 247.275 210.151 245.234 211.367 243.071L212.03 241.903C214.049 238.362 216.566 235.524 219.244 232.533C219.793 231.916 220.344 231.298 220.895 230.671C223.24 227.988 225.191 224.329 226.461 221.815L226.61 221.517C227.741 219.261 228.813 217.136 230.302 215.111C231.576 213.374 232.97 211.734 234.476 210.2Z" stroke="url(#paint5_linear_57_11047)" stroke-width="2" stroke-miterlimit="10"/>
</g>
<defs>
<linearGradient id="paint0_linear_57_11047" x1="107.928" y1="84.8342" x2="221.363" y2="197.051" gradientUnits="userSpaceOnUse">
<stop stop-color="#EAB196"/>
<stop offset="1" stop-color="#FFF0E9" stop-opacity="0"/>
</linearGradient>
<linearGradient id="paint1_linear_57_11047" x1="103.089" y1="81.3224" x2="222.899" y2="199.845" gradientUnits="userSpaceOnUse">
<stop stop-color="#EAB196"/>
<stop offset="1" stop-color="#FFF0E9" stop-opacity="0"/>
</linearGradient>
<linearGradient id="paint2_linear_57_11047" x1="99.6934" y1="78.0905" x2="227.181" y2="204.209" gradientUnits="userSpaceOnUse">
<stop stop-color="#EAB196"/>
<stop offset="1" stop-color="#FFF0E9" stop-opacity="0"/>
</linearGradient>
<linearGradient id="paint3_linear_57_11047" x1="94.4374" y1="71.2336" x2="233.66" y2="208.961" gradientUnits="userSpaceOnUse">
<stop stop-color="#EAB196"/>
<stop offset="1" stop-color="#FFF0E9" stop-opacity="0"/>
</linearGradient>
<linearGradient id="paint4_linear_57_11047" x1="89.7725" y1="67.2563" x2="237.542" y2="213.439" gradientUnits="userSpaceOnUse">
<stop stop-color="#EAB196"/>
<stop offset="1" stop-color="#FFF0E9" stop-opacity="0"/>
</linearGradient>
<linearGradient id="paint5_linear_57_11047" x1="84.4296" y1="62.2257" x2="243.065" y2="219.157" gradientUnits="userSpaceOnUse">
<stop stop-color="#EAB196"/>
<stop offset="1" stop-color="#FFF0E9" stop-opacity="0"/>
</linearGradient>
</defs>
</svg>
